AfacadFlux-Italic.ufo
<glyph name="dollar" format="2">
  <advance width="750"/>
  <unicode hex="0024"/>
  <outline>
    <contour>
      <point x="223" y="-120" type="line"/>
      <point x="307" y="-120" type="line"/>
      <point x="336" y="-5" type="line"/>
      <point x="489" y="10"/>
      <point x="610" y="132"/>
      <point x="610" y="276" type="curve" smooth="yes"/>
      <point x="610" y="359"/>
      <point x="570" y="426"/>
      <point x="487" y="489" type="curve" smooth="yes"/>
      <point x="397" y="558" type="line" smooth="yes"/>
      <point x="353" y="592"/>
      <point x="329" y="628"/>
      <point x="329" y="670" type="curve" smooth="yes"/>
      <point x="329" y="746"/>
      <point x="393" y="807"/>
      <point x="467" y="807" type="curve" smooth="yes"/>
      <point x="542" y="807"/>
      <point x="614" y="751"/>
      <point x="642" y="670" type="curve"/>
      <point x="708" y="801" type="line"/>
      <point x="671" y="846"/>
      <point x="619" y="879"/>
      <point x="561" y="895" type="curve"/>
      <point x="584" y="990" type="line"/>
      <point x="500" y="990" type="line"/>
      <point x="479" y="906" type="line"/>
      <point x="333" y="906"/>
      <point x="214" y="794"/>
      <point x="214" y="658" type="curve" smooth="yes"/>
      <point x="214" y="582"/>
      <point x="252" y="524"/>
      <point x="323" y="469" type="curve" smooth="yes"/>
      <point x="411" y="400" type="line" smooth="yes"/>
      <point x="465" y="358"/>
      <point x="496" y="316"/>
      <point x="496" y="263" type="curve" smooth="yes"/>
      <point x="496" y="174"/>
      <point x="412" y="95"/>
      <point x="316" y="95" type="curve" smooth="yes"/>
      <point x="223" y="95"/>
      <point x="141" y="169"/>
      <point x="119" y="267" type="curve"/>
      <point x="53" y="135" type="line"/>
      <point x="91" y="64"/>
      <point x="167" y="14"/>
      <point x="253" y="-1" type="curve"/>
    </contour>
  </outline>
</glyph>
<glyph name="ampersand" format="2">
  <advance width="800"/>
  <unicode hex="0026"/>
  <outline>
    <contour>
      <point x="339" y="-12" type="curve" smooth="yes"/>
      <point x="398" y="-12"/>
      <point x="459" y="6"/>
      <point x="523" y="42" type="curve"/>
      <point x="542" y="0" type="line"/>
      <point x="657" y="0" type="line"/>
      <point x="614" y="91" type="line"/>
      <point x="668" y="129"/>
      <point x="714" y="177"/>
      <point x="747" y="231" type="curve"/>
      <point x="696" y="349" type="line"/>
      <point x="677" y="287"/>
      <point x="635" y="227"/>
      <point x="583" y="182" type="curve"/>
      <point x="447" y="491" type="line"/>
      <point x="484" y="506" type="line" smooth="yes"/>
      <point x="614" y="559"/>
      <point x="685" y="626"/>
      <point x="685" y="727" type="curve" smooth="yes"/>
      <point x="685" y="834"/>
      <point x="606" y="912"/>
      <point x="496" y="912" type="curve" smooth="yes"/>
      <point x="369" y="912"/>
      <point x="263" y="806"/>
      <point x="263" y="684" type="curve" smooth="yes"/>
      <point x="263" y="646"/>
      <point x="273" y="612"/>
      <point x="295" y="564" type="curve" smooth="yes"/>
      <point x="307" y="538" type="line"/>
      <point x="164" y="483"/>
      <point x="77" y="373"/>
      <point x="77" y="244" type="curve" smooth="yes"/>
      <point x="77" y="99"/>
      <point x="188" y="-12"/>
    </contour>
    <contour>
      <point x="358" y="86" type="curve" smooth="yes"/>
      <point x="261" y="86"/>
      <point x="191" y="159"/>
      <point x="191" y="252" type="curve" smooth="yes"/>
      <point x="191" y="343"/>
      <point x="252" y="420"/>
      <point x="345" y="456" type="curve"/>
      <point x="489" y="124" type="line"/>
      <point x="442" y="99"/>
      <point x="399" y="86"/>
    </contour>
    <contour>
      <point x="412" y="576" type="line"/>
      <point x="401" y="600" type="line" smooth="yes"/>
      <point x="381" y="643"/>
      <point x="371" y="674"/>
      <point x="371" y="702" type="curve" smooth="yes"/>
      <point x="371" y="766"/>
      <point x="424" y="817"/>
      <point x="486" y="817" type="curve" smooth="yes"/>
      <point x="540" y="817"/>
      <point x="578" y="779"/>
      <point x="578" y="726" type="curve" smooth="yes"/>
      <point x="578" y="667"/>
      <point x="530" y="620"/>
      <point x="458" y="593" type="curve" smooth="yes"/>
    </contour>
  </outline>
</glyph>
<glyph name="quotesingle" format="2">
  <advance width="270"/>
  <unicode hex="0027"/>
  <outline>
    <contour>
      <point x="169" y="570" type="line"/>
      <point x="235" y="570" type="line"/>
      <point x="355" y="900" type="line"/>
      <point x="217" y="900" type="line"/>
    </contour>
  </outline>
</glyph>
<glyph name="parenleft" format="2">
  <advance width="480"/>
  <unicode hex="0028"/>
  <outline>
    <contour>
      <point x="157" y="-180" type="curve"/>
      <point x="271" y="-180" type="line"/>
      <point x="230" y="-80"/>
      <point x="209" y="30"/>
      <point x="209" y="147" type="curve" smooth="yes"/>
      <point x="209" y="438"/>
      <point x="340" y="741"/>
      <point x="575" y="960" type="curve"/>
      <point x="440" y="960" type="line"/>
      <point x="226" y="733"/>
      <point x="101" y="441"/>
      <point x="101" y="149" type="curve" smooth="yes"/>
      <point x="101" y="34"/>
      <point x="121" y="-77"/>
    </contour>
  </outline>
</glyph>
<glyph name="parenright" format="2">
  <advance width="480"/>
  <unicode hex="0029"/>
  <outline>
    <contour>
      <point x="-57" y="-180" type="curve"/>
      <point x="78" y="-180" type="line"/>
      <point x="292" y="47"/>
      <point x="417" y="339"/>
      <point x="417" y="631" type="curve" smooth="yes"/>
      <point x="417" y="746"/>
      <point x="397" y="857"/>
      <point x="361" y="960" type="curve"/>
      <point x="247" y="960" type="line"/>
      <point x="288" y="860"/>
      <point x="309" y="750"/>
      <point x="309" y="633" type="curve" smooth="yes"/>
      <point x="309" y="342"/>
      <point x="178" y="39"/>
    </contour>
  </outline>
</glyph>
<glyph name="plus" format="2">
  <advance width="750"/>
  <unicode hex="002B"/>
  <outline>
    <contour>
      <point x="285" y="135" type="line"/>
      <point x="381" y="135" type="line"/>
      <point x="449" y="405" type="line"/>
      <point x="716" y="405" type="line"/>
      <point x="738" y="495" type="line"/>
      <point x="471" y="495" type="line"/>
      <point x="539" y="765" type="line"/>
      <point x="443" y="765" type="line"/>
      <point x="375" y="495" type="line"/>
      <point x="108" y="495" type="line"/>
      <point x="86" y="405" type="line"/>
      <point x="353" y="405" type="line"/>
    </contour>
  </outline>
</glyph>
<glyph name="period" format="2">
  <advance width="270"/>
  <unicode hex="002E"/>
  <outline>
    <contour>
      <point x="68" y="-12" type="curve" smooth="yes"/>
      <point x="114" y="-12"/>
      <point x="155" y="29"/>
      <point x="155" y="75" type="curve" smooth="yes"/>
      <point x="155" y="115"/>
      <point x="124" y="144"/>
      <point x="86" y="144" type="curve" smooth="yes"/>
      <point x="40" y="144"/>
      <point x="-1" y="103"/>
      <point x="-1" y="57" type="curve" smooth="yes"/>
      <point x="-1" y="18"/>
      <point x="30" y="-12"/>
    </contour>
  </outline>
</glyph>
<glyph name="slash" format="2">
  <advance width="480"/>
  <unicode hex="002F"/>
  <outline>
    <contour>
      <point x="-206" y="-180" type="line"/>
      <point x="-94" y="-180" type="line"/>
      <point x="729" y="960" type="line"/>
      <point x="617" y="960" type="line"/>
    </contour>
  </outline>
</glyph>
<glyph name="one" format="2">
  <advance width="750"/>
  <unicode hex="0031"/>
  <outline>
    <contour>
      <point x="87" y="0" type="line"/>
      <point x="573" y="0" type="line"/>
      <point x="595" y="90" type="line"/>
      <point x="427" y="90" type="line"/>
      <point x="634" y="920" type="line"/>
      <point x="632" y="920" type="line"/>
      <point x="277" y="760" type="line"/>
      <point x="249" y="646" type="line"/>
      <point x="483" y="752" type="line"/>
      <point x="318" y="90" type="line"/>
      <point x="109" y="90" type="line"/>
    </contour>
  </outline>
</glyph>
<glyph name="five" format="2">
  <advance width="750"/>
  <unicode hex="0035"/>
  <outline>
    <contour>
      <point x="302" y="-12" type="curve" smooth="yes"/>
      <point x="492" y="-12"/>
      <point x="657" y="147"/>
      <point x="657" y="331" type="curve" smooth="yes"/>
      <point x="657" y="489"/>
      <point x="530" y="593"/>
      <point x="397" y="593" type="curve" smooth="yes"/>
      <point x="379" y="593"/>
      <point x="360" y="591"/>
      <point x="341" y="585" type="curve"/>
      <point x="394" y="798" type="line"/>
      <point x="702" y="798" type="line"/>
      <point x="727" y="900" type="line"/>
      <point x="321" y="900" type="line"/>
      <point x="204" y="434" type="line"/>
      <point x="206" y="434" type="line"/>
      <point x="247" y="473"/>
      <point x="304" y="497"/>
      <point x="362" y="497" type="curve" smooth="yes"/>
      <point x="472" y="497"/>
      <point x="547" y="415"/>
      <point x="547" y="318" type="curve" smooth="yes"/>
      <point x="547" y="197"/>
      <point x="438" y="90"/>
      <point x="313" y="90" type="curve" smooth="yes"/>
      <point x="198" y="90"/>
      <point x="131" y="181"/>
      <point x="136" y="295" type="curve"/>
      <point x="40" y="174" type="line"/>
      <point x="78" y="53"/>
      <point x="191" y="-12"/>
    </contour>
  </outline>
</glyph>
<glyph name="eight" format="2">
  <advance width="750"/>
  <unicode hex="0038"/>
  <outline>
    <contour>
      <point x="341" y="-12" type="curve" smooth="yes"/>
      <point x="521" y="-12"/>
      <point x="685" y="149"/>
      <point x="685" y="327" type="curve" smooth="yes"/>
      <point x="685" y="415"/>
      <point x="645" y="493"/>
      <point x="580" y="541" type="curve"/>
      <point x="657" y="591"/>
      <point x="685" y="667"/>
      <point x="685" y="727" type="curve" smooth="yes"/>
      <point x="685" y="829"/>
      <point x="607" y="912"/>
      <point x="500" y="912" type="curve" smooth="yes"/>
      <point x="373" y="912"/>
      <point x="263" y="797"/>
      <point x="263" y="682" type="curve" smooth="yes"/>
      <point x="263" y="645"/>
      <point x="275" y="609"/>
      <point x="296" y="576" type="curve"/>
      <point x="145" y="523"/>
      <point x="62" y="382"/>
      <point x="62" y="258" type="curve" smooth="yes"/>
      <point x="62" y="102"/>
      <point x="188" y="-12"/>
    </contour>
    <contour>
      <point x="350" y="89" type="curve" smooth="yes"/>
      <point x="244" y="89"/>
      <point x="172" y="171"/>
      <point x="172" y="269" type="curve" smooth="yes"/>
      <point x="172" y="389"/>
      <point x="277" y="498"/>
      <point x="400" y="498" type="curve" smooth="yes"/>
      <point x="502" y="498"/>
      <point x="575" y="419"/>
      <point x="575" y="320" type="curve" smooth="yes"/>
      <point x="575" y="198"/>
      <point x="467" y="89"/>
    </contour>
    <contour>
      <point x="459" y="586" type="curve" smooth="yes"/>
      <point x="402" y="586"/>
      <point x="360" y="626"/>
      <point x="360" y="684" type="curve" smooth="yes"/>
      <point x="360" y="756"/>
      <point x="422" y="816"/>
      <point x="489" y="816" type="curve" smooth="yes"/>
      <point x="546" y="816"/>
      <point x="587" y="768"/>
      <point x="587" y="711" type="curve" smooth="yes"/>
      <point x="587" y="640"/>
      <point x="525" y="586"/>
    </contour>
  </outline>
</glyph>
<glyph name="less" format="2">
  <advance width="750"/>
  <unicode hex="003C"/>
  <outline>
    <contour>
      <point x="625" y="157" type="line"/>
      <point x="647" y="247" type="line"/>
      <point x="382" y="391" type="line" smooth="yes"/>
      <point x="350" y="409"/>
      <point x="311" y="426"/>
      <point x="274" y="442" type="curve"/>
      <point x="319" y="459"/>
      <point x="366" y="476"/>
      <point x="408" y="494" type="curve" smooth="yes"/>
      <point x="744" y="639" type="line"/>
      <point x="769" y="743" type="line"/>
      <point x="97" y="451" type="line"/>
      <point x="97" y="449" type="line"/>
    </contour>
  </outline>
</glyph>
<glyph name="greater" format="2">
  <advance width="750"/>
  <unicode hex="003E"/>
  <outline>
    <contour>
      <point x="55" y="157" type="line"/>
      <point x="727" y="449" type="line"/>
      <point x="727" y="451" type="line"/>
      <point x="199" y="743" type="line"/>
      <point x="177" y="653" type="line"/>
      <point x="442" y="509" type="line" smooth="yes"/>
      <point x="474" y="491"/>
      <point x="513" y="474"/>
      <point x="550" y="458" type="curve"/>
      <point x="505" y="441"/>
      <point x="458" y="424"/>
      <point x="416" y="406" type="curve" smooth="yes"/>
      <point x="80" y="261" type="line"/>
    </contour>
  </outline>
</glyph>
<glyph name="at" format="2">
  <advance width="1260"/>
  <unicode hex="0040"/>
  <outline>
    <contour>
      <point x="603" y="-192" type="curve" smooth="yes"/>
      <point x="701" y="-192"/>
      <point x="797" y="-167"/>
      <point x="888" y="-117" type="curve"/>
      <point x="888" y="-16" type="line"/>
      <point x="797" y="-75"/>
      <point x="707" y="-103"/>
      <point x="613" y="-103" type="curve" smooth="yes"/>
      <point x="367" y="-103"/>
      <point x="189" y="63"/>
      <point x="189" y="297" type="curve" smooth="yes"/>
      <point x="189" y="577"/>
      <point x="435" y="822"/>
      <point x="720" y="822" type="curve" smooth="yes"/>
      <point x="949" y="822"/>
      <point x="1123" y="663"/>
      <point x="1123" y="441" type="curve" smooth="yes"/>
      <point x="1123" y="277"/>
      <point x="1026" y="129"/>
      <point x="933" y="129" type="curve" smooth="yes"/>
      <point x="883" y="129"/>
      <point x="857" y="174"/>
      <point x="870" y="226" type="curve" smooth="yes"/>
      <point x="969" y="630" type="line"/>
      <point x="878" y="630" type="line"/>
      <point x="855" y="538" type="line"/>
      <point x="812" y="601"/>
      <point x="740" y="638"/>
      <point x="658" y="638" type="curve" smooth="yes"/>
      <point x="497" y="638"/>
      <point x="350" y="490"/>
      <point x="350" y="326" type="curve" smooth="yes"/>
      <point x="350" y="191"/>
      <point x="450" y="82"/>
      <point x="587" y="82" type="curve" smooth="yes"/>
      <point x="656" y="82"/>
      <point x="723" y="109"/>
      <point x="780" y="158" type="curve"/>
      <point x="792" y="97"/>
      <point x="850" y="52"/>
      <point x="925" y="52" type="curve" smooth="yes"/>
      <point x="1078" y="52"/>
      <point x="1219" y="243"/>
      <point x="1219" y="455" type="curve" smooth="yes"/>
      <point x="1219" y="716"/>
      <point x="1007" y="912"/>
      <point x="729" y="912" type="curve" smooth="yes"/>
      <point x="391" y="912"/>
      <point x="93" y="624"/>
      <point x="93" y="294" type="curve" smooth="yes"/>
      <point x="93" y="13"/>
      <point x="310" y="-192"/>
    </contour>
    <contour>
      <point x="609" y="170" type="curve" smooth="yes"/>
      <point x="516" y="170"/>
      <point x="449" y="246"/>
      <point x="449" y="337" type="curve" smooth="yes"/>
      <point x="449" y="449"/>
      <point x="548" y="548"/>
      <point x="658" y="548" type="curve" smooth="yes"/>
      <point x="749" y="548"/>
      <point x="818" y="478"/>
      <point x="818" y="386" type="curve" smooth="yes"/>
      <point x="818" y="274"/>
      <point x="718" y="170"/>
    </contour>
  </outline>
</glyph>
<glyph name="A" format="2">
  <advance width="800"/>
  <unicode hex="0041"/>
  <anchor x="325" y="0" name="bottom"/>
  <anchor x="652" y="0" name="ogonek"/>
  <anchor x="546" y="900" name="top"/>
  <anchor x="222" y="720" name="top-vertical"/>
  <outline>
    <contour>
      <point x="-57" y="0" type="line"/>
      <point x="68" y="0" type="line"/>
      <point x="240" y="267" type="line"/>
      <point x="555" y="267" type="line"/>
      <point x="596" y="0" type="line"/>
      <point x="707" y="0" type="line"/>
      <point x="554" y="930" type="line"/>
      <point x="552" y="930" type="line"/>
    </contour>
    <contour>
      <point x="301" y="362" type="line"/>
      <point x="416" y="540" type="line" smooth="yes"/>
      <point x="446" y="586"/>
      <point x="469" y="624"/>
      <point x="500" y="686" type="curve"/>
      <point x="501" y="624"/>
      <point x="507" y="585"/>
      <point x="513" y="540" type="curve" smooth="yes"/>
      <point x="540" y="362" type="line"/>
    </contour>
  </outline>
</glyph>
<glyph name="E" format="2">
  <advance width="630"/>
  <unicode hex="0045"/>
  <anchor x="273" y="0" name="bottom"/>
  <anchor x="445" y="0" name="ogonek"/>
  <anchor x="498" y="900" name="top"/>
  <anchor x="276" y="900" name="topleft"/>
  <outline>
    <contour>
      <point x="51" y="0" type="line"/>
      <point x="495" y="0" type="line"/>
      <point x="520" y="102" type="line"/>
      <point x="190" y="102" type="line"/>
      <point x="292" y="504" type="line"/>
      <point x="552" y="504" type="line"/>
      <point x="577" y="606" type="line"/>
      <point x="317" y="606" type="line"/>
      <point x="365" y="798" type="line"/>
      <point x="695" y="798" type="line"/>
      <point x="720" y="900" type="line"/>
      <point x="276" y="900" type="line"/>
    </contour>
  </outline>
</glyph>
<glyph name="F" format="2">
  <advance width="600"/>
  <unicode hex="0046"/>
  <outline>
    <contour>
      <point x="51" y="0" type="line"/>
      <point x="165" y="0" type="line"/>
      <point x="291" y="504" type="line"/>
      <point x="592" y="504" type="line"/>
      <point x="617" y="606" type="line"/>
      <point x="317" y="606" type="line"/>
      <point x="365" y="798" type="line"/>
      <point x="695" y="798" type="line"/>
      <point x="720" y="900" type="line"/>
      <point x="276" y="900" type="line"/>
    </contour>
  </outline>
</glyph>
<glyph name="H" format="2">
  <advance width="800"/>
  <unicode hex="0048"/>
  <anchor x="325" y="0" name="bottom"/>
  <anchor x="510" y="750" name="center"/>
  <anchor x="547" y="900" name="top"/>
  <anchor x="273" y="900" name="topleft"/>
  <outline>
    <contour>
      <point x="51" y="0" type="line"/>
      <point x="165" y="0" type="line"/>
      <point x="291" y="504" type="line"/>
      <point x="611" y="504" type="line"/>
      <point x="485" y="0" type="line"/>
      <point x="599" y="0" type="line"/>
      <point x="824" y="900" type="line"/>
      <point x="710" y="900" type="line"/>
      <point x="637" y="606" type="line"/>
      <point x="317" y="606" type="line"/>
      <point x="390" y="900" type="line"/>
      <point x="276" y="900" type="line"/>
    </contour>
  </outline>
</glyph>
<glyph name="J" format="2">
  <advance width="540"/>
  <unicode hex="004A"/>
  <anchor x="195" y="0" name="bottom"/>
  <anchor x="525" y="900" name="top"/>
  <outline>
    <contour>
      <point x="142" y="-12" type="curve" smooth="yes"/>
      <point x="258" y="-12"/>
      <point x="372" y="58"/>
      <point x="412" y="218" type="curve" smooth="yes"/>
      <point x="582" y="900" type="line"/>
      <point x="468" y="900" type="line"/>
      <point x="304" y="241" type="line" smooth="yes"/>
      <point x="276" y="130"/>
      <point x="213" y="90"/>
      <point x="150" y="90" type="curve" smooth="yes"/>
      <point x="85" y="90"/>
      <point x="32" y="129"/>
      <point x="13" y="193" type="curve"/>
      <point x="-49" y="79" type="line"/>
      <point x="-10" y="14"/>
      <point x="75" y="-12"/>
    </contour>
  </outline>
</glyph>
<glyph name="N" format="2">
  <advance width="990"/>
  <unicode hex="004E"/>
  <anchor x="480" y="60" name="bottom"/>
  <anchor x="585" y="840" name="top"/>
  <outline>
    <contour>
      <point x="780" y="-30" type="line"/>
      <point x="782" y="-30" type="line"/>
      <point x="1014" y="900" type="line"/>
      <point x="906" y="900" type="line"/>
      <point x="740" y="236" type="line"/>
      <point x="285" y="930" type="line"/>
      <point x="283" y="930" type="line"/>
      <point x="51" y="0" type="line"/>
      <point x="159" y="0" type="line"/>
      <point x="325" y="664" type="line"/>
    </contour>
  </outline>
</glyph>
<glyph name="Q" format="2">
  <advance width="1060"/>
  <unicode hex="0051"/>
  <outline>
    <contour>
      <point x="785" y="-30" type="line"/>
      <point x="907" y="-30" type="line"/>
      <point x="831" y="100" type="line"/>
      <point x="954" y="198"/>
      <point x="1036" y="347"/>
      <point x="1036" y="505" type="curve" smooth="yes"/>
      <point x="1036" y="738"/>
      <point x="856" y="918"/>
      <point x="622" y="918" type="curve" smooth="yes"/>
      <point x="347" y="918"/>
      <point x="98" y="669"/>
      <point x="98" y="395" type="curve" smooth="yes"/>
      <point x="98" y="162"/>
      <point x="278" y="-18"/>
      <point x="512" y="-18" type="curve" smooth="yes"/>
      <point x="593" y="-18"/>
      <point x="673" y="4"/>
      <point x="744" y="42" type="curve"/>
    </contour>
    <contour>
      <point x="523" y="90" type="curve" smooth="yes"/>
      <point x="349" y="90"/>
      <point x="216" y="225"/>
      <point x="216" y="403" type="curve" smooth="yes"/>
      <point x="216" y="616"/>
      <point x="404" y="810"/>
      <point x="611" y="810" type="curve" smooth="yes"/>
      <point x="785" y="810"/>
      <point x="918" y="675"/>
      <point x="918" y="497" type="curve" smooth="yes"/>
      <point x="918" y="380"/>
      <point x="862" y="269"/>
      <point x="777" y="193" type="curve"/>
      <point x="626" y="450" type="line"/>
      <point x="500" y="450" type="line"/>
      <point x="687" y="131" type="line"/>
      <point x="636" y="105"/>
      <point x="580" y="90"/>
    </contour>
  </outline>
</glyph>
<glyph name="R" format="2">
  <advance width="780"/>
  <unicode hex="0052"/>
  <anchor x="364" y="0" name="bottom"/>
  <anchor x="472" y="900" name="top"/>
  <outline>
    <contour>
      <point x="54" y="0" type="line"/>
      <point x="168" y="0" type="line"/>
      <point x="272" y="414" type="line"/>
      <point x="394" y="414" type="line"/>
      <point x="576" y="0" type="line"/>
      <point x="699" y="0" type="line"/>
      <point x="511" y="424" type="line"/>
      <point x="627" y="457"/>
      <point x="719" y="564"/>
      <point x="719" y="687" type="curve" smooth="yes"/>
      <point x="719" y="813"/>
      <point x="622" y="900"/>
      <point x="495" y="900" type="curve" smooth="yes"/>
      <point x="279" y="900" type="line"/>
    </contour>
    <contour>
      <point x="296" y="510" type="line"/>
      <point x="368" y="798" type="line"/>
      <point x="467" y="798" type="line" smooth="yes"/>
      <point x="556" y="798"/>
      <point x="611" y="747"/>
      <point x="611" y="673" type="curve" smooth="yes"/>
      <point x="611" y="585"/>
      <point x="533" y="510"/>
      <point x="431" y="510" type="curve" smooth="yes"/>
    </contour>
  </outline>
</glyph>
<glyph name="S" format="2">
  <advance width="660"/>
  <unicode hex="0053"/>
  <anchor x="279" y="0" name="bottom"/>
  <anchor x="492" y="900" name="top"/>
  <outline>
    <contour>
      <point x="284" y="-6" type="curve" smooth="yes"/>
      <point x="451" y="-6"/>
      <point x="590" y="129"/>
      <point x="590" y="282" type="curve" smooth="yes"/>
      <point x="590" y="365"/>
      <point x="548" y="426"/>
      <point x="465" y="489" type="curve" smooth="yes"/>
      <point x="375" y="558" type="line" smooth="yes"/>
      <point x="331" y="592"/>
      <point x="307" y="628"/>
      <point x="307" y="670" type="curve" smooth="yes"/>
      <point x="307" y="746"/>
      <point x="371" y="807"/>
      <point x="445" y="807" type="curve" smooth="yes"/>
      <point x="520" y="807"/>
      <point x="592" y="751"/>
      <point x="620" y="670" type="curve"/>
      <point x="686" y="801" type="line"/>
      <point x="633" y="866"/>
      <point x="546" y="906"/>
      <point x="458" y="906" type="curve" smooth="yes"/>
      <point x="311" y="906"/>
      <point x="190" y="788"/>
      <point x="190" y="652" type="curve" smooth="yes"/>
      <point x="190" y="576"/>
      <point x="230" y="524"/>
      <point x="301" y="469" type="curve" smooth="yes"/>
      <point x="389" y="400" type="line" smooth="yes"/>
      <point x="443" y="358"/>
      <point x="474" y="316"/>
      <point x="474" y="263" type="curve" smooth="yes"/>
      <point x="474" y="174"/>
      <point x="390" y="95"/>
      <point x="294" y="95" type="curve" smooth="yes"/>
      <point x="201" y="95"/>
      <point x="119" y="169"/>
      <point x="97" y="267" type="curve"/>
      <point x="31" y="135" type="line"/>
      <point x="77" y="49"/>
      <point x="178" y="-6"/>
    </contour>
  </outline>
</glyph>
<glyph name="U" format="2">
  <advance width="800"/>
  <unicode hex="0055"/>
  <anchor x="327" y="0" name="bottom"/>
  <anchor x="357" y="0" name="ogonek"/>
  <anchor x="552" y="900" name="top"/>
  <anchor x="504" y="720" name="top-vertical"/>
  <anchor x="785" y="900" name="topright"/>
  <outline>
    <contour>
      <point x="364" y="-12" type="curve" smooth="yes"/>
      <point x="521" y="-12"/>
      <point x="640" y="93"/>
      <point x="682" y="261" type="curve" smooth="yes"/>
      <point x="842" y="900" type="line"/>
      <point x="732" y="900" type="line"/>
      <point x="574" y="271" type="line" smooth="yes"/>
      <point x="546" y="158"/>
      <point x="470" y="90"/>
      <point x="374" y="90" type="curve" smooth="yes"/>
      <point x="247" y="90"/>
      <point x="197" y="202"/>
      <point x="226" y="318" type="curve" smooth="yes"/>
      <point x="372" y="900" type="line"/>
      <point x="258" y="900" type="line"/>
      <point x="116" y="328" type="line" smooth="yes"/>
      <point x="72" y="149"/>
      <point x="167" y="-12"/>
    </contour>
  </outline>
</glyph>
<glyph name="V" format="2">
  <advance width="750"/>
  <unicode hex="0056"/>
  <outline>
    <contour>
      <point x="293" y="-30" type="line"/>
      <point x="295" y="-30" type="line"/>
      <point x="888" y="900" type="line"/>
      <point x="766" y="900" type="line"/>
      <point x="420" y="358" type="line" smooth="yes"/>
      <point x="398" y="323"/>
      <point x="381" y="295"/>
      <point x="360" y="254" type="curve"/>
      <point x="358" y="295"/>
      <point x="355" y="323"/>
      <point x="350" y="358" type="curve" smooth="yes"/>
      <point x="273" y="900" type="line"/>
      <point x="162" y="900" type="line"/>
    </contour>
  </outline>
</glyph>
<glyph name="W" format="2">
  <advance width="1200"/>
  <unicode hex="0057"/>
  <anchor x="529" y="0" name="bottom"/>
  <anchor x="754" y="900" name="top"/>
  <outline>
    <contour>
      <point x="276" y="-30" type="line"/>
      <point x="278" y="-30" type="line"/>
      <point x="633" y="554" type="line" smooth="yes"/>
      <point x="654" y="588"/>
      <point x="670" y="616"/>
      <point x="693" y="667" type="curve"/>
      <point x="691" y="616"/>
      <point x="696" y="588"/>
      <point x="699" y="554" type="curve" smooth="yes"/>
      <point x="759" y="-30" type="line"/>
      <point x="761" y="-30" type="line"/>
      <point x="1338" y="900" type="line"/>
      <point x="1222" y="900" type="line"/>
      <point x="883" y="360" type="line" smooth="yes"/>
      <point x="862" y="326"/>
      <point x="845" y="297"/>
      <point x="822" y="246" type="curve"/>
      <point x="824" y="297"/>
      <point x="820" y="326"/>
      <point x="816" y="360" type="curve" smooth="yes"/>
      <point x="754" y="930" type="line"/>
      <point x="752" y="930" type="line"/>
      <point x="405" y="360" type="line" smooth="yes"/>
      <point x="382" y="322"/>
      <point x="366" y="293"/>
      <point x="345" y="246" type="curve"/>
      <point x="345" y="293"/>
      <point x="344" y="322"/>
      <point x="339" y="360" type="curve" smooth="yes"/>
      <point x="270" y="900" type="line"/>
      <point x="162" y="900" type="line"/>
    </contour>
  </outline>
</glyph>
<glyph name="X" format="2">
  <advance width="870"/>
  <unicode hex="0058"/>
  <outline>
    <contour>
      <point x="-69" y="0" type="line"/>
      <point x="74" y="0" type="line"/>
      <point x="382" y="331" type="line" smooth="yes"/>
      <point x="412" y="363"/>
      <point x="441" y="394"/>
      <point x="474" y="440" type="curve"/>
      <point x="490" y="396"/>
      <point x="504" y="363"/>
      <point x="518" y="332" type="curve" smooth="yes"/>
      <point x="666" y="0" type="line"/>
      <point x="789" y="0" type="line"/>
      <point x="556" y="518" type="line"/>
      <point x="911" y="900" type="line"/>
      <point x="774" y="900" type="line"/>
      <point x="583" y="692" type="line" smooth="yes"/>
      <point x="558" y="666"/>
      <point x="536" y="638"/>
      <point x="508" y="595" type="curve"/>
      <point x="492" y="639"/>
      <point x="481" y="665"/>
      <point x="469" y="692" type="curve" smooth="yes"/>
      <point x="377" y="900" type="line"/>
      <point x="257" y="900" type="line"/>
      <point x="424" y="530" type="line"/>
    </contour>
  </outline>
</glyph>
<glyph name="Y" format="2">
  <advance width="690"/>
  <unicode hex="0059"/>
  <anchor x="271" y="0" name="bottom"/>
  <anchor x="496" y="900" name="top"/>
  <anchor x="173" y="900" name="topleft"/>
  <outline>
    <contour>
      <point x="213" y="0" type="line"/>
      <point x="327" y="0" type="line"/>
      <point x="436" y="435" type="line"/>
      <point x="822" y="900" type="line"/>
      <point x="690" y="900" type="line"/>
      <point x="475" y="638" type="line" smooth="yes"/>
      <point x="447" y="604"/>
      <point x="424" y="574"/>
      <point x="396" y="532" type="curve"/>
      <point x="390" y="574"/>
      <point x="381" y="605"/>
      <point x="370" y="638" type="curve" smooth="yes"/>
      <point x="288" y="900" type="line"/>
      <point x="168" y="900" type="line"/>
      <point x="322" y="435" type="line"/>
    </contour>
  </outline>
</glyph>
<glyph name="Z" format="2">
  <advance width="660"/>
  <unicode hex="005A"/>
  <anchor x="258" y="0" name="bottom"/>
  <anchor x="378" y="450" name="center"/>
  <anchor x="510" y="900" name="top"/>
  <outline>
    <contour>
      <point x="-15" y="0" type="line"/>
      <point x="531" y="0" type="line"/>
      <point x="556" y="102" type="line"/>
      <point x="185" y="102" type="line"/>
      <point x="771" y="898" type="line"/>
      <point x="771" y="900" type="line"/>
      <point x="249" y="900" type="line"/>
      <point x="224" y="798" type="line"/>
      <point x="571" y="798" type="line"/>
      <point x="-15" y="2" type="line"/>
    </contour>
  </outline>
</glyph>
<glyph name="bracketleft" format="2">
  <advance width="480"/>
  <unicode hex="005B"/>
  <outline>
    <contour>
      <point x="0" y="-180" type="line"/>
      <point x="300" y="-180" type="line"/>
      <point x="322" y="-90" type="line"/>
      <point x="124" y="-90" type="line"/>
      <point x="365" y="870" type="line"/>
      <point x="563" y="870" type="line"/>
      <point x="585" y="960" type="line"/>
      <point x="285" y="960" type="line"/>
    </contour>
  </outline>
</glyph>
<glyph name="underscore" format="2">
  <advance width="750"/>
  <unicode hex="005F"/>
  <outline>
    <contour>
      <point x="-126" y="-180" type="line"/>
      <point x="636" y="-180" type="line"/>
      <point x="658" y="-90" type="line"/>
      <point x="-104" y="-90" type="line"/>
    </contour>
  </outline>
</glyph>
<glyph name="b" format="2">
  <advance width="760"/>
  <unicode hex="0062"/>
  <anchor x="315" y="0" name="bottom"/>
  <anchor x="540" y="914" name="top"/>
  <outline>
    <contour>
      <point x="364" y="-8" type="curve" smooth="yes"/>
      <point x="544" y="-8"/>
      <point x="706" y="155"/>
      <point x="706" y="337" type="curve" smooth="yes"/>
      <point x="706" y="492"/>
      <point x="587" y="608"/>
      <point x="449" y="608" type="curve" smooth="yes"/>
      <point x="377" y="608"/>
      <point x="311" y="577"/>
      <point x="260" y="530" type="curve"/>
      <point x="369" y="960" type="line"/>
      <point x="261" y="960" type="line"/>
      <point x="21" y="0" type="line"/>
      <point x="121" y="0" type="line"/>
      <point x="146" y="100" type="line"/>
      <point x="195" y="33"/>
      <point x="274" y="-8"/>
    </contour>
    <contour>
      <point x="365" y="90" type="curve" smooth="yes"/>
      <point x="260" y="90"/>
      <point x="188" y="175"/>
      <point x="188" y="274" type="curve" smooth="yes"/>
      <point x="188" y="397"/>
      <point x="299" y="510"/>
      <point x="419" y="510" type="curve" smooth="yes"/>
      <point x="524" y="510"/>
      <point x="596" y="425"/>
      <point x="596" y="326" type="curve" smooth="yes"/>
      <point x="596" y="203"/>
      <point x="485" y="90"/>
    </contour>
  </outline>
</glyph>
<glyph name="h" format="2">
  <advance width="720"/>
  <unicode hex="0068"/>
  <anchor x="285" y="0" name="bottom"/>
  <anchor x="267" y="780" name="center"/>
  <anchor x="315" y="960" name="top"/>
  <outline>
    <contour>
      <point x="21" y="0" type="line"/>
      <point x="129" y="0" type="line"/>
      <point x="216" y="345" type="line" smooth="yes"/>
      <point x="245" y="460"/>
      <point x="335" y="522"/>
      <point x="419" y="522" type="curve" smooth="yes"/>
      <point x="526" y="522"/>
      <point x="560" y="432"/>
      <point x="534" y="326" type="curve" smooth="yes"/>
      <point x="453" y="0" type="line"/>
      <point x="561" y="0" type="line"/>
      <point x="643" y="328" type="line" smooth="yes"/>
      <point x="681" y="480"/>
      <point x="618" y="612"/>
      <point x="456" y="612" type="curve" smooth="yes"/>
      <point x="387" y="612"/>
      <point x="315" y="583"/>
      <point x="259" y="525" type="curve"/>
      <point x="369" y="960" type="line"/>
      <point x="261" y="960" type="line"/>
    </contour>
  </outline>
</glyph>
<glyph name="k" format="2">
  <advance width="630"/>
  <unicode hex="006B"/>
  <anchor x="255" y="0" name="bottom"/>
  <anchor x="315" y="960" name="top"/>
  <outline>
    <contour>
      <point x="432" y="0" type="line"/>
      <point x="555" y="0" type="line"/>
      <point x="354" y="347" type="line"/>
      <point x="627" y="600" type="line"/>
      <point x="492" y="600" type="line"/>
      <point x="228" y="354" type="line"/>
    </contour>
    <contour>
      <point x="21" y="0" type="line"/>
      <point x="129" y="0" type="line"/>
      <point x="369" y="960" type="line"/>
      <point x="261" y="960" type="line"/>
    </contour>
  </outline>
</glyph>
<glyph name="n" format="2">
  <advance width="720"/>
  <unicode hex="006E"/>
  <anchor x="285" y="0" name="bottom"/>
  <anchor x="433" y="600" name="top"/>
  <outline>
    <contour>
      <point x="21" y="0" type="line"/>
      <point x="129" y="0" type="line"/>
      <point x="217" y="345" type="line" smooth="yes"/>
      <point x="246" y="460"/>
      <point x="335" y="522"/>
      <point x="419" y="522" type="curve" smooth="yes"/>
      <point x="526" y="522"/>
      <point x="560" y="432"/>
      <point x="534" y="326" type="curve" smooth="yes"/>
      <point x="453" y="0" type="line"/>
      <point x="561" y="0" type="line"/>
      <point x="643" y="328" type="line" smooth="yes"/>
      <point x="681" y="480"/>
      <point x="618" y="612"/>
      <point x="456" y="612" type="curve" smooth="yes"/>
      <point x="383" y="612"/>
      <point x="307" y="580"/>
      <point x="250" y="515" type="curve"/>
      <point x="271" y="600" type="line"/>
      <point x="171" y="600" type="line"/>
    </contour>
  </outline>
</glyph>
<glyph name="p" format="2">
  <advance width="760"/>
  <unicode hex="0070"/>
  <anchor x="314" y="0" name="bottom"/>
  <anchor x="464" y="600" name="top"/>
  <outline>
    <contour>
      <point x="-54" y="-300" type="line"/>
      <point x="54" y="-300" type="line"/>
      <point x="152" y="92" type="line"/>
      <point x="202" y="30"/>
      <point x="278" y="-8"/>
      <point x="364" y="-8" type="curve" smooth="yes"/>
      <point x="544" y="-8"/>
      <point x="706" y="155"/>
      <point x="706" y="337" type="curve" smooth="yes"/>
      <point x="706" y="492"/>
      <point x="587" y="608"/>
      <point x="449" y="608" type="curve" smooth="yes"/>
      <point x="373" y="608"/>
      <point x="303" y="573"/>
      <point x="250" y="520" type="curve"/>
      <point x="271" y="600" type="line"/>
      <point x="171" y="600" type="line"/>
    </contour>
    <contour>
      <point x="365" y="90" type="curve" smooth="yes"/>
      <point x="260" y="90"/>
      <point x="188" y="175"/>
      <point x="188" y="274" type="curve" smooth="yes"/>
      <point x="188" y="397"/>
      <point x="299" y="510"/>
      <point x="419" y="510" type="curve" smooth="yes"/>
      <point x="524" y="510"/>
      <point x="596" y="425"/>
      <point x="596" y="326" type="curve" smooth="yes"/>
      <point x="596" y="203"/>
      <point x="485" y="90"/>
    </contour>
  </outline>
</glyph>
<glyph name="q" format="2">
  <advance width="760"/>
  <unicode hex="0071"/>
  <outline>
    <contour>
      <point x="406" y="-300" type="line"/>
      <point x="514" y="-300" type="line"/>
      <point x="739" y="600" type="line"/>
      <point x="639" y="600" type="line"/>
      <point x="614" y="500" type="line"/>
      <point x="565" y="567"/>
      <point x="486" y="608"/>
      <point x="396" y="608" type="curve" smooth="yes"/>
      <point x="216" y="608"/>
      <point x="54" y="445"/>
      <point x="54" y="263" type="curve" smooth="yes"/>
      <point x="54" y="108"/>
      <point x="173" y="-8"/>
      <point x="311" y="-8" type="curve" smooth="yes"/>
      <point x="383" y="-8"/>
      <point x="449" y="23"/>
      <point x="500" y="70" type="curve"/>
    </contour>
    <contour>
      <point x="341" y="90" type="curve" smooth="yes"/>
      <point x="236" y="90"/>
      <point x="164" y="175"/>
      <point x="164" y="274" type="curve" smooth="yes"/>
      <point x="164" y="397"/>
      <point x="275" y="510"/>
      <point x="395" y="510" type="curve" smooth="yes"/>
      <point x="500" y="510"/>
      <point x="572" y="425"/>
      <point x="572" y="326" type="curve" smooth="yes"/>
      <point x="572" y="203"/>
      <point x="461" y="90"/>
    </contour>
  </outline>
</glyph>
<glyph name="r" format="2">
  <advance width="450"/>
  <unicode hex="0072"/>
  <anchor x="75" y="0" name="bottom"/>
  <anchor x="312" y="600" name="top"/>
  <outline>
    <contour>
      <point x="21" y="0" type="line"/>
      <point x="129" y="0" type="line"/>
      <point x="201" y="280" type="line" smooth="yes"/>
      <point x="240" y="430"/>
      <point x="329" y="504"/>
      <point x="439" y="504" type="curve" smooth="yes"/>
      <point x="453" y="504"/>
      <point x="470" y="502"/>
      <point x="482" y="498" type="curve"/>
      <point x="482" y="606" type="line"/>
      <point x="386" y="606"/>
      <point x="304" y="566"/>
      <point x="244" y="490" type="curve"/>
      <point x="271" y="600" type="line"/>
      <point x="171" y="600" type="line"/>
    </contour>
  </outline>
</glyph>
<glyph name="t" format="2">
  <advance width="450"/>
  <unicode hex="0074"/>
  <anchor x="145" y="0" name="bottom"/>
  <anchor x="218" y="300" name="center"/>
  <anchor x="343" y="800" name="top"/>
  <anchor x="469" y="960" name="topright"/>
  <outline>
    <contour>
      <point x="91" y="0" type="line"/>
      <point x="199" y="0" type="line"/>
      <point x="326" y="510" type="line"/>
      <point x="472" y="510" type="line"/>
      <point x="495" y="600" type="line"/>
      <point x="345" y="600" type="line"/>
      <point x="394" y="800" type="line"/>
      <point x="292" y="800" type="line"/>
      <point x="243" y="600" type="line"/>
      <point x="105" y="600" type="line"/>
      <point x="82" y="510" type="line"/>
      <point x="218" y="510" type="line"/>
    </contour>
  </outline>
</glyph>
<glyph name="u" format="2">
  <advance width="720"/>
  <unicode hex="0075"/>
  <anchor x="285" y="0" name="bottom"/>
  <anchor x="499" y="0" name="ogonek"/>
  <anchor x="432" y="600" name="top"/>
  <anchor x="642" y="600" name="topright"/>
  <outline>
    <contour>
      <point x="264" y="-12" type="curve" smooth="yes"/>
      <point x="337" y="-12"/>
      <point x="413" y="20"/>
      <point x="470" y="85" type="curve"/>
      <point x="449" y="0" type="line"/>
      <point x="549" y="0" type="line"/>
      <point x="699" y="600" type="line"/>
      <point x="591" y="600" type="line"/>
      <point x="503" y="255" type="line" smooth="yes"/>
      <point x="474" y="140"/>
      <point x="385" y="78"/>
      <point x="301" y="78" type="curve" smooth="yes"/>
      <point x="194" y="78"/>
      <point x="160" y="168"/>
      <point x="186" y="274" type="curve" smooth="yes"/>
      <point x="267" y="600" type="line"/>
      <point x="159" y="600" type="line"/>
      <point x="77" y="272" type="line" smooth="yes"/>
      <point x="39" y="120"/>
      <point x="102" y="-12"/>
    </contour>
  </outline>
</glyph>
<glyph name="v" format="2">
  <advance width="630"/>
  <unicode hex="0076"/>
  <outline>
    <contour>
      <point x="233" y="-30" type="line"/>
      <point x="235" y="-30" type="line"/>
      <point x="693" y="600" type="line"/>
      <point x="570" y="600" type="line"/>
      <point x="383" y="340" type="line" smooth="yes"/>
      <point x="349" y="293"/>
      <point x="318" y="253"/>
      <point x="283" y="187" type="curve"/>
      <point x="280" y="253"/>
      <point x="270" y="293"/>
      <point x="260" y="340" type="curve" smooth="yes"/>
      <point x="202" y="600" type="line"/>
      <point x="87" y="600" type="line"/>
    </contour>
  </outline>
</glyph>
<glyph name="w" format="2">
  <advance width="1000"/>
  <unicode hex="0077"/>
  <anchor x="427" y="0" name="bottom"/>
  <anchor x="579" y="600" name="top"/>
  <outline>
    <contour>
      <point x="234" y="-30" type="line"/>
      <point x="236" y="-30" type="line"/>
      <point x="422" y="238" type="line" smooth="yes"/>
      <point x="456" y="286"/>
      <point x="488" y="328"/>
      <point x="525" y="395" type="curve"/>
      <point x="529" y="328"/>
      <point x="539" y="286"/>
      <point x="549" y="238" type="curve" smooth="yes"/>
      <point x="604" y="-30" type="line"/>
      <point x="606" y="-30" type="line"/>
      <point x="1063" y="600" type="line"/>
      <point x="940" y="600" type="line"/>
      <point x="753" y="340" type="line" smooth="yes"/>
      <point x="718" y="292"/>
      <point x="687" y="250"/>
      <point x="650" y="180" type="curve"/>
      <point x="647" y="250"/>
      <point x="635" y="291"/>
      <point x="627" y="340" type="curve" smooth="yes"/>
      <point x="579" y="628" type="line"/>
      <point x="577" y="628" type="line"/>
      <point x="386" y="340" type="line" smooth="yes"/>
      <point x="354" y="292"/>
      <point x="321" y="249"/>
      <point x="283" y="180" type="curve"/>
      <point x="280" y="250"/>
      <point x="270" y="291"/>
      <point x="259" y="340" type="curve" smooth="yes"/>
      <point x="202" y="600" type="line"/>
      <point x="87" y="600" type="line"/>
    </contour>
  </outline>
</glyph>
<glyph name="x" format="2">
  <advance width="600"/>
  <unicode hex="0078"/>
  <outline>
    <contour>
      <point x="-30" y="0" type="line"/>
      <point x="104" y="0" type="line"/>
      <point x="213" y="128" type="line" smooth="yes"/>
      <point x="243" y="163"/>
      <point x="274" y="199"/>
      <point x="305" y="246" type="curve"/>
      <point x="323" y="198"/>
      <point x="339" y="161"/>
      <point x="356" y="125" type="curve" smooth="yes"/>
      <point x="413" y="0" type="line"/>
      <point x="523" y="0" type="line"/>
      <point x="376" y="307" type="line"/>
      <point x="630" y="600" type="line"/>
      <point x="496" y="600" type="line"/>
      <point x="416" y="505" type="line" smooth="yes"/>
      <point x="386" y="470"/>
      <point x="356" y="434"/>
      <point x="325" y="387" type="curve"/>
      <point x="308" y="435"/>
      <point x="292" y="470"/>
      <point x="275" y="506" type="curve" smooth="yes"/>
      <point x="232" y="600" type="line"/>
      <point x="124" y="600" type="line"/>
      <point x="254" y="326" type="line"/>
    </contour>
  </outline>
</glyph>
<glyph name="z" format="2">
  <advance width="530"/>
  <unicode hex="007A"/>
  <anchor x="182" y="0" name="bottom"/>
  <anchor x="264" y="300" name="center"/>
  <anchor x="350" y="600" name="top"/>
  <outline>
    <contour>
      <point x="-35" y="0" type="line"/>
      <point x="399" y="0" type="line"/>
      <point x="423" y="96" type="line"/>
      <point x="161" y="96" type="line"/>
      <point x="566" y="598" type="line"/>
      <point x="566" y="600" type="line"/>
      <point x="134" y="600" type="line"/>
      <point x="110" y="504" type="line"/>
      <point x="370" y="504" type="line"/>
      <point x="-35" y="2" type="line"/>
    </contour>
  </outline>
</glyph>
<glyph name="braceleft" format="2">
  <advance width="480"/>
  <unicode hex="007B"/>
  <outline>
    <contour>
      <point x="299" y="-186" type="curve"/>
      <point x="319" y="-102" type="line"/>
      <point x="237" y="-89"/>
      <point x="164" y="-41"/>
      <point x="201" y="110" type="curve" smooth="yes"/>
      <point x="215" y="164"/>
      <point x="238" y="210"/>
      <point x="250" y="256" type="curve" smooth="yes"/>
      <point x="270" y="335"/>
      <point x="247" y="387"/>
      <point x="199" y="415" type="curve"/>
      <point x="258" y="431"/>
      <point x="304" y="474"/>
      <point x="324" y="554" type="curve" smooth="yes"/>
      <point x="335" y="601"/>
      <point x="335" y="647"/>
      <point x="348" y="702" type="curve" smooth="yes"/>
      <point x="385" y="854"/>
      <point x="480" y="870"/>
      <point x="563" y="870" type="curve"/>
      <point x="586" y="966" type="line"/>
      <point x="409" y="966"/>
      <point x="291" y="893"/>
      <point x="250" y="723" type="curve" smooth="yes"/>
      <point x="236" y="665"/>
      <point x="236" y="618"/>
      <point x="224" y="569" type="curve" smooth="yes"/>
      <point x="203" y="485"/>
      <point x="158" y="457"/>
      <point x="75" y="431" type="curve"/>
      <point x="140" y="386"/>
      <point x="169" y="349"/>
      <point x="149" y="266" type="curve" smooth="yes"/>
      <point x="137" y="218"/>
      <point x="113" y="170"/>
      <point x="99" y="114" type="curve" smooth="yes"/>
      <point x="54" y="-65"/>
      <point x="140" y="-170"/>
    </contour>
  </outline>
</glyph>
<glyph name="bar" format="2">
  <advance width="480"/>
  <unicode hex="007C"/>
  <outline>
    <contour>
      <point x="214" y="-180" type="line"/>
      <point x="310" y="-180" type="line"/>
      <point x="310" y="960" type="line"/>
      <point x="214" y="960" type="line"/>
    </contour>
  </outline>
</glyph>
<glyph name="sterling" format="2">
  <advance width="750"/>
  <unicode hex="00A3"/>
  <outline>
    <contour>
      <point x="78" y="0" type="line"/>
      <point x="587" y="0" type="line"/>
      <point x="610" y="96" type="line"/>
      <point x="269" y="96" type="line"/>
      <point x="306" y="126"/>
      <point x="334" y="168"/>
      <point x="350" y="234" type="curve" smooth="yes"/>
      <point x="362" y="283"/>
      <point x="369" y="345"/>
      <point x="375" y="408" type="curve"/>
      <point x="627" y="408" type="line"/>
      <point x="648" y="492" type="line"/>
      <point x="382" y="492" type="line"/>
      <point x="387" y="543"/>
      <point x="393" y="592"/>
      <point x="403" y="632" type="curve" smooth="yes"/>
      <point x="433" y="755"/>
      <point x="504" y="810"/>
      <point x="581" y="810" type="curve" smooth="yes"/>
      <point x="664" y="810"/>
      <point x="706" y="752"/>
      <point x="722" y="674" type="curve"/>
      <point x="789" y="806" type="line"/>
      <point x="742" y="880"/>
      <point x="668" y="912"/>
      <point x="591" y="912" type="curve" smooth="yes"/>
      <point x="466" y="912"/>
      <point x="343" y="827"/>
      <point x="299" y="654" type="curve" smooth="yes"/>
      <point x="287" y="604"/>
      <point x="281" y="549"/>
      <point x="277" y="492" type="curve"/>
      <point x="138" y="492" type="line"/>
      <point x="117" y="408" type="line"/>
      <point x="271" y="408" type="line"/>
      <point x="267" y="353"/>
      <point x="261" y="299"/>
      <point x="249" y="246" type="curve" smooth="yes"/>
      <point x="228" y="155"/>
      <point x="198" y="104"/>
      <point x="78" y="2" type="curve"/>
    </contour>
  </outline>
</glyph>
<glyph name="yen" format="2">
  <advance width="750"/>
  <unicode hex="00A5"/>
  <outline>
    <contour>
      <point x="246" y="0" type="line"/>
      <point x="360" y="0" type="line"/>
      <point x="438" y="318" type="line"/>
      <point x="667" y="318" type="line"/>
      <point x="687" y="402" type="line"/>
      <point x="459" y="402" type="line"/>
      <point x="467" y="435" type="line"/>
      <point x="519" y="498" type="line"/>
      <point x="711" y="498" type="line"/>
      <point x="731" y="582" type="line"/>
      <point x="589" y="582" type="line"/>
      <point x="852" y="900" type="line"/>
      <point x="722" y="900" type="line"/>
      <point x="508" y="638" type="line" smooth="yes"/>
      <point x="480" y="604"/>
      <point x="457" y="574"/>
      <point x="429" y="532" type="curve"/>
      <point x="423" y="574"/>
      <point x="414" y="605"/>
      <point x="403" y="638" type="curve" smooth="yes"/>
      <point x="320" y="900" type="line"/>
      <point x="198" y="900" type="line"/>
      <point x="304" y="582" type="line"/>
      <point x="161" y="582" type="line"/>
      <point x="141" y="498" type="line"/>
      <point x="332" y="498" type="line"/>
      <point x="353" y="435" type="line"/>
      <point x="345" y="402" type="line"/>
      <point x="117" y="402" type="line"/>
      <point x="97" y="318" type="line"/>
      <point x="324" y="318" type="line"/>
    </contour>
  </outline>
</glyph>
<glyph name="copyright" format="2">
  <advance width="1260"/>
  <unicode hex="00A9"/>
  <outline>
    <contour>
      <point x="602" y="-102" type="curve" smooth="yes"/>
      <point x="929" y="-102"/>
      <point x="1225" y="192"/>
      <point x="1225" y="515" type="curve" smooth="yes"/>
      <point x="1225" y="790"/>
      <point x="1011" y="1002"/>
      <point x="732" y="1002" type="curve" smooth="yes"/>
      <point x="405" y="1002"/>
      <point x="109" y="708"/>
      <point x="109" y="385" type="curve" smooth="yes"/>
      <point x="109" y="110"/>
      <point x="323" y="-102"/>
    </contour>
    <contour>
      <point x="609" y="-12" type="curve" smooth="yes"/>
      <point x="380" y="-12"/>
      <point x="205" y="161"/>
      <point x="205" y="390" type="curve" smooth="yes"/>
      <point x="205" y="663"/>
      <point x="452" y="912"/>
      <point x="725" y="912" type="curve" smooth="yes"/>
      <point x="954" y="912"/>
      <point x="1129" y="739"/>
      <point x="1129" y="510" type="curve" smooth="yes"/>
      <point x="1129" y="237"/>
      <point x="882" y="-12"/>
    </contour>
    <contour>
      <point x="658" y="168" type="curve" smooth="yes"/>
      <point x="731" y="168"/>
      <point x="796" y="192"/>
      <point x="849" y="232" type="curve"/>
      <point x="849" y="363" type="line"/>
      <point x="811" y="303"/>
      <point x="743" y="260"/>
      <point x="668" y="260" type="curve" smooth="yes"/>
      <point x="566" y="260"/>
      <point x="499" y="335"/>
      <point x="499" y="427" type="curve" smooth="yes"/>
      <point x="499" y="539"/>
      <point x="600" y="640"/>
      <point x="715" y="640" type="curve" smooth="yes"/>
      <point x="790" y="640"/>
      <point x="844" y="600"/>
      <point x="868" y="544" type="curve"/>
      <point x="920" y="650" type="line"/>
      <point x="874" y="700"/>
      <point x="806" y="732"/>
      <point x="730" y="732" type="curve" smooth="yes"/>
      <point x="556" y="732"/>
      <point x="400" y="583"/>
      <point x="400" y="417" type="curve" smooth="yes"/>
      <point x="400" y="275"/>
      <point x="512" y="168"/>
    </contour>
  </outline>
</glyph>
<glyph name="plusminus" format="2">
  <advance width="750"/>
  <unicode hex="00B1"/>
  <outline>
    <contour>
      <point x="314" y="255" type="line"/>
      <point x="410" y="255" type="line"/>
      <point x="463" y="465" type="line"/>
      <point x="699" y="465" type="line"/>
      <point x="721" y="555" type="line"/>
      <point x="486" y="555" type="line"/>
      <point x="547" y="795" type="line"/>
      <point x="451" y="795" type="line"/>
      <point x="390" y="555" type="line"/>
      <point x="151" y="555" type="line"/>
      <point x="129" y="465" type="line"/>
      <point x="367" y="465" type="line"/>
    </contour>
    <contour>
      <point x="34" y="77" type="line"/>
      <point x="604" y="77" type="line"/>
      <point x="625" y="163" type="line"/>
      <point x="55" y="163" type="line"/>
    </contour>
  </outline>
</glyph>
<glyph name="micro" format="2">
  <advance width="750"/>
  <unicode hex="00B5"/>
  <unicode hex="03BC"/>
  <outline>
    <contour>
      <point x="-65" y="-300" type="line"/>
      <point x="43" y="-300" type="line"/>
      <point x="137" y="78" type="line"/>
      <point x="163" y="20"/>
      <point x="216" y="-12"/>
      <point x="283" y="-12" type="curve" smooth="yes"/>
      <point x="352" y="-12"/>
      <point x="426" y="22"/>
      <point x="482" y="88" type="curve"/>
      <point x="494" y="23"/>
      <point x="543" y="-12"/>
      <point x="614" y="-12" type="curve"/>
      <point x="659" y="81" type="line"/>
      <point x="608" y="81"/>
      <point x="578" y="105"/>
      <point x="596" y="178" type="curve" smooth="yes"/>
      <point x="700" y="600" type="line"/>
      <point x="592" y="600" type="line"/>
      <point x="510" y="267" type="line" smooth="yes"/>
      <point x="482" y="152"/>
      <point x="388" y="90"/>
      <point x="304" y="90" type="curve" smooth="yes"/>
      <point x="201" y="90"/>
      <point x="164" y="175"/>
      <point x="187" y="270" type="curve" smooth="yes"/>
      <point x="268" y="600" type="line"/>
      <point x="160" y="600" type="line"/>
    </contour>
  </outline>
</glyph>
<glyph name="paragraph" format="2">
  <advance width="750"/>
  <unicode hex="00B6"/>
  <outline>
    <contour>
      <point x="205" y="-180" type="line"/>
      <point x="301" y="-180" type="line"/>
      <point x="563" y="864" type="line"/>
      <point x="683" y="864" type="line"/>
      <point x="421" y="-180" type="line"/>
      <point x="517" y="-180" type="line"/>
      <point x="802" y="960" type="line"/>
      <point x="483" y="960" type="line" smooth="yes"/>
      <point x="260" y="960"/>
      <point x="141" y="784"/>
      <point x="141" y="636" type="curve" smooth="yes"/>
      <point x="141" y="534"/>
      <point x="195" y="424"/>
      <point x="348" y="389" type="curve"/>
    </contour>
  </outline>
</glyph>
<glyph name="questiondown" format="2">
  <advance width="480"/>
  <unicode hex="00BF"/>
  <outline>
    <contour>
      <point x="135" y="-312" type="curve" smooth="yes"/>
      <point x="175" y="-312"/>
      <point x="212" y="-303"/>
      <point x="243" y="-287" type="curve"/>
      <point x="275" y="-159" type="line"/>
      <point x="238" y="-193"/>
      <point x="192" y="-212"/>
      <point x="149" y="-212" type="curve" smooth="yes"/>
      <point x="95" y="-212"/>
      <point x="41" y="-180"/>
      <point x="41" y="-107" type="curve" smooth="yes"/>
      <point x="41" y="34"/>
      <point x="242" y="77"/>
      <point x="288" y="300" type="curve"/>
      <point x="191" y="300" type="line"/>
      <point x="134" y="115"/>
      <point x="-71" y="48"/>
      <point x="-71" y="-126" type="curve" smooth="yes"/>
      <point x="-71" y="-245"/>
      <point x="24" y="-312"/>
    </contour>
    <contour>
      <point x="290" y="462" type="curve" smooth="yes"/>
      <point x="335" y="462"/>
      <point x="374" y="501"/>
      <point x="374" y="546" type="curve" smooth="yes"/>
      <point x="374" y="583"/>
      <point x="344" y="612"/>
      <point x="308" y="612" type="curve" smooth="yes"/>
      <point x="263" y="612"/>
      <point x="224" y="573"/>
      <point x="224" y="528" type="curve" smooth="yes"/>
      <point x="224" y="490"/>
      <point x="254" y="462"/>
    </contour>
  </outline>
</glyph>
<glyph name="Aring" format="2">
  <advance width="800"/>
  <unicode hex="00C5"/>
  <outline>
    <contour>
      <point x="-57" y="0" type="line"/>
      <point x="68" y="0" type="line"/>
      <point x="240" y="267" type="line"/>
      <point x="555" y="267" type="line"/>
      <point x="596" y="0" type="line"/>
      <point x="707" y="0" type="line"/>
      <point x="571" y="835" type="line"/>
      <point x="655" y="846"/>
      <point x="727" y="923"/>
      <point x="727" y="1008" type="curve" smooth="yes"/>
      <point x="727" y="1087"/>
      <point x="664" y="1146"/>
      <point x="586" y="1146" type="curve" smooth="yes"/>
      <point x="493" y="1146"/>
      <point x="409" y="1064"/>
      <point x="409" y="972" type="curve" smooth="yes"/>
      <point x="409" y="913"/>
      <point x="445" y="864"/>
      <point x="496" y="844" type="curve"/>
    </contour>
    <contour>
      <point x="301" y="362" type="line"/>
      <point x="416" y="540" type="line" smooth="yes"/>
      <point x="446" y="586"/>
      <point x="469" y="624"/>
      <point x="500" y="686" type="curve"/>
      <point x="501" y="624"/>
      <point x="507" y="585"/>
      <point x="513" y="540" type="curve" smooth="yes"/>
      <point x="540" y="362" type="line"/>
    </contour>
    <contour>
      <point x="557" y="906" type="curve" smooth="yes"/>
      <point x="515" y="906"/>
      <point x="484" y="939"/>
      <point x="484" y="979" type="curve" smooth="yes"/>
      <point x="484" y="1030"/>
      <point x="530" y="1074"/>
      <point x="579" y="1074" type="curve" smooth="yes"/>
      <point x="621" y="1074"/>
      <point x="652" y="1041"/>
      <point x="652" y="1001" type="curve" smooth="yes"/>
      <point x="652" y="950"/>
      <point x="606" y="906"/>
    </contour>
  </outline>
</glyph>
<glyph name="AE" format="2">
  <advance width="1020"/>
  <unicode hex="00C6"/>
  <anchor x="315" y="0" name="bottom"/>
  <anchor x="734" y="900" name="top"/>
  <outline>
    <contour>
      <point x="-57" y="0" type="line"/>
      <point x="68" y="0" type="line"/>
      <point x="241" y="267" type="line"/>
      <point x="546" y="267" type="line"/>
      <point x="562" y="0" type="line"/>
      <point x="916" y="0" type="line"/>
      <point x="916" y="102" type="line"/>
      <point x="660" y="102" type="line"/>
      <point x="636" y="504" type="line"/>
      <point x="856" y="504" type="line"/>
      <point x="856" y="606" type="line"/>
      <point x="630" y="606" type="line"/>
      <point x="619" y="798" type="line"/>
      <point x="892" y="798" type="line"/>
      <point x="892" y="900" type="line"/>
      <point x="535" y="900" type="line"/>
    </contour>
    <contour>
      <point x="302" y="362" type="line"/>
      <point x="417" y="540" type="line" smooth="yes"/>
      <point x="452" y="594"/>
      <point x="487" y="647"/>
      <point x="524" y="713" type="curve"/>
      <point x="524" y="647"/>
      <point x="527" y="594"/>
      <point x="530" y="540" type="curve" smooth="yes"/>
      <point x="541" y="362" type="line"/>
    </contour>
  </outline>
</glyph>
<glyph name="Ccedilla" format="2">
  <advance width="900"/>
  <unicode hex="00C7"/>
  <outline>
    <contour>
      <point x="286" y="-180" type="line"/>
      <point x="429" y="-180" type="line"/>
      <point x="560" y="-15" type="line"/>
      <point x="657" y="-5"/>
      <point x="749" y="36"/>
      <point x="827" y="96" type="curve"/>
      <point x="827" y="246" type="line"/>
      <point x="752" y="152"/>
      <point x="641" y="90"/>
      <point x="523" y="90" type="curve" smooth="yes"/>
      <point x="349" y="90"/>
      <point x="216" y="225"/>
      <point x="216" y="403" type="curve" smooth="yes"/>
      <point x="216" y="616"/>
      <point x="404" y="810"/>
      <point x="611" y="810" type="curve" smooth="yes"/>
      <point x="723" y="810"/>
      <point x="818" y="754"/>
      <point x="871" y="667" type="curve"/>
      <point x="929" y="786" type="line"/>
      <point x="854" y="868"/>
      <point x="746" y="918"/>
      <point x="622" y="918" type="curve" smooth="yes"/>
      <point x="347" y="918"/>
      <point x="98" y="669"/>
      <point x="98" y="395" type="curve" smooth="yes"/>
      <point x="98" y="183"/>
      <point x="247" y="15"/>
      <point x="450" y="-14" type="curve"/>
    </contour>
  </outline>
</glyph>
<glyph name="Eth" format="2">
  <advance width="990"/>
  <unicode hex="00D0"/>
  <outline>
    <contour>
      <point x="81" y="0" type="line"/>
      <point x="442" y="0" type="line" smooth="yes"/>
      <point x="717" y="0"/>
      <point x="966" y="231"/>
      <point x="966" y="505" type="curve" smooth="yes"/>
      <point x="966" y="738"/>
      <point x="786" y="900"/>
      <point x="552" y="900" type="curve" smooth="yes"/>
      <point x="306" y="900" type="line"/>
      <point x="212" y="522" type="line"/>
      <point x="113" y="522" type="line"/>
      <point x="93" y="438" type="line"/>
      <point x="191" y="438" type="line"/>
    </contour>
    <contour>
      <point x="220" y="102" type="line"/>
      <point x="304" y="438" type="line"/>
      <point x="573" y="438" type="line"/>
      <point x="593" y="522" type="line"/>
      <point x="326" y="522" type="line"/>
      <point x="395" y="798" type="line"/>
      <point x="529" y="798" type="line" smooth="yes"/>
      <point x="715" y="798"/>
      <point x="848" y="675"/>
      <point x="848" y="497" type="curve" smooth="yes"/>
      <point x="848" y="284"/>
      <point x="660" y="102"/>
      <point x="441" y="102" type="curve" smooth="yes"/>
    </contour>
  </outline>
</glyph>
<glyph name="multiply" format="2">
  <advance width="750"/>
  <unicode hex="00D7"/>
  <outline>
    <contour>
      <point x="144" y="180" type="line"/>
      <point x="402" y="383" type="line"/>
      <point x="554" y="180" type="line"/>
      <point x="628" y="240" type="line"/>
      <point x="477" y="442" type="line"/>
      <point x="737" y="646" type="line"/>
      <point x="680" y="720" type="line"/>
      <point x="422" y="517" type="line"/>
      <point x="270" y="720" type="line"/>
      <point x="196" y="660" type="line"/>
      <point x="347" y="458" type="line"/>
      <point x="87" y="254" type="line"/>
    </contour>
  </outline>
</glyph>
<glyph name="Oslash" format="2">
  <advance width="1060"/>
  <unicode hex="00D8"/>
  <anchor x="455" y="0" name="bottom"/>
  <anchor x="680" y="900" name="top"/>
  <outline>
    <contour>
      <point x="512" y="-18" type="curve" smooth="yes"/>
      <point x="787" y="-18"/>
      <point x="1036" y="231"/>
      <point x="1036" y="505" type="curve" smooth="yes"/>
      <point x="1036" y="620"/>
      <point x="992" y="722"/>
      <point x="920" y="796" type="curve"/>
      <point x="967" y="852" type="line"/>
      <point x="896" y="911" type="line"/>
      <point x="848" y="854" type="line"/>
      <point x="784" y="895"/>
      <point x="706" y="918"/>
      <point x="622" y="918" type="curve" smooth="yes"/>
      <point x="347" y="918"/>
      <point x="98" y="669"/>
      <point x="98" y="395" type="curve" smooth="yes"/>
      <point x="98" y="277"/>
      <point x="144" y="172"/>
      <point x="220" y="98" type="curve"/>
      <point x="167" y="34" type="line"/>
      <point x="238" y="-25" type="line"/>
      <point x="293" y="42" type="line"/>
      <point x="356" y="4"/>
      <point x="431" y="-18"/>
    </contour>
    <contour>
      <point x="296" y="189" type="line"/>
      <point x="246" y="244"/>
      <point x="216" y="319"/>
      <point x="216" y="403" type="curve" smooth="yes"/>
      <point x="216" y="616"/>
      <point x="404" y="810"/>
      <point x="611" y="810" type="curve" smooth="yes"/>
      <point x="672" y="810"/>
      <point x="727" y="794"/>
      <point x="774" y="765" type="curve"/>
    </contour>
    <contour>
      <point x="523" y="90" type="curve" smooth="yes"/>
      <point x="466" y="90"/>
      <point x="413" y="105"/>
      <point x="367" y="131" type="curve"/>
      <point x="844" y="704" type="line"/>
      <point x="891" y="650"/>
      <point x="918" y="578"/>
      <point x="918" y="497" type="curve" smooth="yes"/>
      <point x="918" y="284"/>
      <point x="730" y="90"/>
    </contour>
  </outline>
</glyph>
<glyph name="Thorn" format="2">
  <advance width="720"/>
  <unicode hex="00DE"/>
  <outline>
    <contour>
      <point x="51" y="0" type="line"/>
      <point x="165" y="0" type="line"/>
      <point x="214" y="196" type="line"/>
      <point x="370" y="196" type="line" smooth="yes"/>
      <point x="558" y="196"/>
      <point x="720" y="346"/>
      <point x="720" y="524" type="curve" smooth="yes"/>
      <point x="720" y="675"/>
      <point x="603" y="780"/>
      <point x="441" y="780" type="curve" smooth="yes"/>
      <point x="360" y="780" type="line"/>
      <point x="390" y="900" type="line"/>
      <point x="276" y="900" type="line"/>
    </contour>
    <contour>
      <point x="240" y="298" type="line"/>
      <point x="335" y="678" type="line"/>
      <point x="420" y="678" type="line" smooth="yes"/>
      <point x="533" y="678"/>
      <point x="606" y="611"/>
      <point x="606" y="514" type="curve" smooth="yes"/>
      <point x="606" y="397"/>
      <point x="503" y="298"/>
      <point x="372" y="298" type="curve" smooth="yes"/>
    </contour>
  </outline>
</glyph>
<glyph name="germandbls" format="2">
  <advance width="730"/>
  <unicode hex="00DF"/>
  <outline>
    <contour>
      <point x="284" y="-12" type="line"/>
      <point x="487" y="-10"/>
      <point x="669" y="165"/>
      <point x="669" y="359" type="curve" smooth="yes"/>
      <point x="669" y="450"/>
      <point x="628" y="530"/>
      <point x="556" y="582" type="curve"/>
      <point x="633" y="630"/>
      <point x="676" y="701"/>
      <point x="676" y="778" type="curve" smooth="yes"/>
      <point x="676" y="890"/>
      <point x="589" y="972"/>
      <point x="468" y="972" type="curve" smooth="yes"/>
      <point x="343" y="972"/>
      <point x="241" y="885"/>
      <point x="207" y="747" type="curve" smooth="yes"/>
      <point x="21" y="0" type="line"/>
      <point x="129" y="0" type="line"/>
      <point x="312" y="734" type="line" smooth="yes"/>
      <point x="333" y="817"/>
      <point x="391" y="876"/>
      <point x="459" y="876" type="curve" smooth="yes"/>
      <point x="523" y="876"/>
      <point x="568" y="834"/>
      <point x="568" y="768" type="curve" smooth="yes"/>
      <point x="568" y="689"/>
      <point x="500" y="620"/>
      <point x="378" y="580" type="curve"/>
      <point x="378" y="578" type="line"/>
      <point x="499" y="513"/>
      <point x="555" y="441"/>
      <point x="555" y="347" type="curve" smooth="yes"/>
      <point x="555" y="205"/>
      <point x="428" y="84"/>
      <point x="284" y="84" type="curve"/>
    </contour>
  </outline>
</glyph>
<glyph name="ae" format="2">
  <advance width="1140"/>
  <unicode hex="00E6"/>
  <anchor x="495" y="0" name="bottom"/>
  <anchor x="591" y="600" name="top"/>
  <outline>
    <contour>
      <point x="252" y="-8" type="curve" smooth="yes"/>
      <point x="361" y="-8"/>
      <point x="464" y="42"/>
      <point x="525" y="126" type="curve"/>
      <point x="575" y="38"/>
      <point x="664" y="-12"/>
      <point x="771" y="-12" type="curve" smooth="yes"/>
      <point x="846" y="-12"/>
      <point x="919" y="13"/>
      <point x="981" y="59" type="curve"/>
      <point x="981" y="204" type="line"/>
      <point x="937" y="134"/>
      <point x="860" y="90"/>
      <point x="780" y="90" type="curve" smooth="yes"/>
      <point x="673" y="90"/>
      <point x="595" y="168"/>
      <point x="594" y="277" type="curve"/>
      <point x="634" y="272"/>
      <point x="665" y="270"/>
      <point x="693" y="270" type="curve" smooth="yes"/>
      <point x="1085" y="270" type="line"/>
      <point x="1096" y="314" type="line" smooth="yes"/>
      <point x="1136" y="477"/>
      <point x="1024" y="612"/>
      <point x="849" y="612" type="curve" smooth="yes"/>
      <point x="755" y="612"/>
      <point x="661" y="573"/>
      <point x="591" y="505" type="curve"/>
      <point x="547" y="570"/>
      <point x="461" y="608"/>
      <point x="357" y="608" type="curve" smooth="yes"/>
      <point x="292" y="608"/>
      <point x="224" y="593"/>
      <point x="160" y="565" type="curve"/>
      <point x="160" y="451" type="line"/>
      <point x="219" y="492"/>
      <point x="279" y="512"/>
      <point x="344" y="512" type="curve" smooth="yes"/>
      <point x="437" y="512"/>
      <point x="503" y="471"/>
      <point x="517" y="404" type="curve"/>
      <point x="507" y="382"/>
      <point x="500" y="358"/>
      <point x="496" y="333" type="curve"/>
      <point x="437" y="362"/>
      <point x="360" y="378"/>
      <point x="280" y="378" type="curve" smooth="yes"/>
      <point x="134" y="378"/>
      <point x="29" y="292"/>
      <point x="29" y="173" type="curve" smooth="yes"/>
      <point x="29" y="65"/>
      <point x="119" y="-8"/>
    </contour>
    <contour>
      <point x="273" y="80" type="curve" smooth="yes"/>
      <point x="194" y="80"/>
      <point x="138" y="122"/>
      <point x="138" y="182" type="curve" smooth="yes"/>
      <point x="138" y="247"/>
      <point x="196" y="288"/>
      <point x="286" y="288" type="curve" smooth="yes"/>
      <point x="355" y="288"/>
      <point x="426" y="273"/>
      <point x="485" y="246" type="curve"/>
      <point x="488" y="221" type="line"/>
      <point x="459" y="140"/>
      <point x="368" y="80"/>
    </contour>
    <contour>
      <point x="600" y="351" type="curve"/>
      <point x="634" y="448"/>
      <point x="728" y="516"/>
      <point x="830" y="516" type="curve" smooth="yes"/>
      <point x="932" y="516"/>
      <point x="1003" y="449"/>
      <point x="999" y="355" type="curve"/>
      <point x="967" y="358"/>
      <point x="940" y="360"/>
      <point x="914" y="360" type="curve" smooth="yes"/>
      <point x="715" y="360" type="line" smooth="yes"/>
      <point x="678" y="360"/>
      <point x="639" y="357"/>
    </contour>
  </outline>
</glyph>
<glyph name="ccedilla" format="2">
  <advance width="630"/>
  <unicode hex="00E7"/>
  <outline>
    <contour>
      <point x="139" y="-180" type="line"/>
      <point x="282" y="-180" type="line"/>
      <point x="424" y="-2" type="line"/>
      <point x="471" y="10"/>
      <point x="513" y="31"/>
      <point x="551" y="59" type="curve"/>
      <point x="551" y="204" type="line"/>
      <point x="509" y="137"/>
      <point x="434" y="90"/>
      <point x="350" y="90" type="curve" smooth="yes"/>
      <point x="238" y="90"/>
      <point x="164" y="173"/>
      <point x="164" y="274" type="curve" smooth="yes"/>
      <point x="164" y="398"/>
      <point x="275" y="510"/>
      <point x="402" y="510" type="curve" smooth="yes"/>
      <point x="485" y="510"/>
      <point x="545" y="466"/>
      <point x="572" y="404" type="curve"/>
      <point x="629" y="521" type="line"/>
      <point x="578" y="577"/>
      <point x="503" y="612"/>
      <point x="419" y="612" type="curve" smooth="yes"/>
      <point x="227" y="612"/>
      <point x="54" y="447"/>
      <point x="54" y="263" type="curve" smooth="yes"/>
      <point x="54" y="117"/>
      <point x="162" y="4"/>
      <point x="307" y="-10" type="curve"/>
    </contour>
  </outline>
</glyph>
<glyph name="eth" format="2">
  <advance width="740"/>
  <unicode hex="00F0"/>
  <outline>
    <contour>
      <point x="334" y="-12" type="curve" smooth="yes"/>
      <point x="543" y="-12"/>
      <point x="692" y="176"/>
      <point x="692" y="370" type="curve" smooth="yes"/>
      <point x="692" y="428"/>
      <point x="680" y="490"/>
      <point x="653" y="562" type="curve" smooth="yes"/>
      <point x="633" y="614"/>
      <point x="593" y="705"/>
      <point x="547" y="800" type="curve"/>
      <point x="686" y="863" type="line"/>
      <point x="662" y="926" type="line"/>
      <point x="517" y="860" type="line"/>
      <point x="499" y="895"/>
      <point x="481" y="929"/>
      <point x="464" y="960" type="curve"/>
      <point x="351" y="960" type="line"/>
      <point x="377" y="913"/>
      <point x="403" y="866"/>
      <point x="427" y="819" type="curve"/>
      <point x="279" y="751" type="line"/>
      <point x="302" y="688" type="line"/>
      <point x="458" y="759" type="line"/>
      <point x="497" y="682"/>
      <point x="532" y="606"/>
      <point x="562" y="530" type="curve"/>
      <point x="521" y="585"/>
      <point x="454" y="606"/>
      <point x="392" y="606" type="curve" smooth="yes"/>
      <point x="217" y="606"/>
      <point x="55" y="446"/>
      <point x="55" y="266" type="curve" smooth="yes"/>
      <point x="55" y="106"/>
      <point x="179" y="-12"/>
    </contour>
    <contour>
      <point x="343" y="90" type="curve" smooth="yes"/>
      <point x="237" y="90"/>
      <point x="165" y="176"/>
      <point x="165" y="276" type="curve" smooth="yes"/>
      <point x="165" y="401"/>
      <point x="271" y="510"/>
      <point x="396" y="510" type="curve" smooth="yes"/>
      <point x="501" y="510"/>
      <point x="578" y="429"/>
      <point x="578" y="329" type="curve" smooth="yes"/>
      <point x="578" y="203"/>
      <point x="464" y="90"/>
    </contour>
  </outline>
</glyph>
<glyph name="divide" format="2">
  <advance width="750"/>
  <unicode hex="00F7"/>
  <outline>
    <contour>
      <point x="87" y="408" type="line"/>
      <point x="717" y="408" type="line"/>
      <point x="739" y="498" type="line"/>
      <point x="109" y="498" type="line"/>
    </contour>
    <contour>
      <point x="352" y="171" type="curve" smooth="yes"/>
      <point x="393" y="171"/>
      <point x="429" y="207"/>
      <point x="429" y="248" type="curve" smooth="yes"/>
      <point x="429" y="283"/>
      <point x="402" y="309"/>
      <point x="368" y="309" type="curve" smooth="yes"/>
      <point x="327" y="309"/>
      <point x="291" y="273"/>
      <point x="291" y="232" type="curve" smooth="yes"/>
      <point x="291" y="198"/>
      <point x="318" y="171"/>
    </contour>
    <contour>
      <point x="457" y="591" type="curve" smooth="yes"/>
      <point x="498" y="591"/>
      <point x="534" y="627"/>
      <point x="534" y="668" type="curve" smooth="yes"/>
      <point x="534" y="703"/>
      <point x="507" y="729"/>
      <point x="473" y="729" type="curve" smooth="yes"/>
      <point x="432" y="729"/>
      <point x="396" y="693"/>
      <point x="396" y="652" type="curve" smooth="yes"/>
      <point x="396" y="618"/>
      <point x="423" y="591"/>
    </contour>
  </outline>
</glyph>
<glyph name="oslash" format="2">
  <advance width="740"/>
  <unicode hex="00F8"/>
  <anchor x="445" y="600" name="top"/>
  <outline>
    <contour>
      <point x="333" y="-12" type="curve" smooth="yes"/>
      <point x="519" y="-12"/>
      <point x="686" y="153"/>
      <point x="686" y="337" type="curve" smooth="yes"/>
      <point x="686" y="390"/>
      <point x="672" y="439"/>
      <point x="647" y="481" type="curve"/>
      <point x="703" y="527" type="line"/>
      <point x="656" y="587" type="line"/>
      <point x="598" y="539" type="line"/>
      <point x="548" y="585"/>
      <point x="481" y="612"/>
      <point x="407" y="612" type="curve" smooth="yes"/>
      <point x="221" y="612"/>
      <point x="54" y="447"/>
      <point x="54" y="263" type="curve" smooth="yes"/>
      <point x="54" y="211"/>
      <point x="68" y="163"/>
      <point x="92" y="122" type="curve"/>
      <point x="32" y="73" type="line"/>
      <point x="79" y="13" type="line"/>
      <point x="139" y="63" type="line"/>
      <point x="189" y="16"/>
      <point x="258" y="-12"/>
    </contour>
    <contour>
      <point x="175" y="191" type="line"/>
      <point x="164" y="216"/>
      <point x="158" y="244"/>
      <point x="158" y="273" type="curve" smooth="yes"/>
      <point x="158" y="401"/>
      <point x="272" y="516"/>
      <point x="397" y="516" type="curve" smooth="yes"/>
      <point x="445" y="516"/>
      <point x="486" y="500"/>
      <point x="517" y="473" type="curve"/>
    </contour>
    <contour>
      <point x="343" y="84" type="curve" smooth="yes"/>
      <point x="294" y="84"/>
      <point x="252" y="101"/>
      <point x="220" y="129" type="curve"/>
      <point x="563" y="412" type="line"/>
      <point x="575" y="386"/>
      <point x="582" y="358"/>
      <point x="582" y="327" type="curve" smooth="yes"/>
      <point x="582" y="199"/>
      <point x="468" y="84"/>
    </contour>
  </outline>
</glyph>
<glyph name="thorn" format="2">
  <advance width="760"/>
  <unicode hex="00FE"/>
  <outline>
    <contour>
      <point x="-54" y="-300" type="line"/>
      <point x="54" y="-300" type="line"/>
      <point x="152" y="92" type="line"/>
      <point x="202" y="30"/>
      <point x="278" y="-8"/>
      <point x="364" y="-8" type="curve" smooth="yes"/>
      <point x="544" y="-8"/>
      <point x="706" y="155"/>
      <point x="706" y="337" type="curve" smooth="yes"/>
      <point x="706" y="492"/>
      <point x="587" y="608"/>
      <point x="449" y="608" type="curve" smooth="yes"/>
      <point x="377" y="608"/>
      <point x="311" y="577"/>
      <point x="260" y="530" type="curve"/>
      <point x="369" y="960" type="line"/>
      <point x="261" y="960" type="line"/>
    </contour>
    <contour>
      <point x="365" y="90" type="curve" smooth="yes"/>
      <point x="260" y="90"/>
      <point x="188" y="175"/>
      <point x="188" y="274" type="curve" smooth="yes"/>
      <point x="188" y="397"/>
      <point x="299" y="510"/>
      <point x="419" y="510" type="curve" smooth="yes"/>
      <point x="524" y="510"/>
      <point x="596" y="425"/>
      <point x="596" y="326" type="curve" smooth="yes"/>
      <point x="596" y="203"/>
      <point x="485" y="90"/>
    </contour>
  </outline>
</glyph>
<glyph name="Aogonek" format="2">
  <advance width="800"/>
  <unicode hex="0104"/>
  <outline>
    <contour>
      <point x="585" y="-312" type="curve"/>
      <point x="629" y="-219" type="line"/>
      <point x="583" y="-213"/>
      <point x="562" y="-192"/>
      <point x="562" y="-154" type="curve" smooth="yes"/>
      <point x="562" y="-95"/>
      <point x="612" y="-42"/>
      <point x="707" y="0" type="curve"/>
      <point x="554" y="930" type="line"/>
      <point x="552" y="930" type="line"/>
      <point x="-57" y="0" type="line"/>
      <point x="68" y="0" type="line"/>
      <point x="240" y="267" type="line"/>
      <point x="555" y="267" type="line"/>
      <point x="594" y="16" type="line"/>
      <point x="504" y="-36"/>
      <point x="458" y="-103"/>
      <point x="458" y="-178" type="curve" smooth="yes"/>
      <point x="458" y="-249"/>
      <point x="510" y="-303"/>
    </contour>
    <contour>
      <point x="301" y="362" type="line"/>
      <point x="416" y="540" type="line" smooth="yes"/>
      <point x="446" y="586"/>
      <point x="469" y="624"/>
      <point x="500" y="686" type="curve"/>
      <point x="501" y="624"/>
      <point x="507" y="585"/>
      <point x="513" y="540" type="curve" smooth="yes"/>
      <point x="540" y="362" type="line"/>
    </contour>
  </outline>
</glyph>
<glyph name="aogonek" format="2">
  <advance width="760"/>
  <unicode hex="0105"/>
  <outline>
    <contour>
      <point x="518" y="-312" type="curve"/>
      <point x="562" y="-219" type="line"/>
      <point x="523" y="-214"/>
      <point x="495" y="-198"/>
      <point x="495" y="-154" type="curve" smooth="yes"/>
      <point x="495" y="-97"/>
      <point x="543" y="-43"/>
      <point x="589" y="0" type="curve"/>
      <point x="739" y="600" type="line"/>
      <point x="639" y="600" type="line"/>
      <point x="614" y="500" type="line"/>
      <point x="565" y="567"/>
      <point x="486" y="608"/>
      <point x="396" y="608" type="curve" smooth="yes"/>
      <point x="216" y="608"/>
      <point x="54" y="445"/>
      <point x="54" y="263" type="curve" smooth="yes"/>
      <point x="54" y="108"/>
      <point x="173" y="-8"/>
      <point x="311" y="-8" type="curve" smooth="yes"/>
      <point x="387" y="-8"/>
      <point x="457" y="27"/>
      <point x="510" y="80" type="curve"/>
      <point x="489" y="0" type="line"/>
      <point x="430" y="-47"/>
      <point x="391" y="-115"/>
      <point x="391" y="-178" type="curve" smooth="yes"/>
      <point x="391" y="-254"/>
      <point x="448" y="-304"/>
    </contour>
    <contour>
      <point x="341" y="90" type="curve" smooth="yes"/>
      <point x="236" y="90"/>
      <point x="164" y="175"/>
      <point x="164" y="274" type="curve" smooth="yes"/>
      <point x="164" y="397"/>
      <point x="275" y="510"/>
      <point x="395" y="510" type="curve" smooth="yes"/>
      <point x="500" y="510"/>
      <point x="572" y="425"/>
      <point x="572" y="326" type="curve" smooth="yes"/>
      <point x="572" y="203"/>
      <point x="461" y="90"/>
    </contour>
  </outline>
</glyph>
<glyph name="dcroat" format="2">
  <advance width="760"/>
  <unicode hex="0111"/>
  <outline>
    <contour>
      <point x="311" y="-8" type="curve" smooth="yes"/>
      <point x="387" y="-8"/>
      <point x="457" y="27"/>
      <point x="510" y="80" type="curve"/>
      <point x="489" y="0" type="line"/>
      <point x="589" y="0" type="line"/>
      <point x="776" y="746" type="line"/>
      <point x="839" y="746" type="line"/>
      <point x="855" y="814" type="line"/>
      <point x="793" y="814" type="line"/>
      <point x="829" y="960" type="line"/>
      <point x="727" y="960" type="line"/>
      <point x="690" y="814" type="line"/>
      <point x="475" y="814" type="line"/>
      <point x="459" y="746" type="line"/>
      <point x="673" y="746" type="line"/>
      <point x="612" y="502" type="line"/>
      <point x="563" y="567"/>
      <point x="485" y="608"/>
      <point x="396" y="608" type="curve" smooth="yes"/>
      <point x="216" y="608"/>
      <point x="54" y="445"/>
      <point x="54" y="263" type="curve" smooth="yes"/>
      <point x="54" y="108"/>
      <point x="173" y="-8"/>
    </contour>
    <contour>
      <point x="341" y="90" type="curve" smooth="yes"/>
      <point x="236" y="90"/>
      <point x="164" y="175"/>
      <point x="164" y="274" type="curve" smooth="yes"/>
      <point x="164" y="397"/>
      <point x="275" y="510"/>
      <point x="395" y="510" type="curve" smooth="yes"/>
      <point x="500" y="510"/>
      <point x="572" y="425"/>
      <point x="572" y="326" type="curve" smooth="yes"/>
      <point x="572" y="203"/>
      <point x="461" y="90"/>
    </contour>
  </outline>
</glyph>
<glyph name="Eogonek" format="2">
  <advance width="630"/>
  <unicode hex="0118"/>
  <anchor x="498" y="900" name="top"/>
  <outline>
    <contour>
      <point x="424" y="-312" type="curve"/>
      <point x="468" y="-219" type="line"/>
      <point x="429" y="-214"/>
      <point x="401" y="-198"/>
      <point x="401" y="-154" type="curve" smooth="yes"/>
      <point x="401" y="-97"/>
      <point x="449" y="-43"/>
      <point x="495" y="0" type="curve"/>
      <point x="520" y="102" type="line"/>
      <point x="190" y="102" type="line"/>
      <point x="292" y="504" type="line"/>
      <point x="552" y="504" type="line"/>
      <point x="577" y="606" type="line"/>
      <point x="317" y="606" type="line"/>
      <point x="365" y="798" type="line"/>
      <point x="695" y="798" type="line"/>
      <point x="720" y="900" type="line"/>
      <point x="276" y="900" type="line"/>
      <point x="51" y="0" type="line"/>
      <point x="395" y="0" type="line"/>
      <point x="336" y="-47"/>
      <point x="297" y="-115"/>
      <point x="297" y="-178" type="curve" smooth="yes"/>
      <point x="297" y="-254"/>
      <point x="354" y="-304"/>
    </contour>
  </outline>
</glyph>
<glyph name="eogonek" format="2">
  <advance width="710"/>
  <unicode hex="0119"/>
  <anchor x="355" y="600" name="top"/>
  <outline>
    <contour>
      <point x="402" y="-312" type="curve"/>
      <point x="446" y="-219" type="line"/>
      <point x="407" y="-214"/>
      <point x="379" y="-198"/>
      <point x="379" y="-154" type="curve" smooth="yes"/>
      <point x="379" y="-97"/>
      <point x="441" y="-10"/>
      <point x="551" y="59" type="curve"/>
      <point x="551" y="204" type="line"/>
      <point x="509" y="137"/>
      <point x="434" y="90"/>
      <point x="350" y="90" type="curve" smooth="yes"/>
      <point x="239" y="90"/>
      <point x="165" y="172"/>
      <point x="164" y="277" type="curve"/>
      <point x="197" y="273"/>
      <point x="230" y="270"/>
      <point x="263" y="270" type="curve" smooth="yes"/>
      <point x="655" y="270" type="line"/>
      <point x="666" y="314" type="line" smooth="yes"/>
      <point x="704" y="468"/>
      <point x="603" y="612"/>
      <point x="419" y="612" type="curve" smooth="yes"/>
      <point x="222" y="612"/>
      <point x="54" y="447"/>
      <point x="54" y="263" type="curve" smooth="yes"/>
      <point x="54" y="106"/>
      <point x="177" y="-12"/>
      <point x="341" y="-12" type="curve" smooth="yes"/>
      <point x="348" y="-12"/>
      <point x="354" y="-12"/>
      <point x="361" y="-11" type="curve"/>
      <point x="302" y="-70"/>
      <point x="275" y="-126"/>
      <point x="275" y="-178" type="curve" smooth="yes"/>
      <point x="275" y="-254"/>
      <point x="332" y="-304"/>
    </contour>
    <contour>
      <point x="170" y="351" type="curve"/>
      <point x="202" y="444"/>
      <point x="293" y="516"/>
      <point x="400" y="516" type="curve" smooth="yes"/>
      <point x="505" y="516"/>
      <point x="573" y="446"/>
      <point x="569" y="355" type="curve"/>
      <point x="541" y="358"/>
      <point x="513" y="360"/>
      <point x="484" y="360" type="curve" smooth="yes"/>
      <point x="285" y="360" type="line" smooth="yes"/>
      <point x="248" y="360"/>
      <point x="209" y="357"/>
    </contour>
  </outline>
</glyph>
<glyph name="Hbar" format="2">
  <advance width="800"/>
  <unicode hex="0126"/>
  <outline>
    <contour>
      <point x="51" y="0" type="line"/>
      <point x="165" y="0" type="line"/>
      <point x="276" y="444" type="line"/>
      <point x="596" y="444" type="line"/>
      <point x="485" y="0" type="line"/>
      <point x="599" y="0" type="line"/>
      <point x="776" y="708" type="line"/>
      <point x="870" y="708" type="line"/>
      <point x="890" y="792" type="line"/>
      <point x="797" y="792" type="line"/>
      <point x="824" y="900" type="line"/>
      <point x="710" y="900" type="line"/>
      <point x="683" y="792" type="line"/>
      <point x="363" y="792" type="line"/>
      <point x="390" y="900" type="line"/>
      <point x="276" y="900" type="line"/>
      <point x="249" y="792" type="line"/>
      <point x="150" y="792" type="line"/>
      <point x="130" y="708" type="line"/>
      <point x="228" y="708" type="line"/>
    </contour>
    <contour>
      <point x="302" y="546" type="line"/>
      <point x="342" y="708" type="line"/>
      <point x="662" y="708" type="line"/>
      <point x="622" y="546" type="line"/>
    </contour>
  </outline>
</glyph>
<glyph name="Iogonek" format="2">
  <advance width="390"/>
  <unicode hex="012E"/>
  <outline>
    <contour>
      <point x="99" y="-312" type="curve"/>
      <point x="143" y="-219" type="line"/>
      <point x="104" y="-214"/>
      <point x="76" y="-198"/>
      <point x="76" y="-154" type="curve" smooth="yes"/>
      <point x="76" y="-97"/>
      <point x="128" y="-43"/>
      <point x="177" y="0" type="curve"/>
      <point x="402" y="900" type="line"/>
      <point x="288" y="900" type="line"/>
      <point x="63" y="0" type="line"/>
      <point x="8" y="-47"/>
      <point x="-28" y="-115"/>
      <point x="-28" y="-178" type="curve" smooth="yes"/>
      <point x="-28" y="-254"/>
      <point x="29" y="-304"/>
    </contour>
  </outline>
</glyph>
<glyph name="Lslash" format="2">
  <advance width="630"/>
  <unicode hex="0141"/>
  <outline>
    <contour>
      <point x="81" y="0" type="line"/>
      <point x="507" y="0" type="line"/>
      <point x="532" y="102" type="line"/>
      <point x="220" y="102" type="line"/>
      <point x="304" y="436" type="line"/>
      <point x="568" y="585" type="line"/>
      <point x="538" y="659" type="line"/>
      <point x="330" y="542" type="line"/>
      <point x="420" y="900" type="line"/>
      <point x="306" y="900" type="line"/>
      <point x="198" y="468" type="line"/>
      <point x="40" y="379" type="line"/>
      <point x="70" y="305" type="line"/>
      <point x="172" y="362" type="line"/>
    </contour>
  </outline>
</glyph>
<glyph name="lslash" format="2">
  <advance width="360"/>
  <unicode hex="0142"/>
  <outline>
    <contour>
      <point x="51" y="0" type="line"/>
      <point x="159" y="0" type="line"/>
      <point x="278" y="477" type="line"/>
      <point x="423" y="559" type="line"/>
      <point x="392" y="614" type="line"/>
      <point x="299" y="562" type="line"/>
      <point x="399" y="960" type="line"/>
      <point x="291" y="960" type="line"/>
      <point x="174" y="491" type="line"/>
      <point x="15" y="401" type="line"/>
      <point x="46" y="346" type="line"/>
      <point x="153" y="406" type="line"/>
    </contour>
  </outline>
</glyph>
<glyph name="Eng" format="2">
  <advance width="990"/>
  <unicode hex="014A"/>
  <anchor x="420" y="0" name="bottom"/>
  <anchor x="642" y="900" name="top"/>
  <outline>
    <contour>
      <point x="535" y="-192" type="curve" smooth="yes"/>
      <point x="648" y="-192"/>
      <point x="759" y="-122"/>
      <point x="799" y="38" type="curve" smooth="yes"/>
      <point x="1014" y="900" type="line"/>
      <point x="906" y="900" type="line"/>
      <point x="740" y="236" type="line"/>
      <point x="285" y="930" type="line"/>
      <point x="283" y="930" type="line"/>
      <point x="51" y="0" type="line"/>
      <point x="159" y="0" type="line"/>
      <point x="325" y="664" type="line"/>
      <point x="704" y="89" type="line"/>
      <point x="697" y="61" type="line" smooth="yes"/>
      <point x="670" y="-49"/>
      <point x="606" y="-90"/>
      <point x="546" y="-90" type="curve" smooth="yes"/>
      <point x="487" y="-90"/>
      <point x="434" y="-51"/>
      <point x="415" y="13" type="curve"/>
      <point x="353" y="-101" type="line"/>
      <point x="392" y="-166"/>
      <point x="474" y="-192"/>
    </contour>
  </outline>
</glyph>
<glyph name="OE" format="2">
  <advance width="1380"/>
  <unicode hex="0152"/>
  <anchor x="690" y="0" name="bottom"/>
  <anchor x="690" y="900" name="top"/>
  <outline>
    <contour>
      <point x="497" y="-18" type="curve" smooth="yes"/>
      <point x="623" y="-18"/>
      <point x="749" y="38"/>
      <point x="838" y="126" type="curve"/>
      <point x="807" y="0" type="line"/>
      <point x="1245" y="0" type="line"/>
      <point x="1270" y="102" type="line"/>
      <point x="940" y="102" type="line"/>
      <point x="1041" y="504" type="line"/>
      <point x="1301" y="504" type="line"/>
      <point x="1326" y="606" type="line"/>
      <point x="1066" y="606" type="line"/>
      <point x="1115" y="798" type="line"/>
      <point x="1445" y="798" type="line"/>
      <point x="1470" y="900" type="line"/>
      <point x="1032" y="900" type="line"/>
      <point x="983" y="701" type="line"/>
      <point x="916" y="832"/>
      <point x="784" y="918"/>
      <point x="622" y="918" type="curve" smooth="yes"/>
      <point x="347" y="918"/>
      <point x="98" y="669"/>
      <point x="98" y="395" type="curve" smooth="yes"/>
      <point x="98" y="162"/>
      <point x="271" y="-18"/>
    </contour>
    <contour>
      <point x="523" y="90" type="curve" smooth="yes"/>
      <point x="349" y="90"/>
      <point x="216" y="225"/>
      <point x="216" y="403" type="curve" smooth="yes"/>
      <point x="216" y="616"/>
      <point x="404" y="810"/>
      <point x="611" y="810" type="curve" smooth="yes"/>
      <point x="785" y="810"/>
      <point x="918" y="675"/>
      <point x="918" y="497" type="curve" smooth="yes"/>
      <point x="918" y="284"/>
      <point x="730" y="90"/>
    </contour>
  </outline>
</glyph>
<glyph name="oe" format="2">
  <advance width="1210"/>
  <unicode hex="0153"/>
  <anchor x="605" y="0" name="bottom"/>
  <anchor x="605" y="600" name="top"/>
  <outline>
    <contour>
      <point x="333" y="-12" type="curve" smooth="yes"/>
      <point x="435" y="-12"/>
      <point x="532" y="38"/>
      <point x="598" y="113" type="curve"/>
      <point x="647" y="37"/>
      <point x="736" y="-12"/>
      <point x="841" y="-12" type="curve" smooth="yes"/>
      <point x="920" y="-12"/>
      <point x="992" y="15"/>
      <point x="1051" y="59" type="curve"/>
      <point x="1051" y="204" type="line"/>
      <point x="1009" y="137"/>
      <point x="934" y="90"/>
      <point x="850" y="90" type="curve" smooth="yes"/>
      <point x="739" y="90"/>
      <point x="665" y="172"/>
      <point x="664" y="277" type="curve"/>
      <point x="697" y="273"/>
      <point x="730" y="270"/>
      <point x="763" y="270" type="curve" smooth="yes"/>
      <point x="1155" y="270" type="line"/>
      <point x="1166" y="314" type="line" smooth="yes"/>
      <point x="1204" y="468"/>
      <point x="1103" y="612"/>
      <point x="919" y="612" type="curve" smooth="yes"/>
      <point x="811" y="612"/>
      <point x="711" y="562"/>
      <point x="643" y="487" type="curve"/>
      <point x="594" y="563"/>
      <point x="507" y="612"/>
      <point x="407" y="612" type="curve" smooth="yes"/>
      <point x="221" y="612"/>
      <point x="54" y="447"/>
      <point x="54" y="263" type="curve" smooth="yes"/>
      <point x="54" y="106"/>
      <point x="178" y="-12"/>
    </contour>
    <contour>
      <point x="344" y="90" type="curve" smooth="yes"/>
      <point x="238" y="90"/>
      <point x="164" y="173"/>
      <point x="164" y="274" type="curve" smooth="yes"/>
      <point x="164" y="398"/>
      <point x="275" y="510"/>
      <point x="396" y="510" type="curve" smooth="yes"/>
      <point x="502" y="510"/>
      <point x="576" y="427"/>
      <point x="576" y="326" type="curve" smooth="yes"/>
      <point x="576" y="202"/>
      <point x="465" y="90"/>
    </contour>
    <contour>
      <point x="670" y="351" type="curve"/>
      <point x="702" y="444"/>
      <point x="793" y="516"/>
      <point x="900" y="516" type="curve" smooth="yes"/>
      <point x="1005" y="516"/>
      <point x="1073" y="446"/>
      <point x="1069" y="355" type="curve"/>
      <point x="1041" y="358"/>
      <point x="1013" y="360"/>
      <point x="984" y="360" type="curve" smooth="yes"/>
      <point x="785" y="360" type="line" smooth="yes"/>
      <point x="748" y="360"/>
      <point x="709" y="357"/>
    </contour>
  </outline>
</glyph>
<glyph name="Scedilla" format="2">
  <advance width="660"/>
  <unicode hex="015E"/>
  <outline>
    <contour>
      <point x="47" y="-180" type="line"/>
      <point x="190" y="-180" type="line"/>
      <point x="331" y="-2" type="line"/>
      <point x="476" y="20"/>
      <point x="590" y="144"/>
      <point x="590" y="282" type="curve" smooth="yes"/>
      <point x="590" y="365"/>
      <point x="548" y="426"/>
      <point x="465" y="489" type="curve" smooth="yes"/>
      <point x="375" y="558" type="line" smooth="yes"/>
      <point x="331" y="592"/>
      <point x="307" y="628"/>
      <point x="307" y="670" type="curve" smooth="yes"/>
      <point x="307" y="746"/>
      <point x="371" y="807"/>
      <point x="445" y="807" type="curve" smooth="yes"/>
      <point x="520" y="807"/>
      <point x="592" y="751"/>
      <point x="620" y="670" type="curve"/>
      <point x="686" y="801" type="line"/>
      <point x="633" y="866"/>
      <point x="546" y="906"/>
      <point x="458" y="906" type="curve" smooth="yes"/>
      <point x="311" y="906"/>
      <point x="190" y="788"/>
      <point x="190" y="652" type="curve" smooth="yes"/>
      <point x="190" y="576"/>
      <point x="230" y="524"/>
      <point x="301" y="469" type="curve" smooth="yes"/>
      <point x="389" y="400" type="line" smooth="yes"/>
      <point x="443" y="358"/>
      <point x="474" y="316"/>
      <point x="474" y="263" type="curve" smooth="yes"/>
      <point x="474" y="174"/>
      <point x="390" y="95"/>
      <point x="294" y="95" type="curve" smooth="yes"/>
      <point x="201" y="95"/>
      <point x="119" y="169"/>
      <point x="97" y="267" type="curve"/>
      <point x="31" y="135" type="line"/>
      <point x="68" y="65"/>
      <point x="142" y="16"/>
      <point x="225" y="0" type="curve"/>
    </contour>
  </outline>
</glyph>
<glyph name="Tcedilla" format="2">
  <advance width="690"/>
  <unicode hex="0162"/>
  <outline>
    <contour>
      <point x="38" y="-180" type="line"/>
      <point x="181" y="-180" type="line"/>
      <point x="327" y="0" type="line"/>
      <point x="527" y="798" type="line"/>
      <point x="767" y="798" type="line"/>
      <point x="792" y="900" type="line"/>
      <point x="198" y="900" type="line"/>
      <point x="173" y="798" type="line"/>
      <point x="413" y="798" type="line"/>
      <point x="213" y="0" type="line"/>
    </contour>
  </outline>
</glyph>
<glyph name="tcedilla" format="2">
  <advance width="450"/>
  <unicode hex="0163"/>
  <outline>
    <contour>
      <point x="-87" y="-180" type="line"/>
      <point x="56" y="-180" type="line"/>
      <point x="199" y="0" type="line"/>
      <point x="326" y="510" type="line"/>
      <point x="472" y="510" type="line"/>
      <point x="495" y="600" type="line"/>
      <point x="345" y="600" type="line"/>
      <point x="394" y="800" type="line"/>
      <point x="292" y="800" type="line"/>
      <point x="243" y="600" type="line"/>
      <point x="105" y="600" type="line"/>
      <point x="82" y="510" type="line"/>
      <point x="218" y="510" type="line"/>
      <point x="91" y="0" type="line"/>
    </contour>
  </outline>
</glyph>
<glyph name="Tbar" format="2">
  <advance width="690"/>
  <unicode hex="0166"/>
  <outline>
    <contour>
      <point x="213" y="0" type="line"/>
      <point x="327" y="0" type="line"/>
      <point x="429" y="408" type="line"/>
      <point x="611" y="408" type="line"/>
      <point x="631" y="492" type="line"/>
      <point x="450" y="492" type="line"/>
      <point x="527" y="798" type="line"/>
      <point x="767" y="798" type="line"/>
      <point x="792" y="900" type="line"/>
      <point x="198" y="900" type="line"/>
      <point x="173" y="798" type="line"/>
      <point x="413" y="798" type="line"/>
      <point x="336" y="492" type="line"/>
      <point x="151" y="492" type="line"/>
      <point x="131" y="408" type="line"/>
      <point x="315" y="408" type="line"/>
    </contour>
  </outline>
</glyph>
<glyph name="tbar" format="2">
  <advance width="450"/>
  <unicode hex="0167"/>
  <outline>
    <contour>
      <point x="91" y="0" type="line"/>
      <point x="199" y="0" type="line"/>
      <point x="265" y="266" type="line"/>
      <point x="400" y="266" type="line"/>
      <point x="416" y="334" type="line"/>
      <point x="282" y="334" type="line"/>
      <point x="326" y="510" type="line"/>
      <point x="472" y="510" type="line"/>
      <point x="495" y="600" type="line"/>
      <point x="345" y="600" type="line"/>
      <point x="394" y="800" type="line"/>
      <point x="292" y="800" type="line"/>
      <point x="243" y="600" type="line"/>
      <point x="105" y="600" type="line"/>
      <point x="82" y="510" type="line"/>
      <point x="218" y="510" type="line"/>
      <point x="174" y="334" type="line"/>
      <point x="36" y="334" type="line"/>
      <point x="20" y="266" type="line"/>
      <point x="157" y="266" type="line"/>
    </contour>
  </outline>
</glyph>
<glyph name="Uogonek" format="2">
  <advance width="800"/>
  <unicode hex="0172"/>
  <outline>
    <contour>
      <point x="336" y="-312" type="curve"/>
      <point x="380" y="-219" type="line"/>
      <point x="341" y="-214"/>
      <point x="313" y="-198"/>
      <point x="313" y="-154" type="curve" smooth="yes"/>
      <point x="313" y="-102"/>
      <point x="354" y="-52"/>
      <point x="396" y="-11" type="curve"/>
      <point x="537" y="3"/>
      <point x="643" y="105"/>
      <point x="682" y="261" type="curve" smooth="yes"/>
      <point x="842" y="900" type="line"/>
      <point x="732" y="900" type="line"/>
      <point x="574" y="271" type="line" smooth="yes"/>
      <point x="546" y="158"/>
      <point x="470" y="90"/>
      <point x="374" y="90" type="curve" smooth="yes"/>
      <point x="247" y="90"/>
      <point x="197" y="202"/>
      <point x="226" y="318" type="curve" smooth="yes"/>
      <point x="372" y="900" type="line"/>
      <point x="258" y="900" type="line"/>
      <point x="116" y="328" type="line" smooth="yes"/>
      <point x="78" y="172"/>
      <point x="145" y="30"/>
      <point x="293" y="-4" type="curve"/>
      <point x="230" y="-76"/>
      <point x="209" y="-129"/>
      <point x="209" y="-178" type="curve" smooth="yes"/>
      <point x="209" y="-254"/>
      <point x="266" y="-304"/>
    </contour>
  </outline>
</glyph>
<glyph name="uogonek" format="2">
  <advance width="720"/>
  <unicode hex="0173"/>
  <outline>
    <contour>
      <point x="478" y="-312" type="curve"/>
      <point x="522" y="-219" type="line"/>
      <point x="483" y="-214"/>
      <point x="455" y="-198"/>
      <point x="455" y="-154" type="curve" smooth="yes"/>
      <point x="455" y="-97"/>
      <point x="503" y="-43"/>
      <point x="549" y="0" type="curve"/>
      <point x="699" y="600" type="line"/>
      <point x="591" y="600" type="line"/>
      <point x="503" y="255" type="line" smooth="yes"/>
      <point x="474" y="140"/>
      <point x="385" y="78"/>
      <point x="301" y="78" type="curve" smooth="yes"/>
      <point x="194" y="78"/>
      <point x="160" y="168"/>
      <point x="186" y="274" type="curve" smooth="yes"/>
      <point x="267" y="600" type="line"/>
      <point x="159" y="600" type="line"/>
      <point x="77" y="272" type="line" smooth="yes"/>
      <point x="39" y="120"/>
      <point x="102" y="-12"/>
      <point x="264" y="-12" type="curve" smooth="yes"/>
      <point x="337" y="-12"/>
      <point x="413" y="20"/>
      <point x="470" y="85" type="curve"/>
      <point x="449" y="0" type="line"/>
      <point x="390" y="-47"/>
      <point x="351" y="-115"/>
      <point x="351" y="-178" type="curve" smooth="yes"/>
      <point x="351" y="-254"/>
      <point x="408" y="-304"/>
    </contour>
  </outline>
</glyph>
<glyph name="Schwa" format="2">
  <advance width="1050"/>
  <unicode hex="018F"/>
  <outline>
    <contour>
      <point x="498" y="-14" type="curve" smooth="yes"/>
      <point x="774" y="-14"/>
      <point x="1026" y="227"/>
      <point x="1026" y="506" type="curve" smooth="yes"/>
      <point x="1026" y="742"/>
      <point x="842" y="915"/>
      <point x="611" y="915" type="curve" smooth="yes"/>
      <point x="505" y="915"/>
      <point x="400" y="880"/>
      <point x="312" y="820" type="curve"/>
      <point x="312" y="680" type="line"/>
      <point x="387" y="759"/>
      <point x="491" y="808"/>
      <point x="599" y="808" type="curve" smooth="yes"/>
      <point x="772" y="808"/>
      <point x="906" y="678"/>
      <point x="907" y="501" type="curve"/>
      <point x="871" y="507"/>
      <point x="834" y="510"/>
      <point x="797" y="510" type="curve" smooth="yes"/>
      <point x="102" y="510" type="line"/>
      <point x="100" y="501"/>
      <point x="97" y="491"/>
      <point x="95" y="482" type="curve" smooth="yes"/>
      <point x="24" y="197"/>
      <point x="241" y="-14"/>
    </contour>
    <contour>
      <point x="510" y="93" type="curve" smooth="yes"/>
      <point x="325" y="93"/>
      <point x="193" y="224"/>
      <point x="199" y="408" type="curve"/>
      <point x="772" y="408" type="line" smooth="yes"/>
      <point x="813" y="408"/>
      <point x="855" y="412"/>
      <point x="898" y="419" type="curve"/>
      <point x="860" y="241"/>
      <point x="696" y="93"/>
    </contour>
  </outline>
</glyph>
<glyph name="florin" format="2">
  <advance width="750"/>
  <unicode hex="0192"/>
  <outline>
    <contour>
      <point x="132" y="-192" type="curve" smooth="yes"/>
      <point x="225" y="-192"/>
      <point x="315" y="-133"/>
      <point x="346" y="-7" type="curve" smooth="yes"/>
      <point x="448" y="405" type="line"/>
      <point x="656" y="405" type="line"/>
      <point x="679" y="495" type="line"/>
      <point x="470" y="495" type="line"/>
      <point x="526" y="712" type="line" smooth="yes"/>
      <point x="548" y="797"/>
      <point x="589" y="822"/>
      <point x="632" y="822" type="curve" smooth="yes"/>
      <point x="669" y="822"/>
      <point x="705" y="804"/>
      <point x="727" y="770" type="curve"/>
      <point x="776" y="869" type="line"/>
      <point x="738" y="900"/>
      <point x="682" y="912"/>
      <point x="639" y="912" type="curve" smooth="yes"/>
      <point x="546" y="912"/>
      <point x="458" y="855"/>
      <point x="425" y="727" type="curve" smooth="yes"/>
      <point x="366" y="495" type="line"/>
      <point x="169" y="495" type="line"/>
      <point x="146" y="405" type="line"/>
      <point x="344" y="405" type="line"/>
      <point x="245" y="8" type="line" smooth="yes"/>
      <point x="224" y="-77"/>
      <point x="179" y="-102"/>
      <point x="136" y="-102" type="curve" smooth="yes"/>
      <point x="99" y="-102"/>
      <point x="66" y="-84"/>
      <point x="44" y="-50" type="curve"/>
      <point x="-5" y="-149" type="line"/>
      <point x="33" y="-180"/>
      <point x="89" y="-192"/>
    </contour>
  </outline>
</glyph>
<glyph name="Ohorn" format="2">
  <advance width="1060"/>
  <unicode hex="01A0"/>
  <anchor x="455" y="0" name="bottom"/>
  <anchor x="680" y="900" name="top"/>
  <outline>
    <contour>
      <point x="512" y="-18" type="curve" smooth="yes"/>
      <point x="787" y="-18"/>
      <point x="1036" y="231"/>
      <point x="1036" y="505" type="curve" smooth="yes"/>
      <point x="1036" y="577"/>
      <point x="1019" y="644"/>
      <point x="988" y="702" type="curve"/>
      <point x="1080" y="722"/>
      <point x="1152" y="819"/>
      <point x="1152" y="914" type="curve" smooth="yes"/>
      <point x="1152" y="929"/>
      <point x="1150" y="944"/>
      <point x="1144" y="960" type="curve"/>
      <point x="1048" y="960" type="line"/>
      <point x="1053" y="944"/>
      <point x="1055" y="927"/>
      <point x="1055" y="912" type="curve" smooth="yes"/>
      <point x="1055" y="856"/>
      <point x="1025" y="781"/>
      <point x="938" y="776" type="curve"/>
      <point x="863" y="864"/>
      <point x="750" y="918"/>
      <point x="622" y="918" type="curve" smooth="yes"/>
      <point x="347" y="918"/>
      <point x="98" y="669"/>
      <point x="98" y="395" type="curve" smooth="yes"/>
      <point x="98" y="162"/>
      <point x="278" y="-18"/>
    </contour>
    <contour>
      <point x="523" y="90" type="curve" smooth="yes"/>
      <point x="349" y="90"/>
      <point x="216" y="225"/>
      <point x="216" y="403" type="curve" smooth="yes"/>
      <point x="216" y="616"/>
      <point x="404" y="810"/>
      <point x="611" y="810" type="curve" smooth="yes"/>
      <point x="785" y="810"/>
      <point x="918" y="675"/>
      <point x="918" y="497" type="curve" smooth="yes"/>
      <point x="918" y="284"/>
      <point x="730" y="90"/>
    </contour>
  </outline>
</glyph>
<glyph name="ohorn" format="2">
  <advance width="770"/>
  <unicode hex="01A1"/>
  <anchor x="296" y="0" name="bottom"/>
  <anchor x="444" y="600" name="top"/>
  <outline>
    <contour>
      <point x="333" y="-12" type="curve" smooth="yes"/>
      <point x="519" y="-12"/>
      <point x="686" y="153"/>
      <point x="686" y="337" type="curve" smooth="yes"/>
      <point x="686" y="362"/>
      <point x="683" y="386"/>
      <point x="677" y="408" type="curve"/>
      <point x="759" y="438"/>
      <point x="818" y="529"/>
      <point x="818" y="615" type="curve" smooth="yes"/>
      <point x="818" y="630"/>
      <point x="816" y="645"/>
      <point x="811" y="660" type="curve"/>
      <point x="721" y="660" type="line"/>
      <point x="726" y="645"/>
      <point x="728" y="629"/>
      <point x="728" y="615" type="curve" smooth="yes"/>
      <point x="728" y="564"/>
      <point x="704" y="496"/>
      <point x="647" y="480" type="curve"/>
      <point x="599" y="560"/>
      <point x="510" y="612"/>
      <point x="407" y="612" type="curve" smooth="yes"/>
      <point x="221" y="612"/>
      <point x="54" y="447"/>
      <point x="54" y="263" type="curve" smooth="yes"/>
      <point x="54" y="106"/>
      <point x="178" y="-12"/>
    </contour>
    <contour>
      <point x="344" y="90" type="curve" smooth="yes"/>
      <point x="238" y="90"/>
      <point x="164" y="173"/>
      <point x="164" y="274" type="curve" smooth="yes"/>
      <point x="164" y="398"/>
      <point x="275" y="510"/>
      <point x="396" y="510" type="curve" smooth="yes"/>
      <point x="502" y="510"/>
      <point x="576" y="427"/>
      <point x="576" y="326" type="curve" smooth="yes"/>
      <point x="576" y="202"/>
      <point x="465" y="90"/>
    </contour>
  </outline>
</glyph>
<glyph name="Uhorn" format="2">
  <advance width="920"/>
  <unicode hex="01AF"/>
  <anchor x="326" y="0" name="bottom"/>
  <anchor x="548" y="900" name="top"/>
  <outline>
    <contour>
      <point x="364" y="-12" type="curve" smooth="yes"/>
      <point x="521" y="-12"/>
      <point x="640" y="93"/>
      <point x="682" y="261" type="curve" smooth="yes"/>
      <point x="794" y="707" type="line"/>
      <point x="809" y="701"/>
      <point x="826" y="698"/>
      <point x="844" y="698" type="curve" smooth="yes"/>
      <point x="957" y="698"/>
      <point x="1042" y="814"/>
      <point x="1042" y="915" type="curve" smooth="yes"/>
      <point x="1042" y="930"/>
      <point x="1040" y="945"/>
      <point x="1035" y="960" type="curve"/>
      <point x="939" y="960" type="line"/>
      <point x="944" y="945"/>
      <point x="946" y="929"/>
      <point x="946" y="915" type="curve" smooth="yes"/>
      <point x="946" y="856"/>
      <point x="913" y="776"/>
      <point x="839" y="776" type="curve" smooth="yes"/>
      <point x="827" y="776"/>
      <point x="816" y="779"/>
      <point x="807" y="784" type="curve"/>
      <point x="836" y="900" type="line"/>
      <point x="732" y="900" type="line"/>
      <point x="574" y="271" type="line" smooth="yes"/>
      <point x="546" y="158"/>
      <point x="470" y="90"/>
      <point x="374" y="90" type="curve" smooth="yes"/>
      <point x="247" y="90"/>
      <point x="197" y="202"/>
      <point x="226" y="318" type="curve" smooth="yes"/>
      <point x="372" y="900" type="line"/>
      <point x="258" y="900" type="line"/>
      <point x="116" y="328" type="line" smooth="yes"/>
      <point x="72" y="149"/>
      <point x="167" y="-12"/>
    </contour>
  </outline>
</glyph>
<glyph name="uhorn" format="2">
  <advance width="840"/>
  <unicode hex="01B0"/>
  <anchor x="287" y="0" name="bottom"/>
  <anchor x="435" y="600" name="top"/>
  <outline>
    <contour>
      <point x="264" y="-12" type="curve" smooth="yes"/>
      <point x="337" y="-12"/>
      <point x="413" y="20"/>
      <point x="470" y="85" type="curve"/>
      <point x="449" y="0" type="line"/>
      <point x="549" y="0" type="line"/>
      <point x="650" y="404" type="line"/>
      <point x="663" y="400"/>
      <point x="676" y="398"/>
      <point x="691" y="398" type="curve" smooth="yes"/>
      <point x="801" y="398"/>
      <point x="889" y="509"/>
      <point x="889" y="615" type="curve" smooth="yes"/>
      <point x="889" y="630"/>
      <point x="887" y="645"/>
      <point x="882" y="660" type="curve"/>
      <point x="792" y="660" type="line"/>
      <point x="797" y="645"/>
      <point x="799" y="629"/>
      <point x="799" y="615" type="curve" smooth="yes"/>
      <point x="799" y="556"/>
      <point x="767" y="476"/>
      <point x="692" y="476" type="curve" smooth="yes"/>
      <point x="682" y="476"/>
      <point x="672" y="478"/>
      <point x="664" y="482" type="curve"/>
      <point x="693" y="600" type="line"/>
      <point x="591" y="600" type="line"/>
      <point x="503" y="255" type="line" smooth="yes"/>
      <point x="474" y="140"/>
      <point x="385" y="78"/>
      <point x="301" y="78" type="curve" smooth="yes"/>
      <point x="194" y="78"/>
      <point x="160" y="168"/>
      <point x="186" y="274" type="curve" smooth="yes"/>
      <point x="267" y="600" type="line"/>
      <point x="159" y="600" type="line"/>
      <point x="77" y="272" type="line" smooth="yes"/>
      <point x="39" y="120"/>
      <point x="102" y="-12"/>
    </contour>
  </outline>
</glyph>
<glyph name="Ezh" format="2">
  <advance width="660"/>
  <unicode hex="01B7"/>
  <anchor x="228" y="0" name="bottom"/>
  <anchor x="460" y="900" name="top"/>
  <outline>
    <contour>
      <point x="270" y="-12" type="curve" smooth="yes"/>
      <point x="451" y="-12"/>
      <point x="618" y="157"/>
      <point x="618" y="338" type="curve" smooth="yes"/>
      <point x="618" y="455"/>
      <point x="549" y="548"/>
      <point x="446" y="585" type="curve"/>
      <point x="692" y="898" type="line"/>
      <point x="692" y="900" type="line"/>
      <point x="231" y="900" type="line"/>
      <point x="206" y="798" type="line"/>
      <point x="494" y="798" type="line"/>
      <point x="255" y="493" type="line"/>
      <point x="257" y="491" type="line"/>
      <point x="276" y="501"/>
      <point x="300" y="506"/>
      <point x="325" y="506" type="curve" smooth="yes"/>
      <point x="429" y="506"/>
      <point x="503" y="426"/>
      <point x="503" y="328" type="curve" smooth="yes"/>
      <point x="503" y="211"/>
      <point x="398" y="96"/>
      <point x="280" y="96" type="curve" smooth="yes"/>
      <point x="158" y="96"/>
      <point x="88" y="202"/>
      <point x="100" y="304" type="curve"/>
      <point x="0" y="180" type="line"/>
      <point x="38" y="58"/>
      <point x="151" y="-12"/>
    </contour>
  </outline>
</glyph>
<glyph name="Gstroke" format="2">
  <advance width="940"/>
  <unicode hex="01E4"/>
  <outline>
    <contour>
      <point x="512" y="-18" type="curve" smooth="yes"/>
      <point x="613" y="-18"/>
      <point x="712" y="17"/>
      <point x="797" y="73" type="curve"/>
      <point x="856" y="318" type="line"/>
      <point x="927" y="318" type="line"/>
      <point x="947" y="402" type="line"/>
      <point x="876" y="402" type="line"/>
      <point x="909" y="540" type="line"/>
      <point x="797" y="540" type="line"/>
      <point x="764" y="402" type="line"/>
      <point x="527" y="402" type="line"/>
      <point x="507" y="318" type="line"/>
      <point x="744" y="318" type="line"/>
      <point x="702" y="139" type="line"/>
      <point x="646" y="108"/>
      <point x="585" y="90"/>
      <point x="523" y="90" type="curve" smooth="yes"/>
      <point x="349" y="90"/>
      <point x="216" y="225"/>
      <point x="216" y="403" type="curve" smooth="yes"/>
      <point x="216" y="616"/>
      <point x="404" y="810"/>
      <point x="611" y="810" type="curve" smooth="yes"/>
      <point x="723" y="810"/>
      <point x="818" y="754"/>
      <point x="871" y="667" type="curve"/>
      <point x="929" y="786" type="line"/>
      <point x="854" y="868"/>
      <point x="746" y="918"/>
      <point x="622" y="918" type="curve" smooth="yes"/>
      <point x="347" y="918"/>
      <point x="98" y="669"/>
      <point x="98" y="395" type="curve" smooth="yes"/>
      <point x="98" y="162"/>
      <point x="278" y="-18"/>
    </contour>
  </outline>
</glyph>
<glyph name="gstroke" format="2">
  <advance width="760"/>
  <unicode hex="01E5"/>
  <outline>
    <contour>
      <point x="229" y="-312" type="curve" smooth="yes"/>
      <point x="386" y="-312"/>
      <point x="537" y="-209"/>
      <point x="582" y="-28" type="curve" smooth="yes"/>
      <point x="656" y="266" type="line"/>
      <point x="724" y="266" type="line"/>
      <point x="740" y="334" type="line"/>
      <point x="673" y="334" type="line"/>
      <point x="739" y="600" type="line"/>
      <point x="639" y="600" type="line"/>
      <point x="614" y="500" type="line"/>
      <point x="565" y="567"/>
      <point x="486" y="608"/>
      <point x="396" y="608" type="curve" smooth="yes"/>
      <point x="216" y="608"/>
      <point x="54" y="445"/>
      <point x="54" y="263" type="curve" smooth="yes"/>
      <point x="54" y="108"/>
      <point x="173" y="-8"/>
      <point x="311" y="-8" type="curve" smooth="yes"/>
      <point x="387" y="-8"/>
      <point x="457" y="27"/>
      <point x="510" y="80" type="curve"/>
      <point x="486" y="-10" type="line" smooth="yes"/>
      <point x="454" y="-133"/>
      <point x="357" y="-212"/>
      <point x="241" y="-212" type="curve" smooth="yes"/>
      <point x="153" y="-212"/>
      <point x="72" y="-169"/>
      <point x="38" y="-88" type="curve"/>
      <point x="-21" y="-204" type="line"/>
      <point x="41" y="-277"/>
      <point x="137" y="-312"/>
    </contour>
    <contour>
      <point x="341" y="90" type="curve" smooth="yes"/>
      <point x="236" y="90"/>
      <point x="164" y="175"/>
      <point x="164" y="274" type="curve" smooth="yes"/>
      <point x="164" y="397"/>
      <point x="275" y="510"/>
      <point x="395" y="510" type="curve" smooth="yes"/>
      <point x="497" y="510"/>
      <point x="568" y="430"/>
      <point x="572" y="334" type="curve"/>
      <point x="360" y="334" type="line"/>
      <point x="344" y="266" type="line"/>
      <point x="563" y="266" type="line"/>
      <point x="535" y="169"/>
      <point x="441" y="90"/>
    </contour>
  </outline>
</glyph>
<glyph name="Oogonek" format="2">
  <advance width="1060"/>
  <unicode hex="01EA"/>
  <anchor x="678" y="900" name="top"/>
  <outline>
    <contour>
      <point x="465" y="-312" type="curve"/>
      <point x="509" y="-219" type="line"/>
      <point x="470" y="-214"/>
      <point x="442" y="-198"/>
      <point x="442" y="-154" type="curve" smooth="yes"/>
      <point x="442" y="-105"/>
      <point x="478" y="-58"/>
      <point x="517" y="-18" type="curve"/>
      <point x="790" y="-15"/>
      <point x="1036" y="233"/>
      <point x="1036" y="505" type="curve" smooth="yes"/>
      <point x="1036" y="738"/>
      <point x="856" y="918"/>
      <point x="622" y="918" type="curve" smooth="yes"/>
      <point x="347" y="918"/>
      <point x="98" y="669"/>
      <point x="98" y="395" type="curve" smooth="yes"/>
      <point x="98" y="192"/>
      <point x="235" y="29"/>
      <point x="425" y="-9" type="curve"/>
      <point x="372" y="-56"/>
      <point x="338" y="-119"/>
      <point x="338" y="-178" type="curve" smooth="yes"/>
      <point x="338" y="-254"/>
      <point x="395" y="-304"/>
    </contour>
    <contour>
      <point x="523" y="90" type="curve" smooth="yes"/>
      <point x="349" y="90"/>
      <point x="216" y="225"/>
      <point x="216" y="403" type="curve" smooth="yes"/>
      <point x="216" y="616"/>
      <point x="404" y="810"/>
      <point x="611" y="810" type="curve" smooth="yes"/>
      <point x="785" y="810"/>
      <point x="918" y="675"/>
      <point x="918" y="497" type="curve" smooth="yes"/>
      <point x="918" y="284"/>
      <point x="730" y="90"/>
    </contour>
  </outline>
</glyph>
<glyph name="oogonek" format="2">
  <advance width="740"/>
  <unicode hex="01EB"/>
  <anchor x="445" y="600" name="top"/>
  <outline>
    <contour>
      <point x="381" y="-312" type="curve"/>
      <point x="403" y="-219" type="line"/>
      <point x="352" y="-219"/>
      <point x="316" y="-195"/>
      <point x="316" y="-134" type="curve" smooth="yes"/>
      <point x="316" y="-87"/>
      <point x="336" y="-51"/>
      <point x="368" y="-10" type="curve"/>
      <point x="539" y="9"/>
      <point x="686" y="165"/>
      <point x="686" y="337" type="curve" smooth="yes"/>
      <point x="686" y="494"/>
      <point x="562" y="612"/>
      <point x="407" y="612" type="curve" smooth="yes"/>
      <point x="221" y="612"/>
      <point x="54" y="447"/>
      <point x="54" y="263" type="curve" smooth="yes"/>
      <point x="54" y="127"/>
      <point x="147" y="21"/>
      <point x="272" y="-6" type="curve"/>
      <point x="236" y="-54"/>
      <point x="216" y="-102"/>
      <point x="216" y="-153" type="curve" smooth="yes"/>
      <point x="216" y="-254"/>
      <point x="294" y="-312"/>
    </contour>
    <contour>
      <point x="344" y="90" type="curve" smooth="yes"/>
      <point x="238" y="90"/>
      <point x="164" y="173"/>
      <point x="164" y="274" type="curve" smooth="yes"/>
      <point x="164" y="398"/>
      <point x="275" y="510"/>
      <point x="396" y="510" type="curve" smooth="yes"/>
      <point x="502" y="510"/>
      <point x="576" y="427"/>
      <point x="576" y="326" type="curve" smooth="yes"/>
      <point x="576" y="202"/>
      <point x="465" y="90"/>
    </contour>
  </outline>
</glyph>
<glyph name="jdotless" format="2">
  <advance width="300"/>
  <unicode hex="0237"/>
  <anchor x="5" y="-300" name="bottom"/>
  <anchor x="225" y="600" name="top"/>
  <outline>
    <contour>
      <point x="-120" y="-312" type="line"/>
      <point x="-22" y="-312"/>
      <point x="68" y="-244"/>
      <point x="98" y="-124" type="curve" smooth="yes"/>
      <point x="279" y="600" type="line"/>
      <point x="171" y="600" type="line"/>
      <point x="-9" y="-122" type="line" smooth="yes"/>
      <point x="-27" y="-195"/>
      <point x="-71" y="-219"/>
      <point x="-120" y="-219" type="curve"/>
    </contour>
  </outline>
</glyph>
<glyph name="schwa" format="2">
  <advance width="710"/>
  <unicode hex="0259"/>
  <outline>
    <contour>
      <point x="291" y="-12" type="curve" smooth="yes"/>
      <point x="488" y="-12"/>
      <point x="656" y="153"/>
      <point x="656" y="337" type="curve" smooth="yes"/>
      <point x="656" y="494"/>
      <point x="533" y="612"/>
      <point x="369" y="612" type="curve" smooth="yes"/>
      <point x="290" y="612"/>
      <point x="218" y="585"/>
      <point x="159" y="541" type="curve"/>
      <point x="159" y="396" type="line"/>
      <point x="201" y="463"/>
      <point x="276" y="510"/>
      <point x="360" y="510" type="curve" smooth="yes"/>
      <point x="471" y="510"/>
      <point x="545" y="428"/>
      <point x="546" y="323" type="curve"/>
      <point x="513" y="327"/>
      <point x="480" y="330"/>
      <point x="447" y="330" type="curve" smooth="yes"/>
      <point x="55" y="330" type="line"/>
      <point x="44" y="286" type="line" smooth="yes"/>
      <point x="6" y="132"/>
      <point x="107" y="-12"/>
    </contour>
    <contour>
      <point x="310" y="84" type="curve" smooth="yes"/>
      <point x="205" y="84"/>
      <point x="137" y="154"/>
      <point x="141" y="245" type="curve"/>
      <point x="169" y="242"/>
      <point x="197" y="240"/>
      <point x="226" y="240" type="curve" smooth="yes"/>
      <point x="425" y="240" type="line" smooth="yes"/>
      <point x="462" y="240"/>
      <point x="501" y="243"/>
      <point x="540" y="249" type="curve"/>
      <point x="508" y="156"/>
      <point x="417" y="84"/>
    </contour>
  </outline>
</glyph>
<glyph name="ezh" format="2">
  <advance width="660"/>
  <unicode hex="0292"/>
  <anchor x="180" y="-300" name="bottom"/>
  <anchor x="391" y="600" name="top"/>
  <outline>
    <contour>
      <point x="187" y="-312" type="curve" smooth="yes"/>
      <point x="377" y="-312"/>
      <point x="538" y="-148"/>
      <point x="538" y="29" type="curve" smooth="yes"/>
      <point x="538" y="145"/>
      <point x="466" y="239"/>
      <point x="360" y="274" type="curve"/>
      <point x="617" y="598" type="line"/>
      <point x="617" y="600" type="line"/>
      <point x="173" y="600" type="line"/>
      <point x="150" y="504" type="line"/>
      <point x="423" y="504" type="line"/>
      <point x="173" y="186" type="line"/>
      <point x="174" y="184" type="line"/>
      <point x="195" y="192"/>
      <point x="221" y="198"/>
      <point x="248" y="198" type="curve" smooth="yes"/>
      <point x="354" y="198"/>
      <point x="429" y="117"/>
      <point x="429" y="19" type="curve" smooth="yes"/>
      <point x="429" y="-99"/>
      <point x="324" y="-210"/>
      <point x="198" y="-210" type="curve" smooth="yes"/>
      <point x="83" y="-210"/>
      <point x="16" y="-119"/>
      <point x="21" y="-5" type="curve"/>
      <point x="-75" y="-126" type="line"/>
      <point x="-37" y="-247"/>
      <point x="76" y="-312"/>
    </contour>
  </outline>
</glyph>
<glyph name="gravecomb" format="2">
  <unicode hex="0300"/>
  <anchor x="501" y="600" name="_top"/>
  <anchor x="455" y="888" name="top"/>
  <outline>
    <contour>
      <point x="484" y="690" type="line"/>
      <point x="563" y="690" type="line"/>
      <point x="510" y="888" type="line"/>
      <point x="400" y="888" type="line"/>
    </contour>
  </outline>
</glyph>
<glyph name="acutecomb" format="2">
  <unicode hex="0301"/>
  <anchor x="373" y="600" name="_top"/>
  <anchor x="543" y="870" name="top"/>
  <outline>
    <contour>
      <point x="349" y="690" type="line"/>
      <point x="440" y="690" type="line"/>
      <point x="611" y="870" type="line"/>
      <point x="475" y="870" type="line"/>
    </contour>
  </outline>
</glyph>
<glyph name="circumflexcomb" format="2">
  <unicode hex="0302"/>
  <anchor x="435" y="600" name="_top"/>
  <anchor x="512" y="909" name="top"/>
  <outline>
    <contour>
      <point x="268" y="690" type="line"/>
      <point x="386" y="690" type="line"/>
      <point x="421" y="718"/>
      <point x="448" y="746"/>
      <point x="487" y="787" type="curve"/>
      <point x="506" y="746"/>
      <point x="519" y="718"/>
      <point x="540" y="690" type="curve"/>
      <point x="646" y="690" type="line"/>
      <point x="513" y="909" type="line"/>
      <point x="511" y="909" type="line"/>
    </contour>
  </outline>
</glyph>
<glyph name="macroncomb" format="2">
  <unicode hex="0304"/>
  <anchor x="435" y="600" name="_top"/>
  <anchor x="490" y="822" name="top"/>
  <outline>
    <contour>
      <point x="292" y="738" type="line"/>
      <point x="646" y="738" type="line"/>
      <point x="666" y="822" type="line"/>
      <point x="312" y="822" type="line"/>
    </contour>
  </outline>
</glyph>
<glyph name="brevecomb" format="2">
  <unicode hex="0306"/>
  <anchor x="435" y="600" name="_top"/>
  <anchor x="496" y="849" name="top"/>
  <outline>
    <contour>
      <point x="480" y="675" type="curve" smooth="yes"/>
      <point x="580" y="675"/>
      <point x="663" y="749"/>
      <point x="678" y="849" type="curve"/>
      <point x="589" y="849" type="line"/>
      <point x="586" y="803"/>
      <point x="532" y="757"/>
      <point x="483" y="757" type="curve" smooth="yes"/>
      <point x="434" y="757"/>
      <point x="397" y="800"/>
      <point x="404" y="849" type="curve"/>
      <point x="315" y="849" type="line"/>
      <point x="305" y="750"/>
      <point x="376" y="675"/>
    </contour>
  </outline>
</glyph>
<glyph name="dotaccentcomb" format="2">
  <unicode hex="0307"/>
  <anchor x="435" y="600" name="_top"/>
  <anchor x="498" y="852" name="top"/>
  <outline>
    <contour>
      <point x="472" y="708" type="curve" smooth="yes"/>
      <point x="514" y="708"/>
      <point x="552" y="746"/>
      <point x="552" y="789" type="curve" smooth="yes"/>
      <point x="552" y="825"/>
      <point x="524" y="852"/>
      <point x="488" y="852" type="curve" smooth="yes"/>
      <point x="446" y="852"/>
      <point x="408" y="814"/>
      <point x="408" y="771" type="curve" smooth="yes"/>
      <point x="408" y="735"/>
      <point x="436" y="708"/>
    </contour>
  </outline>
</glyph>
<glyph name="caroncomb" format="2">
  <unicode hex="030C"/>
  <anchor x="435" y="600" name="_top"/>
  <anchor x="509" y="900" name="top"/>
  <outline>
    <contour>
      <point x="454" y="681" type="line"/>
      <point x="456" y="681" type="line"/>
      <point x="698" y="900" type="line"/>
      <point x="580" y="900" type="line"/>
      <point x="545" y="872"/>
      <point x="518" y="844"/>
      <point x="479" y="803" type="curve"/>
      <point x="460" y="844"/>
      <point x="447" y="872"/>
      <point x="426" y="900" type="curve"/>
      <point x="320" y="900" type="line"/>
    </contour>
  </outline>
</glyph>
<glyph name="dblgravecomb" format="2">
  <unicode hex="030F"/>
  <anchor x="514" y="600" name="_top"/>
  <anchor x="441" y="900" name="top"/>
  <outline>
    <contour>
      <point x="583" y="690" type="line"/>
      <point x="658" y="690" type="line"/>
      <point x="604" y="900" type="line"/>
      <point x="489" y="900" type="line"/>
    </contour>
    <contour>
      <point x="371" y="690" type="line"/>
      <point x="446" y="690" type="line"/>
      <point x="392" y="900" type="line"/>
      <point x="277" y="900" type="line"/>
    </contour>
  </outline>
</glyph>
<glyph name="breveinvertedcomb" format="2">
  <unicode hex="0311"/>
  <anchor x="435" y="600" name="_top"/>
  <anchor x="497" y="849" name="top"/>
  <outline>
    <contour>
      <point x="272" y="675" type="curve"/>
      <point x="361" y="675" type="line"/>
      <point x="364" y="721"/>
      <point x="418" y="767"/>
      <point x="467" y="767" type="curve" smooth="yes"/>
      <point x="516" y="767"/>
      <point x="553" y="724"/>
      <point x="546" y="675" type="curve"/>
      <point x="635" y="675" type="line"/>
      <point x="645" y="774"/>
      <point x="574" y="849"/>
      <point x="470" y="849" type="curve" smooth="yes"/>
      <point x="370" y="849"/>
      <point x="287" y="775"/>
    </contour>
  </outline>
</glyph>
<glyph name="horncomb" format="2">
  <unicode hex="031B"/>
  <anchor x="342" y="600" name="_topright"/>
  <outline>
    <contour>
      <point x="341" y="398" type="curve" smooth="yes"/>
      <point x="454" y="398"/>
      <point x="539" y="512"/>
      <point x="539" y="613" type="curve" smooth="yes"/>
      <point x="539" y="628"/>
      <point x="537" y="644"/>
      <point x="531" y="660" type="curve"/>
      <point x="441" y="660" type="line"/>
      <point x="446" y="644"/>
      <point x="448" y="627"/>
      <point x="448" y="612" type="curve" smooth="yes"/>
      <point x="448" y="554"/>
      <point x="416" y="476"/>
      <point x="342" y="476" type="curve" smooth="yes"/>
      <point x="310" y="476"/>
      <point x="285" y="494"/>
      <point x="277" y="529" type="curve"/>
      <point x="253" y="433" type="line"/>
      <point x="274" y="410"/>
      <point x="305" y="398"/>
    </contour>
  </outline>
</glyph>
<glyph name="dieresisbelowcomb" format="2">
  <unicode hex="0324"/>
  <anchor x="285" y="0" name="_bottom"/>
  <anchor x="240" y="-249" name="bottom"/>
  <outline>
    <contour>
      <point x="352" y="-249" type="curve" smooth="yes"/>
      <point x="393" y="-249"/>
      <point x="429" y="-213"/>
      <point x="429" y="-171" type="curve" smooth="yes"/>
      <point x="429" y="-137"/>
      <point x="402" y="-111"/>
      <point x="368" y="-111" type="curve" smooth="yes"/>
      <point x="327" y="-111"/>
      <point x="291" y="-147"/>
      <point x="291" y="-189" type="curve" smooth="yes"/>
      <point x="291" y="-223"/>
      <point x="318" y="-249"/>
    </contour>
    <contour>
      <point x="112" y="-249" type="curve" smooth="yes"/>
      <point x="153" y="-249"/>
      <point x="189" y="-213"/>
      <point x="189" y="-171" type="curve" smooth="yes"/>
      <point x="189" y="-137"/>
      <point x="162" y="-111"/>
      <point x="128" y="-111" type="curve" smooth="yes"/>
      <point x="87" y="-111"/>
      <point x="51" y="-147"/>
      <point x="51" y="-189" type="curve" smooth="yes"/>
      <point x="51" y="-223"/>
      <point x="78" y="-249"/>
    </contour>
  </outline>
</glyph>
<glyph name="cedillacomb" format="2">
  <unicode hex="0327"/>
  <anchor x="312" y="0" name="_bottom"/>
  <anchor x="152" y="-180" name="bottom"/>
  <outline>
    <contour>
      <point x="80" y="-180" type="line"/>
      <point x="223" y="-180" type="line"/>
      <point x="366" y="0" type="line"/>
      <point x="258" y="0" type="line"/>
    </contour>
  </outline>
</glyph>
<glyph name="strokeshortcomb" format="2">
  <unicode hex="0335"/>
  <anchor x="340" y="300" name="_center"/>
  <outline>
    <contour>
      <point x="72" y="266" type="line"/>
      <point x="452" y="266" type="line"/>
      <point x="468" y="334" type="line"/>
      <point x="88" y="334" type="line"/>
    </contour>
  </outline>
</glyph>
<glyph name="slashshortcomb" format="2">
  <unicode hex="0337"/>
  <anchor x="278" y="300" name="_center"/>
  <outline>
    <contour>
      <point x="70" y="221" type="line"/>
      <point x="101" y="166" type="line"/>
      <point x="478" y="379" type="line"/>
      <point x="447" y="434" type="line"/>
    </contour>
  </outline>
</glyph>
<glyph name="slashlongcomb" format="2">
  <unicode hex="0338"/>
  <anchor x="278" y="300" name="_center"/>
  <outline>
    <contour>
      <point x="-13" y="13" type="line"/>
      <point x="611" y="527" type="line"/>
      <point x="564" y="587" type="line"/>
      <point x="-60" y="73" type="line"/>
    </contour>
  </outline>
</glyph>
<glyph name="pi" format="2">
  <advance width="720"/>
  <unicode hex="03C0"/>
  <outline>
    <contour>
      <point x="21" y="0" type="line"/>
      <point x="129" y="0" type="line"/>
      <point x="254" y="498" type="line"/>
      <point x="566" y="498" type="line"/>
      <point x="441" y="0" type="line"/>
      <point x="549" y="0" type="line"/>
      <point x="700" y="600" type="line"/>
      <point x="172" y="600" type="line"/>
    </contour>
  </outline>
</glyph>
<glyph name="Germandbls" format="2">
  <advance width="990"/>
  <unicode hex="1E9E"/>
  <outline>
    <contour>
      <point x="580" y="-12" type="curve" smooth="yes"/>
      <point x="761" y="-12"/>
      <point x="928" y="157"/>
      <point x="928" y="338" type="curve" smooth="yes"/>
      <point x="928" y="455"/>
      <point x="859" y="548"/>
      <point x="756" y="585" type="curve"/>
      <point x="1002" y="899" type="line"/>
      <point x="1002" y="900" type="line"/>
      <point x="288" y="900" type="line"/>
      <point x="63" y="0" type="line"/>
      <point x="177" y="0" type="line"/>
      <point x="379" y="804" type="line"/>
      <point x="809" y="804" type="line"/>
      <point x="566" y="494" type="line"/>
      <point x="567" y="493" type="line"/>
      <point x="586" y="501"/>
      <point x="610" y="506"/>
      <point x="635" y="506" type="curve" smooth="yes"/>
      <point x="739" y="506"/>
      <point x="813" y="426"/>
      <point x="813" y="328" type="curve" smooth="yes"/>
      <point x="813" y="211"/>
      <point x="708" y="96"/>
      <point x="590" y="96" type="curve" smooth="yes"/>
      <point x="468" y="96"/>
      <point x="398" y="202"/>
      <point x="410" y="304" type="curve"/>
      <point x="310" y="180" type="line"/>
      <point x="348" y="58"/>
      <point x="461" y="-12"/>
    </contour>
  </outline>
</glyph>
<glyph name="dblverticalbar" format="2">
  <advance width="480"/>
  <unicode hex="2016"/>
  <outline>
    <contour>
      <point x="327" y="-180" type="line"/>
      <point x="393" y="-180" type="line"/>
      <point x="393" y="960" type="line"/>
      <point x="327" y="960" type="line"/>
    </contour>
    <contour>
      <point x="87" y="-180" type="line"/>
      <point x="153" y="-180" type="line"/>
      <point x="153" y="960" type="line"/>
      <point x="87" y="960" type="line"/>
    </contour>
  </outline>
</glyph>
<glyph name="quoteright" format="2">
  <advance width="270"/>
  <unicode hex="2019"/>
  <outline>
    <contour>
      <point x="81" y="600" type="curve"/>
      <point x="201" y="600" type="line"/>
      <point x="277" y="685"/>
      <point x="335" y="786"/>
      <point x="363" y="900" type="curve"/>
      <point x="255" y="900" type="line"/>
      <point x="223" y="772"/>
      <point x="159" y="674"/>
    </contour>
  </outline>
</glyph>
<glyph name="daggerdbl" format="2">
  <advance width="600"/>
  <unicode hex="2021"/>
  <outline>
    <contour>
      <point x="171" y="0" type="line"/>
      <point x="279" y="0" type="line"/>
      <point x="328" y="228" type="line"/>
      <point x="509" y="225" type="line"/>
      <point x="531" y="315" type="line"/>
      <point x="351" y="313" type="line"/>
      <point x="387" y="450" type="line"/>
      <point x="418" y="587" type="line"/>
      <point x="597" y="585" type="line"/>
      <point x="619" y="675" type="line"/>
      <point x="438" y="672" type="line"/>
      <point x="501" y="900" type="line"/>
      <point x="393" y="900" type="line"/>
      <point x="344" y="672" type="line"/>
      <point x="163" y="675" type="line"/>
      <point x="141" y="585" type="line"/>
      <point x="321" y="587" type="line"/>
      <point x="285" y="450" type="line"/>
      <point x="254" y="313" type="line"/>
      <point x="75" y="315" type="line"/>
      <point x="53" y="225" type="line"/>
      <point x="234" y="228" type="line"/>
    </contour>
  </outline>
</glyph>
<glyph name="bullet" format="2">
  <advance width="480"/>
  <unicode hex="2022"/>
  <outline>
    <contour>
      <point x="258" y="294" type="curve" smooth="yes"/>
      <point x="354" y="294"/>
      <point x="433" y="377"/>
      <point x="433" y="468" type="curve" smooth="yes"/>
      <point x="433" y="545"/>
      <point x="376" y="606"/>
      <point x="296" y="606" type="curve" smooth="yes"/>
      <point x="200" y="606"/>
      <point x="121" y="522"/>
      <point x="121" y="430" type="curve" smooth="yes"/>
      <point x="121" y="352"/>
      <point x="178" y="294"/>
    </contour>
  </outline>
</glyph>
<glyph name="ellipsis" format="2">
  <advance width="1440"/>
  <unicode hex="2026"/>
  <outline>
    <contour>
      <point x="1131" y="-12" type="curve" smooth="yes"/>
      <point x="1176" y="-12"/>
      <point x="1215" y="27"/>
      <point x="1215" y="72" type="curve" smooth="yes"/>
      <point x="1215" y="110"/>
      <point x="1185" y="138"/>
      <point x="1149" y="138" type="curve" smooth="yes"/>
      <point x="1104" y="138"/>
      <point x="1065" y="99"/>
      <point x="1065" y="54" type="curve" smooth="yes"/>
      <point x="1065" y="17"/>
      <point x="1095" y="-12"/>
    </contour>
    <contour>
      <point x="171" y="-12" type="curve" smooth="yes"/>
      <point x="216" y="-12"/>
      <point x="255" y="27"/>
      <point x="255" y="72" type="curve" smooth="yes"/>
      <point x="255" y="110"/>
      <point x="225" y="138"/>
      <point x="189" y="138" type="curve" smooth="yes"/>
      <point x="144" y="138"/>
      <point x="105" y="99"/>
      <point x="105" y="54" type="curve" smooth="yes"/>
      <point x="105" y="17"/>
      <point x="135" y="-12"/>
    </contour>
    <contour>
      <point x="651" y="-12" type="curve" smooth="yes"/>
      <point x="696" y="-12"/>
      <point x="735" y="27"/>
      <point x="735" y="72" type="curve" smooth="yes"/>
      <point x="735" y="110"/>
      <point x="705" y="138"/>
      <point x="669" y="138" type="curve" smooth="yes"/>
      <point x="624" y="138"/>
      <point x="585" y="99"/>
      <point x="585" y="54" type="curve" smooth="yes"/>
      <point x="585" y="17"/>
      <point x="615" y="-12"/>
    </contour>
  </outline>
</glyph>
<glyph name="minute" format="2">
  <advance width="270"/>
  <unicode hex="2032"/>
  <outline>
    <contour>
      <point x="70" y="570" type="line"/>
      <point x="117" y="570" type="line"/>
      <point x="440" y="900" type="line"/>
      <point x="281" y="900" type="line"/>
    </contour>
  </outline>
</glyph>
<glyph name="guilsinglleft" format="2">
  <advance width="360"/>
  <unicode hex="2039"/>
  <outline>
    <contour>
      <point x="176" y="120" type="line"/>
      <point x="298" y="120" type="line"/>
      <point x="141" y="300" type="line"/>
      <point x="374" y="480" type="line"/>
      <point x="238" y="480" type="line"/>
      <point x="13" y="306" type="line"/>
    </contour>
  </outline>
</glyph>
<glyph name="guilsinglright" format="2">
  <advance width="360"/>
  <unicode hex="203A"/>
  <outline>
    <contour>
      <point x="-14" y="120" type="line"/>
      <point x="122" y="120" type="line"/>
      <point x="347" y="294" type="line"/>
      <point x="184" y="480" type="line"/>
      <point x="62" y="480" type="line"/>
      <point x="219" y="300" type="line"/>
    </contour>
  </outline>
</glyph>
<glyph name="fraction" format="2">
  <advance width="120"/>
  <unicode hex="2044"/>
  <outline>
    <contour>
      <point x="-364" y="0" type="line"/>
      <point x="-264" y="0" type="line"/>
      <point x="556" y="900" type="line"/>
      <point x="456" y="900" type="line"/>
    </contour>
  </outline>
</glyph>
<glyph name="commercialMinusSign" format="2">
  <advance width="750"/>
  <unicode hex="2052"/>
  <outline>
    <contour>
      <point x="33" y="0" type="line"/>
      <point x="125" y="0" type="line"/>
      <point x="793" y="900" type="line"/>
      <point x="701" y="900" type="line"/>
    </contour>
    <contour>
      <point x="246" y="582" type="curve" smooth="yes"/>
      <point x="292" y="582"/>
      <point x="333" y="623"/>
      <point x="333" y="669" type="curve" smooth="yes"/>
      <point x="333" y="709"/>
      <point x="302" y="738"/>
      <point x="264" y="738" type="curve" smooth="yes"/>
      <point x="218" y="738"/>
      <point x="177" y="697"/>
      <point x="177" y="651" type="curve" smooth="yes"/>
      <point x="177" y="612"/>
      <point x="208" y="582"/>
    </contour>
    <contour>
      <point x="562" y="162" type="curve" smooth="yes"/>
      <point x="608" y="162"/>
      <point x="649" y="203"/>
      <point x="649" y="249" type="curve" smooth="yes"/>
      <point x="649" y="289"/>
      <point x="618" y="318"/>
      <point x="580" y="318" type="curve" smooth="yes"/>
      <point x="534" y="318"/>
      <point x="493" y="277"/>
      <point x="493" y="231" type="curve" smooth="yes"/>
      <point x="493" y="192"/>
      <point x="524" y="162"/>
    </contour>
  </outline>
</glyph>
<glyph name="colonsign" format="2">
  <advance width="750"/>
  <unicode hex="20A1"/>
  <outline>
    <contour>
      <point x="165" y="-120" type="line"/>
      <point x="249" y="-120" type="line"/>
      <point x="292" y="13" type="line"/>
      <point x="319" y="0"/>
      <point x="349" y="-8"/>
      <point x="381" y="-11" type="curve"/>
      <point x="345" y="-120" type="line"/>
      <point x="429" y="-120" type="line"/>
      <point x="465" y="-9" type="line"/>
      <point x="523" y="0"/>
      <point x="575" y="24"/>
      <point x="626" y="63" type="curve"/>
      <point x="627" y="206" type="line"/>
      <point x="568" y="131"/>
      <point x="498" y="90"/>
      <point x="422" y="90" type="curve" smooth="yes"/>
      <point x="309" y="90"/>
      <point x="234" y="191"/>
      <point x="234" y="337" type="curve" smooth="yes"/>
      <point x="234" y="568"/>
      <point x="393" y="806"/>
      <point x="553" y="806" type="curve" smooth="yes"/>
      <point x="637" y="806"/>
      <point x="699" y="756"/>
      <point x="727" y="668" type="curve"/>
      <point x="792" y="797" type="line"/>
      <point x="772" y="824"/>
      <point x="749" y="847"/>
      <point x="721" y="865" type="curve"/>
      <point x="763" y="990" type="line"/>
      <point x="679" y="990" type="line"/>
      <point x="648" y="898" type="line"/>
      <point x="622" y="905"/>
      <point x="593" y="909"/>
      <point x="556" y="909" type="curve"/>
      <point x="583" y="990" type="line"/>
      <point x="499" y="990" type="line"/>
      <point x="467" y="893" type="line"/>
      <point x="277" y="829"/>
      <point x="120" y="586"/>
      <point x="120" y="332" type="curve" smooth="yes"/>
      <point x="120" y="216"/>
      <point x="158" y="120"/>
      <point x="224" y="59" type="curve"/>
    </contour>
  </outline>
</glyph>
<glyph name="naira" format="2">
  <advance width="750"/>
  <unicode hex="20A6"/>
  <outline>
    <contour>
      <point x="540" y="-30" type="line"/>
      <point x="542" y="-30" type="line"/>
      <point x="628" y="318" type="line"/>
      <point x="724" y="318" type="line"/>
      <point x="744" y="402" type="line"/>
      <point x="648" y="402" type="line"/>
      <point x="672" y="498" type="line"/>
      <point x="768" y="498" type="line"/>
      <point x="788" y="582" type="line"/>
      <point x="692" y="582" type="line"/>
      <point x="771" y="900" type="line"/>
      <point x="675" y="900" type="line"/>
      <point x="523" y="284" type="line"/>
      <point x="282" y="930" type="line"/>
      <point x="280" y="930" type="line"/>
      <point x="194" y="582" type="line"/>
      <point x="98" y="582" type="line"/>
      <point x="78" y="498" type="line"/>
      <point x="174" y="498" type="line"/>
      <point x="150" y="402" type="line"/>
      <point x="54" y="402" type="line"/>
      <point x="34" y="318" type="line"/>
      <point x="130" y="318" type="line"/>
      <point x="51" y="0" type="line"/>
      <point x="147" y="0" type="line"/>
      <point x="301" y="617" type="line"/>
    </contour>
  </outline>
</glyph>
<glyph name="rupee" format="2">
  <advance width="750"/>
  <unicode hex="20A8"/>
  <outline>
    <contour>
      <point x="-17" y="0" type="line"/>
      <point x="79" y="0" type="line"/>
      <point x="182" y="410" type="line"/>
      <point x="257" y="410" type="line"/>
      <point x="287" y="0" type="line"/>
      <point x="381" y="0" type="line"/>
      <point x="351" y="422" type="line"/>
      <point x="448" y="473"/>
      <point x="509" y="585"/>
      <point x="509" y="701" type="curve" smooth="yes"/>
      <point x="509" y="822"/>
      <point x="448" y="900"/>
      <point x="344" y="900" type="curve" smooth="yes"/>
      <point x="209" y="900" type="line"/>
    </contour>
    <contour>
      <point x="205" y="501" type="line"/>
      <point x="280" y="804" type="line"/>
      <point x="335" y="804" type="line" smooth="yes"/>
      <point x="385" y="804"/>
      <point x="413" y="762"/>
      <point x="413" y="693" type="curve" smooth="yes"/>
      <point x="413" y="589"/>
      <point x="348" y="501"/>
      <point x="265" y="501" type="curve" smooth="yes"/>
    </contour>
    <contour>
      <point x="519" y="-13" type="curve" smooth="yes"/>
      <point x="609" y="-13"/>
      <point x="681" y="75"/>
      <point x="681" y="185" type="curve" smooth="yes"/>
      <point x="681" y="309"/>
      <point x="588" y="370"/>
      <point x="588" y="441" type="curve" smooth="yes"/>
      <point x="588" y="478"/>
      <point x="613" y="515"/>
      <point x="646" y="515" type="curve" smooth="yes"/>
      <point x="675" y="515"/>
      <point x="695" y="485"/>
      <point x="704" y="435" type="curve"/>
      <point x="760" y="544" type="line"/>
      <point x="746" y="589"/>
      <point x="704" y="614"/>
      <point x="657" y="614" type="curve" smooth="yes"/>
      <point x="557" y="614"/>
      <point x="504" y="502"/>
      <point x="504" y="423" type="curve" smooth="yes"/>
      <point x="504" y="320"/>
      <point x="596" y="249"/>
      <point x="596" y="171" type="curve" smooth="yes"/>
      <point x="596" y="130"/>
      <point x="571" y="87"/>
      <point x="533" y="87" type="curve" smooth="yes"/>
      <point x="500" y="87"/>
      <point x="477" y="119"/>
      <point x="468" y="173" type="curve"/>
      <point x="411" y="63" type="line"/>
      <point x="428" y="9"/>
      <point x="474" y="-13"/>
    </contour>
  </outline>
</glyph>
<glyph name="won" format="2">
  <advance width="750"/>
  <unicode hex="20A9"/>
  <outline>
    <contour>
      <point x="150" y="-31" type="line"/>
      <point x="152" y="-31" type="line"/>
      <point x="398" y="484" type="line" smooth="yes"/>
      <point x="415" y="519"/>
      <point x="431" y="551"/>
      <point x="453" y="604" type="curve"/>
      <point x="448" y="551"/>
      <point x="447" y="518"/>
      <point x="447" y="483" type="curve" smooth="yes"/>
      <point x="440" y="-31" type="line"/>
      <point x="442" y="-31" type="line"/>
      <point x="610" y="318" type="line"/>
      <point x="727" y="318" type="line"/>
      <point x="747" y="402" type="line"/>
      <point x="650" y="402" type="line"/>
      <point x="697" y="498" type="line"/>
      <point x="771" y="498" type="line"/>
      <point x="792" y="582" type="line"/>
      <point x="738" y="582" type="line"/>
      <point x="891" y="900" type="line"/>
      <point x="796" y="900" type="line"/>
      <point x="573" y="438" type="line" smooth="yes"/>
      <point x="550" y="390"/>
      <point x="535" y="343"/>
      <point x="507" y="267" type="curve"/>
      <point x="518" y="343"/>
      <point x="523" y="390"/>
      <point x="524" y="438" type="curve" smooth="yes"/>
      <point x="530" y="930" type="line"/>
      <point x="528" y="930" type="line"/>
      <point x="291" y="438" type="line" smooth="yes"/>
      <point x="267" y="387"/>
      <point x="251" y="340"/>
      <point x="225" y="267" type="curve"/>
      <point x="234" y="340"/>
      <point x="243" y="387"/>
      <point x="243" y="438" type="curve" smooth="yes"/>
      <point x="247" y="900" type="line"/>
      <point x="159" y="900" type="line"/>
      <point x="156" y="582" type="line"/>
      <point x="102" y="582" type="line"/>
      <point x="81" y="498" type="line"/>
      <point x="155" y="498" type="line"/>
      <point x="154" y="402" type="line"/>
      <point x="57" y="402" type="line"/>
      <point x="37" y="318" type="line"/>
      <point x="154" y="318" type="line"/>
    </contour>
  </outline>
</glyph>
<glyph name="sheqel" format="2">
  <advance width="750"/>
  <unicode hex="20AA"/>
  <outline>
    <contour>
      <point x="393" y="0" type="curve" smooth="yes"/>
      <point x="603" y="0" type="line"/>
      <point x="828" y="900" type="line"/>
      <point x="738" y="900" type="line"/>
      <point x="534" y="84" type="line"/>
      <point x="400" y="84" type="line" smooth="yes"/>
      <point x="321" y="84"/>
      <point x="277" y="139"/>
      <point x="297" y="220" type="curve" smooth="yes"/>
      <point x="423" y="720" type="line"/>
      <point x="333" y="720" type="line"/>
      <point x="207" y="219" type="line" smooth="yes"/>
      <point x="173" y="84"/>
      <point x="266" y="0"/>
    </contour>
    <contour>
      <point x="-27" y="0" type="line"/>
      <point x="63" y="0" type="line"/>
      <point x="267" y="816" type="line"/>
      <point x="401" y="816" type="line" smooth="yes"/>
      <point x="480" y="816"/>
      <point x="524" y="761"/>
      <point x="504" y="680" type="curve" smooth="yes"/>
      <point x="378" y="180" type="line"/>
      <point x="468" y="180" type="line"/>
      <point x="594" y="681" type="line" smooth="yes"/>
      <point x="628" y="816"/>
      <point x="535" y="900"/>
      <point x="408" y="900" type="curve" smooth="yes"/>
      <point x="198" y="900" type="line"/>
    </contour>
  </outline>
</glyph>
<glyph name="dong" format="2">
  <advance width="750"/>
  <unicode hex="20AB"/>
  <outline>
    <contour>
      <point x="303" y="112" type="curve" smooth="yes"/>
      <point x="371" y="112"/>
      <point x="433" y="143"/>
      <point x="480" y="190" type="curve"/>
      <point x="462" y="120" type="line"/>
      <point x="558" y="120" type="line"/>
      <point x="721" y="771" type="line"/>
      <point x="836" y="771" type="line"/>
      <point x="855" y="849" type="line"/>
      <point x="740" y="849" type="line"/>
      <point x="768" y="960" type="line"/>
      <point x="672" y="960" type="line"/>
      <point x="644" y="849" type="line"/>
      <point x="448" y="849" type="line"/>
      <point x="429" y="771" type="line"/>
      <point x="625" y="771" type="line"/>
      <point x="575" y="572" type="line"/>
      <point x="532" y="632"/>
      <point x="463" y="668"/>
      <point x="382" y="668" type="curve" smooth="yes"/>
      <point x="220" y="668"/>
      <point x="74" y="521"/>
      <point x="74" y="356" type="curve" smooth="yes"/>
      <point x="74" y="217"/>
      <point x="179" y="112"/>
    </contour>
    <contour>
      <point x="17" y="-42" type="line"/>
      <point x="563" y="-42" type="line"/>
      <point x="583" y="42" type="line"/>
      <point x="37" y="42" type="line"/>
    </contour>
    <contour>
      <point x="334" y="205" type="curve" smooth="yes"/>
      <point x="241" y="205"/>
      <point x="177" y="279"/>
      <point x="177" y="367" type="curve" smooth="yes"/>
      <point x="177" y="476"/>
      <point x="274" y="575"/>
      <point x="381" y="575" type="curve" smooth="yes"/>
      <point x="473" y="575"/>
      <point x="538" y="501"/>
      <point x="538" y="413" type="curve" smooth="yes"/>
      <point x="538" y="304"/>
      <point x="440" y="205"/>
    </contour>
  </outline>
</glyph>
<glyph name="euro" format="2">
  <advance width="750"/>
  <unicode hex="20AC"/>
  <outline>
    <contour>
      <point x="453" y="-12" type="curve" smooth="yes"/>
      <point x="515" y="-12"/>
      <point x="571" y="10"/>
      <point x="626" y="52" type="curve"/>
      <point x="627" y="193" type="line"/>
      <point x="577" y="129"/>
      <point x="522" y="90"/>
      <point x="460" y="90" type="curve" smooth="yes"/>
      <point x="357" y="90"/>
      <point x="318" y="201"/>
      <point x="318" y="318" type="curve"/>
      <point x="544" y="318" type="line"/>
      <point x="564" y="402" type="line"/>
      <point x="326" y="402" type="line"/>
      <point x="330" y="433"/>
      <point x="337" y="466"/>
      <point x="346" y="498" type="curve"/>
      <point x="588" y="498" type="line"/>
      <point x="608" y="582" type="line"/>
      <point x="375" y="582" type="line"/>
      <point x="424" y="703"/>
      <point x="502" y="804"/>
      <point x="605" y="804" type="curve" smooth="yes"/>
      <point x="684" y="804"/>
      <point x="729" y="746"/>
      <point x="745" y="668" type="curve"/>
      <point x="813" y="800" type="line"/>
      <point x="765" y="875"/>
      <point x="692" y="906"/>
      <point x="617" y="906" type="curve" smooth="yes"/>
      <point x="451" y="906"/>
      <point x="328" y="754"/>
      <point x="263" y="582" type="curve"/>
      <point x="158" y="582" type="line"/>
      <point x="138" y="498" type="line"/>
      <point x="236" y="498" type="line"/>
      <point x="227" y="466"/>
      <point x="221" y="433"/>
      <point x="217" y="402" type="curve"/>
      <point x="114" y="402" type="line"/>
      <point x="94" y="318" type="line"/>
      <point x="210" y="318" type="line"/>
      <point x="210" y="134"/>
      <point x="293" y="-12"/>
    </contour>
  </outline>
</glyph>
<glyph name="kip" format="2">
  <advance width="750"/>
  <unicode hex="20AD"/>
  <outline>
    <contour>
      <point x="52" y="0" type="line"/>
      <point x="166" y="0" type="line"/>
      <point x="281" y="466" type="line"/>
      <point x="296" y="425"/>
      <point x="312" y="391"/>
      <point x="329" y="360" type="curve"/>
      <point x="514" y="0" type="line"/>
      <point x="636" y="0" type="line"/>
      <point x="480" y="300" type="line" smooth="yes"/>
      <point x="456" y="346"/>
      <point x="426" y="392"/>
      <point x="388" y="438" type="curve"/>
      <point x="664" y="438" type="line"/>
      <point x="685" y="522" type="line"/>
      <point x="428" y="522" type="line"/>
      <point x="487" y="568"/>
      <point x="540" y="614"/>
      <point x="587" y="660" type="curve" smooth="yes"/>
      <point x="830" y="900" type="line"/>
      <point x="694" y="900" type="line"/>
      <point x="389" y="600" type="line" smooth="yes"/>
      <point x="357" y="569"/>
      <point x="323" y="534"/>
      <point x="288" y="493" type="curve"/>
      <point x="388" y="900" type="line"/>
      <point x="274" y="900" type="line"/>
      <point x="181" y="522" type="line"/>
      <point x="115" y="522" type="line"/>
      <point x="94" y="438" type="line"/>
      <point x="160" y="438" type="line"/>
    </contour>
  </outline>
</glyph>
<glyph name="tugrik" format="2">
  <advance width="750"/>
  <unicode hex="20AE"/>
  <outline>
    <contour>
      <point x="242" y="0" type="line"/>
      <point x="356" y="0" type="line"/>
      <point x="439" y="332" type="line"/>
      <point x="650" y="385" type="line"/>
      <point x="671" y="469" type="line"/>
      <point x="460" y="416" type="line"/>
      <point x="484" y="512" type="line"/>
      <point x="695" y="565" type="line"/>
      <point x="715" y="649" type="line"/>
      <point x="506" y="597" type="line"/>
      <point x="556" y="798" type="line"/>
      <point x="814" y="798" type="line"/>
      <point x="839" y="900" type="line"/>
      <point x="209" y="900" type="line"/>
      <point x="184" y="798" type="line"/>
      <point x="442" y="798" type="line"/>
      <point x="384" y="566" type="line"/>
      <point x="176" y="514" type="line"/>
      <point x="155" y="430" type="line"/>
      <point x="363" y="482" type="line"/>
      <point x="339" y="386" type="line"/>
      <point x="131" y="334" type="line"/>
      <point x="111" y="250" type="line"/>
      <point x="318" y="302" type="line"/>
    </contour>
  </outline>
</glyph>
<glyph name="peso" format="2">
  <advance width="750"/>
  <unicode hex="20B1"/>
  <outline>
    <contour>
      <point x="51" y="0" type="line"/>
      <point x="165" y="0" type="line"/>
      <point x="242" y="308" type="line"/>
      <point x="356" y="308" type="line" smooth="yes"/>
      <point x="480" y="308"/>
      <point x="592" y="373"/>
      <point x="655" y="468" type="curve"/>
      <point x="732" y="468" type="line"/>
      <point x="752" y="552" type="line"/>
      <point x="694" y="552" type="line"/>
      <point x="704" y="587"/>
      <point x="706" y="614"/>
      <point x="706" y="648" type="curve"/>
      <point x="776" y="648" type="line"/>
      <point x="796" y="732" type="line"/>
      <point x="689" y="732" type="line"/>
      <point x="651" y="832"/>
      <point x="554" y="900"/>
      <point x="429" y="900" type="curve" smooth="yes"/>
      <point x="276" y="900" type="line"/>
      <point x="234" y="732" type="line"/>
      <point x="166" y="732" type="line"/>
      <point x="146" y="648" type="line"/>
      <point x="213" y="648" type="line"/>
      <point x="189" y="552" type="line"/>
      <point x="122" y="552" type="line"/>
      <point x="102" y="468" type="line"/>
      <point x="168" y="468" type="line"/>
    </contour>
    <contour>
      <point x="268" y="410" type="line"/>
      <point x="365" y="798" type="line"/>
      <point x="408" y="798" type="line" smooth="yes"/>
      <point x="521" y="798"/>
      <point x="592" y="723"/>
      <point x="592" y="626" type="curve" smooth="yes"/>
      <point x="592" y="509"/>
      <point x="489" y="410"/>
      <point x="358" y="410" type="curve" smooth="yes"/>
    </contour>
  </outline>
</glyph>
<glyph name="guarani" format="2">
  <advance width="750"/>
  <unicode hex="20B2"/>
  <outline>
    <contour>
      <point x="289" y="-120" type="line"/>
      <point x="373" y="-120" type="line"/>
      <point x="400" y="-13" type="line"/>
      <point x="475" y="-12"/>
      <point x="546" y="13"/>
      <point x="614" y="63" type="curve"/>
      <point x="718" y="480" type="line"/>
      <point x="420" y="480" type="line"/>
      <point x="395" y="378" type="line"/>
      <point x="593" y="378" type="line"/>
      <point x="531" y="130" type="line"/>
      <point x="490" y="104"/>
      <point x="447" y="90"/>
      <point x="404" y="90" type="curve" smooth="yes"/>
      <point x="297" y="90"/>
      <point x="223" y="191"/>
      <point x="223" y="337" type="curve" smooth="yes"/>
      <point x="223" y="568"/>
      <point x="381" y="806"/>
      <point x="535" y="806" type="curve" smooth="yes"/>
      <point x="613" y="806"/>
      <point x="675" y="756"/>
      <point x="703" y="668" type="curve"/>
      <point x="768" y="797" type="line"/>
      <point x="732" y="846"/>
      <point x="684" y="880"/>
      <point x="627" y="897" type="curve"/>
      <point x="650" y="990" type="line"/>
      <point x="566" y="990" type="line"/>
      <point x="546" y="909" type="line"/>
      <point x="321" y="909"/>
      <point x="108" y="627"/>
      <point x="108" y="332" type="curve" smooth="yes"/>
      <point x="108" y="161"/>
      <point x="191" y="33"/>
      <point x="318" y="-3" type="curve"/>
    </contour>
  </outline>
</glyph>
<glyph name="hryvnia" format="2">
  <advance width="750"/>
  <unicode hex="20B4"/>
  <outline>
    <contour>
      <point x="109" y="492" type="line"/>
      <point x="739" y="492" type="line"/>
      <point x="761" y="582" type="line"/>
      <point x="673" y="582" type="line"/>
      <point x="685" y="613"/>
      <point x="691" y="648"/>
      <point x="691" y="681" type="curve" smooth="yes"/>
      <point x="691" y="824"/>
      <point x="573" y="912"/>
      <point x="428" y="912" type="curve" smooth="yes"/>
      <point x="362" y="912"/>
      <point x="295" y="894"/>
      <point x="239" y="862" type="curve"/>
      <point x="239" y="737" type="line"/>
      <point x="286" y="782"/>
      <point x="351" y="810"/>
      <point x="416" y="810" type="curve" smooth="yes"/>
      <point x="518" y="810"/>
      <point x="579" y="751"/>
      <point x="579" y="673" type="curve" smooth="yes"/>
      <point x="579" y="642"/>
      <point x="570" y="611"/>
      <point x="550" y="582" type="curve"/>
      <point x="131" y="582" type="line"/>
    </contour>
    <contour>
      <point x="401" y="-12" type="curve" smooth="yes"/>
      <point x="466" y="-12"/>
      <point x="532" y="5"/>
      <point x="587" y="37" type="curve"/>
      <point x="587" y="162" type="line"/>
      <point x="540" y="117"/>
      <point x="475" y="89"/>
      <point x="408" y="89" type="curve" smooth="yes"/>
      <point x="309" y="89"/>
      <point x="248" y="151"/>
      <point x="248" y="227" type="curve" smooth="yes"/>
      <point x="248" y="258"/>
      <point x="258" y="291"/>
      <point x="277" y="318" type="curve"/>
      <point x="695" y="318" type="line"/>
      <point x="717" y="408" type="line"/>
      <point x="87" y="408" type="line"/>
      <point x="65" y="318" type="line"/>
      <point x="156" y="318" type="line"/>
      <point x="142" y="286"/>
      <point x="136" y="252"/>
      <point x="136" y="219" type="curve" smooth="yes"/>
      <point x="136" y="75"/>
      <point x="254" y="-12"/>
    </contour>
  </outline>
</glyph>
<glyph name="cedi" format="2">
  <advance width="750"/>
  <unicode hex="20B5"/>
  <outline>
    <contour>
      <point x="313" y="-120" type="line"/>
      <point x="397" y="-120" type="line"/>
      <point x="424" y="-13" type="line"/>
      <point x="495" y="-12"/>
      <point x="562" y="13"/>
      <point x="626" y="63" type="curve"/>
      <point x="627" y="206" type="line"/>
      <point x="568" y="131"/>
      <point x="498" y="90"/>
      <point x="428" y="90" type="curve" smooth="yes"/>
      <point x="321" y="90"/>
      <point x="247" y="191"/>
      <point x="247" y="337" type="curve" smooth="yes"/>
      <point x="247" y="568"/>
      <point x="405" y="806"/>
      <point x="559" y="806" type="curve" smooth="yes"/>
      <point x="637" y="806"/>
      <point x="699" y="756"/>
      <point x="727" y="668" type="curve"/>
      <point x="792" y="797" type="line"/>
      <point x="756" y="846"/>
      <point x="708" y="881"/>
      <point x="651" y="897" type="curve"/>
      <point x="674" y="990" type="line"/>
      <point x="590" y="990" type="line"/>
      <point x="570" y="909" type="line"/>
      <point x="345" y="909"/>
      <point x="132" y="627"/>
      <point x="132" y="332" type="curve" smooth="yes"/>
      <point x="132" y="161"/>
      <point x="215" y="33"/>
      <point x="342" y="-3" type="curve"/>
    </contour>
  </outline>
</glyph>
<glyph name="tenge" format="2">
  <advance width="750"/>
  <unicode hex="20B8"/>
  <outline>
    <contour>
      <point x="243" y="0" type="line"/>
      <point x="357" y="0" type="line"/>
      <point x="516" y="636" type="line"/>
      <point x="774" y="636" type="line"/>
      <point x="796" y="726" type="line"/>
      <point x="166" y="726" type="line"/>
      <point x="144" y="636" type="line"/>
      <point x="402" y="636" type="line"/>
    </contour>
    <contour>
      <point x="188" y="810" type="line"/>
      <point x="818" y="810" type="line"/>
      <point x="840" y="900" type="line"/>
      <point x="210" y="900" type="line"/>
    </contour>
  </outline>
</glyph>
<glyph name="rupeeIndian" format="2">
  <advance width="750"/>
  <unicode hex="20B9"/>
  <outline>
    <contour>
      <point x="399" y="0" type="line"/>
      <point x="520" y="0" type="line"/>
      <point x="288" y="356" type="line"/>
      <point x="329" y="356" type="line" smooth="yes"/>
      <point x="542" y="356"/>
      <point x="642" y="475"/>
      <point x="664" y="588" type="curve"/>
      <point x="762" y="588" type="line"/>
      <point x="783" y="672" type="line"/>
      <point x="679" y="672" type="line"/>
      <point x="679" y="731"/>
      <point x="653" y="781"/>
      <point x="611" y="816" type="curve"/>
      <point x="818" y="816" type="line"/>
      <point x="839" y="900" type="line"/>
      <point x="209" y="900" type="line"/>
      <point x="184" y="798" type="line"/>
      <point x="427" y="798" type="line" smooth="yes"/>
      <point x="516" y="798"/>
      <point x="571" y="747"/>
      <point x="571" y="672" type="curve"/>
      <point x="153" y="672" type="line"/>
      <point x="132" y="588" type="line"/>
      <point x="557" y="588" type="line"/>
      <point x="541" y="511"/>
      <point x="468" y="450"/>
      <point x="346" y="450" type="curve" smooth="yes"/>
      <point x="107" y="450" type="line"/>
      <point x="107" y="448" type="line"/>
    </contour>
  </outline>
</glyph>
<glyph name="liraTurkish" format="2">
  <advance width="750"/>
  <unicode hex="20BA"/>
  <outline>
    <contour>
      <point x="114" y="0" type="line"/>
      <point x="378" y="-1" type="line" smooth="yes"/>
      <point x="546" y="-2"/>
      <point x="689" y="145"/>
      <point x="689" y="303" type="curve" smooth="yes"/>
      <point x="689" y="335"/>
      <point x="683" y="362"/>
      <point x="667" y="390" type="curve"/>
      <point x="549" y="390" type="line"/>
      <point x="572" y="364"/>
      <point x="584" y="329"/>
      <point x="584" y="290" type="curve" smooth="yes"/>
      <point x="584" y="181"/>
      <point x="487" y="84"/>
      <point x="377" y="85" type="curve" smooth="yes"/>
      <point x="243" y="86" type="line"/>
      <point x="321" y="400" type="line"/>
      <point x="551" y="458" type="line"/>
      <point x="572" y="542" type="line"/>
      <point x="341" y="484" type="line"/>
      <point x="365" y="580" type="line"/>
      <point x="595" y="638" type="line"/>
      <point x="616" y="722" type="line"/>
      <point x="386" y="664" type="line"/>
      <point x="444" y="900" type="line"/>
      <point x="336" y="900" type="line"/>
      <point x="271" y="636" type="line"/>
      <point x="136" y="602" type="line"/>
      <point x="116" y="518" type="line"/>
      <point x="250" y="552" type="line"/>
      <point x="226" y="456" type="line"/>
      <point x="92" y="422" type="line"/>
      <point x="71" y="338" type="line"/>
      <point x="206" y="372" type="line"/>
    </contour>
  </outline>
</glyph>
<glyph name="manat" format="2">
  <advance width="750"/>
  <unicode hex="20BC"/>
  <outline>
    <contour>
      <point x="9" y="0" type="line"/>
      <point x="109" y="0" type="line"/>
      <point x="241" y="531" type="line" smooth="yes"/>
      <point x="267" y="637"/>
      <point x="340" y="696"/>
      <point x="425" y="698" type="curve"/>
      <point x="267" y="60" type="line"/>
      <point x="363" y="60" type="line"/>
      <point x="518" y="686" type="line"/>
      <point x="599" y="664"/>
      <point x="638" y="590"/>
      <point x="612" y="485" type="curve" smooth="yes"/>
      <point x="491" y="0" type="line"/>
      <point x="591" y="0" type="line"/>
      <point x="708" y="471" type="line" smooth="yes"/>
      <point x="748" y="632"/>
      <point x="680" y="752"/>
      <point x="542" y="782" type="curve"/>
      <point x="587" y="960" type="line"/>
      <point x="491" y="960" type="line"/>
      <point x="449" y="793" type="line"/>
      <point x="305" y="793"/>
      <point x="183" y="702"/>
      <point x="143" y="542" type="curve" smooth="yes"/>
    </contour>
  </outline>
</glyph>
<glyph name="ruble" format="2">
  <advance width="750"/>
  <unicode hex="20BD"/>
  <outline>
    <contour>
      <point x="93" y="0" type="line"/>
      <point x="207" y="0" type="line"/>
      <point x="241" y="138" type="line"/>
      <point x="471" y="138" type="line"/>
      <point x="491" y="222" type="line"/>
      <point x="262" y="222" type="line"/>
      <point x="286" y="318" type="line"/>
      <point x="430" y="318" type="line" smooth="yes"/>
      <point x="618" y="318"/>
      <point x="780" y="467"/>
      <point x="780" y="645" type="curve" smooth="yes"/>
      <point x="780" y="795"/>
      <point x="663" y="900"/>
      <point x="501" y="900" type="curve" smooth="yes"/>
      <point x="318" y="900" type="line"/>
      <point x="194" y="402" type="line"/>
      <point x="85" y="402" type="line"/>
      <point x="65" y="318" type="line"/>
      <point x="173" y="318" type="line"/>
      <point x="149" y="222" type="line"/>
      <point x="41" y="222" type="line"/>
      <point x="21" y="138" type="line"/>
      <point x="128" y="138" type="line"/>
    </contour>
    <contour>
      <point x="312" y="420" type="line"/>
      <point x="407" y="798" type="line"/>
      <point x="480" y="798" type="line" smooth="yes"/>
      <point x="593" y="798"/>
      <point x="666" y="731"/>
      <point x="666" y="634" type="curve" smooth="yes"/>
      <point x="666" y="517"/>
      <point x="563" y="420"/>
      <point x="432" y="420" type="curve" smooth="yes"/>
    </contour>
  </outline>
</glyph>
<glyph name="lari" format="2">
  <advance width="750"/>
  <unicode hex="20BE"/>
  <outline>
    <contour>
      <point x="10" y="0" type="line"/>
      <point x="592" y="0" type="line"/>
      <point x="614" y="90" type="line"/>
      <point x="475" y="90" type="line" smooth="yes"/>
      <point x="290" y="90"/>
      <point x="199" y="228"/>
      <point x="199" y="400" type="curve" smooth="yes"/>
      <point x="199" y="563"/>
      <point x="287" y="823"/>
      <point x="488" y="823" type="curve" smooth="yes"/>
      <point x="604" y="823"/>
      <point x="666" y="746"/>
      <point x="666" y="643" type="curve" smooth="yes"/>
      <point x="666" y="607"/>
      <point x="656" y="570"/>
      <point x="641" y="536" type="curve"/>
      <point x="748" y="536" type="line"/>
      <point x="760" y="571"/>
      <point x="767" y="611"/>
      <point x="767" y="645" type="curve" smooth="yes"/>
      <point x="767" y="744"/>
      <point x="724" y="828"/>
      <point x="648" y="875" type="curve"/>
      <point x="677" y="992" type="line"/>
      <point x="593" y="992" type="line"/>
      <point x="572" y="906" type="line"/>
      <point x="548" y="912"/>
      <point x="522" y="915"/>
      <point x="478" y="915" type="curve"/>
      <point x="497" y="992" type="line"/>
      <point x="413" y="992" type="line"/>
      <point x="390" y="898" type="line"/>
      <point x="194" y="832"/>
      <point x="89" y="587"/>
      <point x="89" y="396" type="curve" smooth="yes"/>
      <point x="89" y="262"/>
      <point x="142" y="155"/>
      <point x="241" y="90" type="curve"/>
      <point x="32" y="90" type="line"/>
    </contour>
  </outline>
</glyph>
<glyph name="bitcoin" format="2">
  <advance width="750"/>
  <unicode hex="20BF"/>
  <outline>
    <contour>
      <point x="108" y="-120" type="line"/>
      <point x="192" y="-120" type="line"/>
      <point x="222" y="0" type="line"/>
      <point x="254" y="0"/>
      <point x="286" y="0"/>
      <point x="318" y="0" type="curve"/>
      <point x="288" y="-120" type="line"/>
      <point x="372" y="-120" type="line"/>
      <point x="403" y="4" type="line"/>
      <point x="557" y="30"/>
      <point x="687" y="165"/>
      <point x="687" y="323" type="curve" smooth="yes"/>
      <point x="687" y="409"/>
      <point x="648" y="481"/>
      <point x="586" y="523" type="curve"/>
      <point x="656" y="562"/>
      <point x="706" y="636"/>
      <point x="706" y="719" type="curve" smooth="yes"/>
      <point x="706" y="792"/>
      <point x="666" y="850"/>
      <point x="606" y="879" type="curve"/>
      <point x="634" y="990" type="line"/>
      <point x="550" y="990" type="line"/>
      <point x="527" y="900" type="line"/>
      <point x="495" y="900"/>
      <point x="464" y="900"/>
      <point x="432" y="900" type="curve"/>
      <point x="454" y="990" type="line"/>
      <point x="370" y="990" type="line"/>
      <point x="348" y="900" type="line"/>
      <point x="276" y="900" type="line"/>
      <point x="51" y="0" type="line"/>
      <point x="138" y="0" type="line"/>
    </contour>
    <contour>
      <point x="190" y="102" type="line"/>
      <point x="285" y="480" type="line"/>
      <point x="400" y="480" type="line" smooth="yes"/>
      <point x="501" y="480"/>
      <point x="573" y="413"/>
      <point x="573" y="317" type="curve" smooth="yes"/>
      <point x="573" y="201"/>
      <point x="471" y="102"/>
      <point x="352" y="102" type="curve" smooth="yes"/>
    </contour>
    <contour>
      <point x="309" y="576" type="line"/>
      <point x="365" y="798" type="line"/>
      <point x="497" y="798" type="line" smooth="yes"/>
      <point x="556" y="798"/>
      <point x="598" y="759"/>
      <point x="598" y="702" type="curve" smooth="yes"/>
      <point x="598" y="634"/>
      <point x="538" y="576"/>
      <point x="459" y="576" type="curve" smooth="yes"/>
    </contour>
  </outline>
</glyph>
<glyph name="literSign" format="2">
  <advance width="600"/>
  <unicode hex="2113"/>
  <outline>
    <contour>
      <point x="341" y="-12" type="curve" smooth="yes"/>
      <point x="391" y="-12"/>
      <point x="434" y="-1"/>
      <point x="467" y="20" type="curve"/>
      <point x="467" y="125" type="line"/>
      <point x="429" y="96"/>
      <point x="394" y="83"/>
      <point x="357" y="83" type="curve" smooth="yes"/>
      <point x="276" y="83"/>
      <point x="235" y="142"/>
      <point x="257" y="228" type="curve" smooth="yes"/>
      <point x="294" y="376" type="line"/>
      <point x="493" y="443"/>
      <point x="664" y="645"/>
      <point x="664" y="813" type="curve" smooth="yes"/>
      <point x="664" y="912"/>
      <point x="607" y="972"/>
      <point x="512" y="972" type="curve" smooth="yes"/>
      <point x="399" y="972"/>
      <point x="308" y="881"/>
      <point x="272" y="731" type="curve" smooth="yes"/>
      <point x="197" y="423" type="line"/>
      <point x="161" y="413"/>
      <point x="124" y="408"/>
      <point x="87" y="408" type="curve"/>
      <point x="65" y="318" type="line"/>
      <point x="98" y="318"/>
      <point x="133" y="322"/>
      <point x="174" y="331" type="curve"/>
      <point x="149" y="233" type="line" smooth="yes"/>
      <point x="112" y="87"/>
      <point x="189" y="-12"/>
    </contour>
    <contour>
      <point x="320" y="479" type="curve"/>
      <point x="379" y="721" type="line" smooth="yes"/>
      <point x="403" y="821"/>
      <point x="448" y="875"/>
      <point x="506" y="875" type="curve" smooth="yes"/>
      <point x="546" y="875"/>
      <point x="567" y="850"/>
      <point x="567" y="801" type="curve" smooth="yes"/>
      <point x="567" y="688"/>
      <point x="450" y="536"/>
    </contour>
  </outline>
</glyph>
<glyph name="numero" format="2">
  <advance width="1470"/>
  <unicode hex="2116"/>
  <outline>
    <contour>
      <point x="780" y="-30" type="line"/>
      <point x="782" y="-30" type="line"/>
      <point x="1014" y="900" type="line"/>
      <point x="906" y="900" type="line"/>
      <point x="740" y="236" type="line"/>
      <point x="285" y="930" type="line"/>
      <point x="283" y="930" type="line"/>
      <point x="51" y="0" type="line"/>
      <point x="159" y="0" type="line"/>
      <point x="325" y="664" type="line"/>
    </contour>
    <contour>
      <point x="1191" y="108" type="curve" smooth="yes"/>
      <point x="1236" y="108"/>
      <point x="1275" y="147"/>
      <point x="1275" y="192" type="curve" smooth="yes"/>
      <point x="1275" y="230"/>
      <point x="1245" y="258"/>
      <point x="1209" y="258" type="curve" smooth="yes"/>
      <point x="1164" y="258"/>
      <point x="1125" y="219"/>
      <point x="1125" y="174" type="curve" smooth="yes"/>
      <point x="1125" y="137"/>
      <point x="1155" y="108"/>
    </contour>
    <contour>
      <point x="1282" y="408" type="curve" smooth="yes"/>
      <point x="1399" y="408"/>
      <point x="1502" y="507"/>
      <point x="1502" y="621" type="curve" smooth="yes"/>
      <point x="1502" y="719"/>
      <point x="1426" y="792"/>
      <point x="1325" y="792" type="curve" smooth="yes"/>
      <point x="1208" y="792"/>
      <point x="1106" y="692"/>
      <point x="1106" y="579" type="curve" smooth="yes"/>
      <point x="1106" y="482"/>
      <point x="1182" y="408"/>
    </contour>
    <contour>
      <point x="1292" y="489" type="curve" smooth="yes"/>
      <point x="1233" y="489"/>
      <point x="1190" y="532"/>
      <point x="1190" y="589" type="curve" smooth="yes"/>
      <point x="1190" y="654"/>
      <point x="1249" y="711"/>
      <point x="1317" y="711" type="curve" smooth="yes"/>
      <point x="1375" y="711"/>
      <point x="1419" y="667"/>
      <point x="1419" y="611" type="curve" smooth="yes"/>
      <point x="1419" y="547"/>
      <point x="1359" y="489"/>
    </contour>
  </outline>
</glyph>
<glyph name="Ohm" format="2">
  <advance width="1060"/>
  <unicode hex="2126"/>
  <outline>
    <contour>
      <point x="-14" y="0" type="line"/>
      <point x="349" y="0" type="line"/>
      <point x="304" y="93" type="line" smooth="yes"/>
      <point x="249" y="207"/>
      <point x="228" y="282"/>
      <point x="228" y="364" type="curve" smooth="yes"/>
      <point x="228" y="597"/>
      <point x="401" y="810"/>
      <point x="614" y="810" type="curve" smooth="yes"/>
      <point x="778" y="810"/>
      <point x="900" y="685"/>
      <point x="900" y="527" type="curve" smooth="yes"/>
      <point x="900" y="398"/>
      <point x="819" y="275"/>
      <point x="702" y="156" type="curve" smooth="yes"/>
      <point x="549" y="0" type="line"/>
      <point x="926" y="0" type="line"/>
      <point x="951" y="102" type="line"/>
      <point x="767" y="102" type="line"/>
      <point x="911" y="232"/>
      <point x="1013" y="374"/>
      <point x="1013" y="538" type="curve" smooth="yes"/>
      <point x="1013" y="748"/>
      <point x="844" y="917"/>
      <point x="621" y="917" type="curve" smooth="yes"/>
      <point x="345" y="917"/>
      <point x="121" y="658"/>
      <point x="121" y="377" type="curve" smooth="yes"/>
      <point x="121" y="277"/>
      <point x="149" y="186"/>
      <point x="195" y="102" type="curve"/>
      <point x="11" y="102" type="line"/>
    </contour>
  </outline>
</glyph>
<glyph name="estimated" format="2">
  <advance width="1260"/>
  <unicode hex="212E"/>
  <outline>
    <contour>
      <point x="601" y="-102" type="curve" smooth="yes"/>
      <point x="819" y="-102"/>
      <point x="1023" y="28"/>
      <point x="1135" y="210" type="curve"/>
      <point x="1025" y="210" type="line"/>
      <point x="928" y="79"/>
      <point x="773" y="-12"/>
      <point x="608" y="-12" type="curve" smooth="yes"/>
      <point x="428" y="-12"/>
      <point x="282" y="95"/>
      <point x="227" y="251" type="curve"/>
      <point x="265" y="405" type="line"/>
      <point x="1213" y="405" type="line"/>
      <point x="1220" y="441"/>
      <point x="1224" y="478"/>
      <point x="1224" y="515" type="curve" smooth="yes"/>
      <point x="1224" y="790"/>
      <point x="1010" y="1002"/>
      <point x="731" y="1002" type="curve" smooth="yes"/>
      <point x="404" y="1002"/>
      <point x="108" y="708"/>
      <point x="108" y="385" type="curve" smooth="yes"/>
      <point x="108" y="110"/>
      <point x="322" y="-102"/>
    </contour>
    <contour>
      <point x="287" y="495" type="line"/>
      <point x="347" y="739" type="line"/>
      <point x="444" y="843"/>
      <point x="581" y="912"/>
      <point x="724" y="912" type="curve" smooth="yes"/>
      <point x="896" y="912"/>
      <point x="1038" y="814"/>
      <point x="1098" y="668" type="curve"/>
      <point x="1055" y="495" type="line"/>
    </contour>
  </outline>
</glyph>
<glyph name="el" format="2">
  <advance width="750"/>
  <unicode hex="218B"/>
  <outline>
    <contour>
      <point x="75" y="0" type="line"/>
      <point x="577" y="0" type="line"/>
      <point x="602" y="102" type="line"/>
      <point x="273" y="102" type="line"/>
      <point x="542" y="452" type="line"/>
      <point x="541" y="453" type="line"/>
      <point x="525" y="448"/>
      <point x="507" y="446"/>
      <point x="488" y="446" type="curve" smooth="yes"/>
      <point x="390" y="446"/>
      <point x="322" y="516"/>
      <point x="322" y="607" type="curve" smooth="yes"/>
      <point x="322" y="716"/>
      <point x="418" y="810"/>
      <point x="522" y="810" type="curve" smooth="yes"/>
      <point x="617" y="810"/>
      <point x="690" y="736"/>
      <point x="688" y="640" type="curve"/>
      <point x="779" y="751" type="line"/>
      <point x="737" y="856"/>
      <point x="637" y="912"/>
      <point x="534" y="912" type="curve" smooth="yes"/>
      <point x="367" y="912"/>
      <point x="213" y="765"/>
      <point x="213" y="596" type="curve" smooth="yes"/>
      <point x="213" y="495"/>
      <point x="271" y="408"/>
      <point x="362" y="374" type="curve"/>
      <point x="75" y="2" type="line"/>
    </contour>
  </outline>
</glyph>
<glyph name="upArrow" format="2">
  <advance width="1440"/>
  <unicode hex="2191"/>
  <outline>
    <contour>
      <point x="672" y="-180" type="line"/>
      <point x="768" y="-180" type="line"/>
      <point x="768" y="482" type="line" smooth="yes"/>
      <point x="768" y="628"/>
      <point x="766" y="711"/>
      <point x="759" y="782" type="curve"/>
      <point x="792" y="719"/>
      <point x="825" y="673"/>
      <point x="858" y="628" type="curve" smooth="yes"/>
      <point x="1020" y="405" type="line"/>
      <point x="1020" y="570" type="line"/>
      <point x="720" y="984" type="line"/>
      <point x="420" y="571" type="line"/>
      <point x="420" y="406" type="line"/>
      <point x="582" y="628" type="line" smooth="yes"/>
      <point x="615" y="673"/>
      <point x="648" y="719"/>
      <point x="681" y="782" type="curve"/>
      <point x="674" y="711"/>
      <point x="672" y="628"/>
      <point x="672" y="484" type="curve" smooth="yes"/>
    </contour>
  </outline>
</glyph>
<glyph name="rightArrow" format="2">
  <advance width="1440"/>
  <unicode hex="2192"/>
  <outline>
    <contour>
      <point x="765" y="60" type="line"/>
      <point x="930" y="60" type="line"/>
      <point x="1344" y="360" type="line"/>
      <point x="931" y="660" type="line"/>
      <point x="766" y="660" type="line"/>
      <point x="988" y="498" type="line" smooth="yes"/>
      <point x="1033" y="465"/>
      <point x="1079" y="432"/>
      <point x="1142" y="399" type="curve"/>
      <point x="1071" y="406"/>
      <point x="988" y="408"/>
      <point x="844" y="408" type="curve" smooth="yes"/>
      <point x="180" y="408" type="line"/>
      <point x="180" y="312" type="line"/>
      <point x="842" y="312" type="line" smooth="yes"/>
      <point x="988" y="312"/>
      <point x="1071" y="314"/>
      <point x="1142" y="321" type="curve"/>
      <point x="1079" y="288"/>
      <point x="1033" y="255"/>
      <point x="988" y="222" type="curve" smooth="yes"/>
    </contour>
  </outline>
</glyph>
<glyph name="leftRightArrow" format="2">
  <advance width="1440"/>
  <unicode hex="2194"/>
  <outline>
    <contour>
      <point x="427" y="120" type="line"/>
      <point x="580" y="120" type="line"/>
      <point x="440" y="222" type="line" smooth="yes"/>
      <point x="394" y="255"/>
      <point x="349" y="288"/>
      <point x="286" y="321" type="curve"/>
      <point x="357" y="314"/>
      <point x="440" y="312"/>
      <point x="586" y="312" type="curve" smooth="yes"/>
      <point x="854" y="312" type="line" smooth="yes"/>
      <point x="1000" y="312"/>
      <point x="1083" y="314"/>
      <point x="1154" y="321" type="curve"/>
      <point x="1091" y="288"/>
      <point x="1046" y="255"/>
      <point x="1000" y="222" type="curve" smooth="yes"/>
      <point x="860" y="120" type="line"/>
      <point x="1013" y="120" type="line"/>
      <point x="1344" y="360" type="line"/>
      <point x="1014" y="600" type="line"/>
      <point x="861" y="600" type="line"/>
      <point x="1000" y="498" type="line" smooth="yes"/>
      <point x="1046" y="465"/>
      <point x="1091" y="432"/>
      <point x="1154" y="399" type="curve"/>
      <point x="1083" y="406"/>
      <point x="1000" y="408"/>
      <point x="856" y="408" type="curve" smooth="yes"/>
      <point x="584" y="408" type="line" smooth="yes"/>
      <point x="440" y="408"/>
      <point x="357" y="406"/>
      <point x="286" y="399" type="curve"/>
      <point x="349" y="432"/>
      <point x="394" y="465"/>
      <point x="440" y="498" type="curve" smooth="yes"/>
      <point x="579" y="600" type="line"/>
      <point x="426" y="600" type="line"/>
      <point x="96" y="360" type="line"/>
    </contour>
  </outline>
</glyph>
<glyph name="southWestArrow" format="2">
  <advance width="1440"/>
  <unicode hex="2199"/>
  <outline>
    <contour>
      <point x="336" y="-69" type="line"/>
      <point x="841" y="11" type="line"/>
      <point x="957" y="128" type="line"/>
      <point x="686" y="86" type="line" smooth="yes"/>
      <point x="631" y="77"/>
      <point x="575" y="68"/>
      <point x="507" y="47" type="curve"/>
      <point x="562" y="92"/>
      <point x="622" y="149"/>
      <point x="724" y="251" type="curve" smooth="yes"/>
      <point x="1194" y="722" type="line"/>
      <point x="1127" y="789" type="line"/>
      <point x="657" y="320" type="line" smooth="yes"/>
      <point x="554" y="217"/>
      <point x="497" y="157"/>
      <point x="452" y="102" type="curve"/>
      <point x="473" y="170"/>
      <point x="482" y="226"/>
      <point x="491" y="281" type="curve" smooth="yes"/>
      <point x="534" y="553" type="line"/>
      <point x="417" y="436" type="line"/>
    </contour>
  </outline>
</glyph>
<glyph name="partialdiff" format="2">
  <advance width="740"/>
  <unicode hex="2202"/>
  <outline>
    <contour>
      <point x="334" y="-12" type="curve" smooth="yes"/>
      <point x="543" y="-12"/>
      <point x="692" y="176"/>
      <point x="692" y="370" type="curve" smooth="yes"/>
      <point x="692" y="428"/>
      <point x="680" y="490"/>
      <point x="653" y="562" type="curve" smooth="yes"/>
      <point x="608" y="680"/>
      <point x="526" y="847"/>
      <point x="464" y="960" type="curve"/>
      <point x="351" y="960" type="line"/>
      <point x="424" y="828"/>
      <point x="504" y="677"/>
      <point x="562" y="530" type="curve"/>
      <point x="521" y="585"/>
      <point x="454" y="606"/>
      <point x="392" y="606" type="curve" smooth="yes"/>
      <point x="217" y="606"/>
      <point x="55" y="446"/>
      <point x="55" y="266" type="curve" smooth="yes"/>
      <point x="55" y="106"/>
      <point x="179" y="-12"/>
    </contour>
    <contour>
      <point x="343" y="90" type="curve" smooth="yes"/>
      <point x="237" y="90"/>
      <point x="165" y="176"/>
      <point x="165" y="276" type="curve" smooth="yes"/>
      <point x="165" y="401"/>
      <point x="271" y="510"/>
      <point x="396" y="510" type="curve" smooth="yes"/>
      <point x="501" y="510"/>
      <point x="578" y="429"/>
      <point x="578" y="329" type="curve" smooth="yes"/>
      <point x="578" y="203"/>
      <point x="464" y="90"/>
    </contour>
  </outline>
</glyph>
<glyph name="emptyset" format="2">
  <advance width="750"/>
  <unicode hex="2205"/>
  <outline>
    <contour>
      <point x="377" y="141" type="curve" smooth="yes"/>
      <point x="568" y="141"/>
      <point x="734" y="302"/>
      <point x="734" y="486" type="curve" smooth="yes"/>
      <point x="734" y="529"/>
      <point x="725" y="569"/>
      <point x="708" y="605" type="curve"/>
      <point x="804" y="672" type="line"/>
      <point x="756" y="743" type="line"/>
      <point x="661" y="676" type="line"/>
      <point x="598" y="738"/>
      <point x="518" y="760"/>
      <point x="451" y="760" type="curve" smooth="yes"/>
      <point x="264" y="760"/>
      <point x="93" y="601"/>
      <point x="93" y="416" type="curve" smooth="yes"/>
      <point x="93" y="373"/>
      <point x="103" y="332"/>
      <point x="120" y="296" type="curve"/>
      <point x="24" y="228" type="line"/>
      <point x="71" y="157" type="line"/>
      <point x="167" y="225" type="line"/>
      <point x="230" y="160"/>
      <point x="311" y="141"/>
    </contour>
    <contour>
      <point x="386" y="235" type="curve" smooth="yes"/>
      <point x="333" y="235"/>
      <point x="285" y="256"/>
      <point x="253" y="288" type="curve"/>
      <point x="619" y="546" type="line"/>
      <point x="627" y="525"/>
      <point x="631" y="502"/>
      <point x="631" y="478" type="curve" smooth="yes"/>
      <point x="631" y="348"/>
      <point x="516" y="235"/>
    </contour>
    <contour>
      <point x="208" y="355" type="line"/>
      <point x="200" y="376"/>
      <point x="196" y="399"/>
      <point x="196" y="423" type="curve" smooth="yes"/>
      <point x="196" y="551"/>
      <point x="311" y="665"/>
      <point x="440" y="665" type="curve" smooth="yes"/>
      <point x="496" y="665"/>
      <point x="542" y="644"/>
      <point x="575" y="612" type="curve"/>
    </contour>
  </outline>
</glyph>
<glyph name="increment" format="2">
  <advance width="800"/>
  <unicode hex="2206"/>
  <outline>
    <contour>
      <point x="-57" y="0" type="line"/>
      <point x="707" y="0" type="line"/>
      <point x="554" y="930" type="line"/>
      <point x="552" y="930" type="line"/>
    </contour>
    <contour>
      <point x="129" y="95" type="line"/>
      <point x="416" y="540" type="line" smooth="yes"/>
      <point x="446" y="586"/>
      <point x="469" y="624"/>
      <point x="500" y="686" type="curve"/>
      <point x="501" y="624"/>
      <point x="506" y="585"/>
      <point x="513" y="540" type="curve" smooth="yes"/>
      <point x="581" y="95" type="line"/>
    </contour>
  </outline>
</glyph>
<glyph name="product" format="2">
  <advance width="800"/>
  <unicode hex="220F"/>
  <outline>
    <contour>
      <point x="21" y="-120" type="line"/>
      <point x="135" y="-120" type="line"/>
      <point x="364" y="798" type="line"/>
      <point x="684" y="798" type="line"/>
      <point x="455" y="-120" type="line"/>
      <point x="569" y="-120" type="line"/>
      <point x="824" y="900" type="line"/>
      <point x="276" y="900" type="line"/>
    </contour>
  </outline>
</glyph>
<glyph name="summation" format="2">
  <advance width="740"/>
  <unicode hex="2211"/>
  <outline>
    <contour>
      <point x="-63" y="-120" type="line"/>
      <point x="575" y="-120" type="line"/>
      <point x="601" y="-18" type="line"/>
      <point x="169" y="-18" type="line"/>
      <point x="545" y="398" type="line"/>
      <point x="379" y="798" type="line"/>
      <point x="777" y="798" type="line"/>
      <point x="803" y="900" type="line"/>
      <point x="219" y="900" type="line"/>
      <point x="219" y="898" type="line"/>
      <point x="419" y="413" type="line"/>
      <point x="-63" y="-118" type="line"/>
    </contour>
  </outline>
</glyph>
<glyph name="minus" format="2">
  <advance width="750"/>
  <unicode hex="2212"/>
  <outline>
    <contour>
      <point x="116" y="404" type="line"/>
      <point x="686" y="404" type="line"/>
      <point x="708" y="496" type="line"/>
      <point x="138" y="496" type="line"/>
    </contour>
  </outline>
</glyph>
<glyph name="radical" format="2">
  <advance width="770"/>
  <unicode hex="221A"/>
  <outline>
    <contour>
      <point x="325" y="-149" type="line"/>
      <point x="327" y="-149" type="line"/>
      <point x="938" y="960" type="line"/>
      <point x="836" y="960" type="line"/>
      <point x="423" y="210" type="line" smooth="yes"/>
      <point x="403" y="174"/>
      <point x="381" y="132"/>
      <point x="361" y="93" type="curve"/>
      <point x="356" y="131"/>
      <point x="350" y="170"/>
      <point x="342" y="204" type="curve" smooth="yes"/>
      <point x="274" y="495" type="line"/>
      <point x="109" y="495" type="line"/>
      <point x="87" y="405" type="line"/>
      <point x="192" y="405" type="line"/>
    </contour>
  </outline>
</glyph>
<glyph name="infinity" format="2">
  <advance width="1140"/>
  <unicode hex="221E"/>
  <outline>
    <contour>
      <point x="295" y="138" type="curve" smooth="yes"/>
      <point x="385" y="138"/>
      <point x="475" y="201"/>
      <point x="592" y="360" type="curve"/>
      <point x="644" y="206"/>
      <point x="712" y="138"/>
      <point x="810" y="138" type="curve" smooth="yes"/>
      <point x="971" y="138"/>
      <point x="1114" y="319"/>
      <point x="1114" y="522" type="curve" smooth="yes"/>
      <point x="1114" y="666"/>
      <point x="1039" y="762"/>
      <point x="927" y="762" type="curve" smooth="yes"/>
      <point x="837" y="762"/>
      <point x="748" y="700"/>
      <point x="628" y="539" type="curve"/>
      <point x="576" y="693"/>
      <point x="507" y="762"/>
      <point x="409" y="762" type="curve" smooth="yes"/>
      <point x="251" y="762"/>
      <point x="106" y="579"/>
      <point x="106" y="378" type="curve" smooth="yes"/>
      <point x="106" y="235"/>
      <point x="182" y="138"/>
    </contour>
    <contour>
      <point x="313" y="237" type="curve" smooth="yes"/>
      <point x="246" y="237"/>
      <point x="208" y="289"/>
      <point x="208" y="381" type="curve" smooth="yes"/>
      <point x="208" y="526"/>
      <point x="301" y="663"/>
      <point x="400" y="663" type="curve" smooth="yes"/>
      <point x="465" y="663"/>
      <point x="507" y="606"/>
      <point x="556" y="450" type="curve"/>
      <point x="435" y="290"/>
      <point x="374" y="237"/>
    </contour>
    <contour>
      <point x="822" y="237" type="curve" smooth="yes"/>
      <point x="757" y="237"/>
      <point x="715" y="294"/>
      <point x="664" y="449" type="curve"/>
      <point x="787" y="611"/>
      <point x="846" y="663"/>
      <point x="907" y="663" type="curve" smooth="yes"/>
      <point x="974" y="663"/>
      <point x="1012" y="611"/>
      <point x="1012" y="520" type="curve" smooth="yes"/>
      <point x="1012" y="375"/>
      <point x="919" y="237"/>
    </contour>
  </outline>
</glyph>
<glyph name="integral" format="2">
  <advance width="600"/>
  <unicode hex="222B"/>
  <outline>
    <contour>
      <point x="56" y="-192" type="curve" smooth="yes"/>
      <point x="151" y="-192"/>
      <point x="241" y="-131"/>
      <point x="273" y="-2" type="curve" smooth="yes"/>
      <point x="465" y="768" type="line" smooth="yes"/>
      <point x="487" y="857"/>
      <point x="533" y="882"/>
      <point x="577" y="882" type="curve" smooth="yes"/>
      <point x="618" y="882"/>
      <point x="654" y="863"/>
      <point x="677" y="824" type="curve"/>
      <point x="729" y="924" type="line"/>
      <point x="689" y="959"/>
      <point x="636" y="972"/>
      <point x="589" y="972" type="curve" smooth="yes"/>
      <point x="493" y="972"/>
      <point x="404" y="910"/>
      <point x="372" y="781" type="curve" smooth="yes"/>
      <point x="180" y="12" type="line" smooth="yes"/>
      <point x="158" y="-78"/>
      <point x="111" y="-103"/>
      <point x="68" y="-103" type="curve" smooth="yes"/>
      <point x="25" y="-103"/>
      <point x="-9" y="-84"/>
      <point x="-33" y="-45" type="curve"/>
      <point x="-84" y="-145" type="line"/>
      <point x="-46" y="-178"/>
      <point x="8" y="-192"/>
    </contour>
  </outline>
</glyph>
<glyph name="notequal" format="2">
  <advance width="750"/>
  <unicode hex="2260"/>
  <outline>
    <contour>
      <point x="147" y="150" type="line"/>
      <point x="239" y="150" type="line"/>
      <point x="342" y="291" type="line"/>
      <point x="659" y="291" type="line"/>
      <point x="681" y="381" type="line"/>
      <point x="408" y="381" type="line"/>
      <point x="510" y="519" type="line"/>
      <point x="715" y="519" type="line"/>
      <point x="737" y="609" type="line"/>
      <point x="576" y="609" type="line"/>
      <point x="679" y="750" type="line"/>
      <point x="587" y="750" type="line"/>
      <point x="484" y="609" type="line"/>
      <point x="167" y="609" type="line"/>
      <point x="145" y="519" type="line"/>
      <point x="418" y="519" type="line"/>
      <point x="316" y="381" type="line"/>
      <point x="111" y="381" type="line"/>
      <point x="89" y="291" type="line"/>
      <point x="250" y="291" type="line"/>
    </contour>
  </outline>
</glyph>
